<?xml version="1.0" encoding="UTF-8"?><svg id="Layer_1" xmlns="http://www.w3.org/2000/svg" viewBox="0 0 1350 1350"><defs><style>.cls-1{fill:#205eab;}</style></defs><path class="cls-1" d="M733.67,1251.47c-75.58,0-146.63-29.43-200.08-82.88L40,675,533.6,181.42c53.43-53.45,124.49-82.89,200.08-82.89s146.63,29.43,200.07,82.89l293.52,293.51c110.32,110.33,110.32,289.83,0,400.14l-293.52,293.52c-53.43,53.44-124.49,82.88-200.07,82.88ZM145.48,675l440.85,440.86c81.26,81.24,213.44,81.22,294.68,0l293.52-293.52c81.24-81.24,81.24-213.43,0-294.68L881.01,234.15c-39.36-39.36-91.68-61.04-147.33-61.04s-107.99,21.68-147.34,61.04L145.48,675Z"/><g><path class="cls-1" d="M1079.78,673.48l-14.74-92.16c-2.24-15.96-14.18-24.79-32.94-24.79l-109.95-.31c-17.69,0-30.7-8.84-32.94-24.79l-.38-2.62c-3.57-25.34-21.36-46.39-45.77-54.13l-147.73-54.08c-3.68-1.19-7.09-3.07-10.03-5.56-1.06-.9-1.78-2.14-2.17-3.48l-27.63-94.9c-.28-.96-.79-1.85-1.56-2.48-8.12-6.68-20.56-4.33-25.58,5.17l-54.49,122.05c-1.98,3.74-3.12,7.88-3.33,12.12l6.69,55.63c-.31,5.88-2.41,11.57-6,16.24l-108.67,108.07c-11.57,11.57-35.77,35.77-35.77,35.77l304.33,304.36,27.13-111.43c2.33-13.05,13.15-22.89,26.34-23.96l57.58-4.64c179.88-7.69,181.76-59.61,233.29-140.3,3-4.72,4.6-10.19,4.6-15.74,0-1.33-.1-2.69-.29-4.02Zm-236.75-89.74c-13.26,3.33-50.23,1.19-53.56-12.07-3.33-13.24,28.27-32.6,41.51-35.91,13.26-3.33,26.7,4.72,30.03,17.98,3.31,13.24-4.74,26.7-17.98,30.01Z"/><path class="cls-1" d="M781.88,435.5l-29.01-108.92c-.32-1.19-1.04-2.24-2.04-2.96-6.43-4.6-15.71-2.63-19.55,4.64l-36.4,75.39,87,31.84Z"/><path class="cls-1" d="M726.53,992.3l-1.88,7.71c-4.28,17.56-26.12,23.68-38.91,10.9l-274.22-274.22-26.1-26.1,29.7-29.7,26.1,26.1,285.31,285.31Z"/></g></svg>