<?xml version="1.0" encoding="utf-8"?>
<!-- Generator: Adobe Illustrator 28.2.0, SVG Export Plug-In . SVG Version: 6.00 Build 0)  -->
<svg version="1.1" xmlns="http://www.w3.org/2000/svg" xmlns:xlink="http://www.w3.org/1999/xlink" x="0px" y="0px"
	 viewBox="0 0 1920 632.51" style="enable-background:new 0 0 1920 632.51;" xml:space="preserve">
<style type="text/css">
	.st0{clip-path:url(#SVGID_00000065045999731516100160000007329899648576828572_);fill:#FFFFFF;}
	.st1{fill:#FFFFFF;}
</style>
<g id="Layer_1">
	<g>
		<g>
			<defs>
				<rect id="SVGID_1_" y="2.64" width="1920" height="523"/>
			</defs>
			<clipPath id="SVGID_00000147923114548510084520000017867003880147110077_">
				<use xlink:href="#SVGID_1_"  style="overflow:visible;"/>
			</clipPath>
			<path style="clip-path:url(#SVGID_00000147923114548510084520000017867003880147110077_);fill:#FFFFFF;" d="M134.51,132.57
				c28.63,0,54.6,7.95,75.81,22.79c11.66,7.95,14.31,23.33,6.36,36.58c-7.42,12.19-25.98,12.73-37.64,5.83
				c-12.73-7.42-28.63-12.19-44.53-12.19c-41.35,0-77.93,30.22-77.93,76.34c0,46.12,36.58,75.81,77.93,75.81
				c15.91,0,31.81-4.77,44.53-12.19c11.66-6.89,30.22-6.36,37.64,5.83c7.95,13.26,5.3,28.63-6.36,36.58
				c-21.21,14.85-47.19,22.8-75.81,22.8C63.47,390.76,2.5,340.39,2.5,261.93C2.5,183.47,63.47,132.57,134.51,132.57"/>
			<path style="clip-path:url(#SVGID_00000147923114548510084520000017867003880147110077_);fill:#FFFFFF;" d="M261.22,260.87
				c0-78.46,58.85-128.29,128.83-128.29c70.51,0,129.89,49.83,129.89,128.29s-59.37,129.89-129.89,129.89
				C320.06,390.76,261.22,339.33,261.22,260.87 M465.86,260.87c0-45.59-34.46-75.28-75.81-75.28c-40.82,0-74.75,29.69-74.75,75.28
				c0,46.66,33.93,76.87,74.75,76.87C431.4,337.74,465.86,307.52,465.86,260.87"/>
			<path style="clip-path:url(#SVGID_00000147923114548510084520000017867003880147110077_);fill:#FFFFFF;" d="M633.91,296.39v64.15
				c0,14.85-12.19,27.57-28.1,27.57c-14.84,0-26.51-12.72-26.51-27.57V162.79c0-14.85,11.67-27.57,26.51-27.57
				c15.91,0,28.1,12.72,28.1,27.57v31.81c12.73-44,37.11-62.02,67.86-62.02c7.95,0,15.91,0.53,23.33,2.12
				c13.79,3.18,22.8,16.97,19.62,31.28c-4.77,23.86-28.63,18.03-44.53,18.03C653.53,184,633.91,230.65,633.91,296.39"/>
			<path style="clip-path:url(#SVGID_00000147923114548510084520000017867003880147110077_);fill:#FFFFFF;" d="M788.19,304.87
				c13.25-5.3,23.33,1.59,27.57,10.6c10.08,19.09,29.16,29.69,53.55,29.69c24.92,0,42.94-11.13,42.94-29.69
				c0-15.9-15.38-22.79-33.4-27.03l-33.4-7.95c-52.48-14.32-71.57-42.94-68.39-82.71c3.18-36.58,42.94-65.21,88.53-65.21
				c32.87,0,63.09,10.6,79.53,36.58c7.42,12.72,3.71,25.44-4.77,31.81c-9.01,7.42-20.15,6.89-31.81-3.18
				c-13.78-12.19-29.69-16.97-42.41-16.97c-13.79,0-29.16,4.77-34.46,13.25c-4.24,6.89-4.77,13.78-2.12,21.21
				c3.18,9.54,18.03,14.31,31.28,18.02l38.17,9.54c53.54,13.25,64.68,48.24,64.68,73.16c0,47.71-41.88,74.75-98.61,74.75
				c-38.17,0-76.87-20.15-90.13-56.2C770.69,321.31,776.53,309.12,788.19,304.87"/>
			<path style="clip-path:url(#SVGID_00000147923114548510084520000017867003880147110077_);fill:#FFFFFF;" d="M1006.61,260.87
				c0-78.46,58.85-128.29,128.83-128.29c70.51,0,129.89,49.83,129.89,128.29s-59.37,129.89-129.89,129.89
				C1065.46,390.76,1006.61,339.33,1006.61,260.87 M1211.25,260.87c0-45.59-34.46-75.28-75.81-75.28
				c-40.82,0-74.75,29.69-74.75,75.28c0,46.66,33.93,76.87,74.75,76.87C1176.79,337.74,1211.25,307.52,1211.25,260.87"/>
			<path style="clip-path:url(#SVGID_00000147923114548510084520000017867003880147110077_);fill:#FFFFFF;" d="M1658.37,523.34
				c-33.98,0-65.93-13.24-89.96-37.26l-221.94-221.93l221.94-221.93c24.03-24.03,55.98-37.27,89.96-37.27
				c33.98,0,65.93,13.24,89.96,37.27l131.98,131.97c49.6,49.61,49.6,130.31,0,179.92l-131.98,131.98
				C1724.3,510.1,1692.35,523.34,1658.37,523.34 M1393.9,264.14l198.22,198.22c36.54,36.53,95.97,36.52,132.5,0l131.98-131.98
				c36.53-36.53,36.53-95.96,0-132.5L1724.61,65.92c-17.7-17.7-41.22-27.44-66.25-27.44c-25.03,0-48.55,9.75-66.25,27.44
				L1393.9,264.14z"/>
			<path style="clip-path:url(#SVGID_00000147923114548510084520000017867003880147110077_);fill:#FFFFFF;" d="M1813.99,263.46
				l-6.63-41.44c-1.01-7.18-6.37-11.15-14.81-11.15l-49.44-0.14c-7.95,0-13.8-3.97-14.81-11.15l-0.17-1.18
				c-1.61-11.39-9.6-20.86-20.58-24.34l-66.42-24.32c-1.66-0.53-3.19-1.38-4.51-2.5c-0.48-0.4-0.8-0.96-0.97-1.57l-12.42-42.67
				c-0.12-0.43-0.36-0.83-0.7-1.12c-3.65-3-9.24-1.95-11.5,2.32l-24.5,54.88c-0.89,1.68-1.4,3.55-1.5,5.45l3.01,25.01
				c-0.14,2.64-1.08,5.2-2.7,7.3l-48.86,48.59c-5.2,5.2-16.08,16.08-16.08,16.08l136.84,136.85l12.2-50.1
				c1.05-5.87,5.91-10.29,11.84-10.77l25.89-2.09c80.88-3.46,81.72-26.8,104.89-63.08c1.35-2.12,2.07-4.58,2.07-7.08
				C1814.12,264.67,1814.07,264.06,1813.99,263.46 M1707.54,223.11c-5.96,1.5-22.58,0.54-24.08-5.43
				c-1.5-5.95,12.71-14.66,18.66-16.15c5.96-1.5,12,2.12,13.5,8.09C1717.11,215.57,1713.49,221.62,1707.54,223.11"/>
			<path style="clip-path:url(#SVGID_00000147923114548510084520000017867003880147110077_);fill:#FFFFFF;" d="M1680.04,156.45
				L1667,107.48c-0.14-0.53-0.47-1.01-0.92-1.33c-2.89-2.07-7.06-1.18-8.79,2.09l-16.37,33.9L1680.04,156.45z"/>
			<path style="clip-path:url(#SVGID_00000147923114548510084520000017867003880147110077_);fill:#FFFFFF;" d="M1655.16,406.81
				l-0.85,3.47c-1.93,7.89-11.75,10.65-17.49,4.9l-123.3-123.3l-11.74-11.74l13.35-13.35l11.74,11.74L1655.16,406.81z"/>
		</g>
		<g>
			<path class="st1" d="M523.8,510.47c5.57-9.64,17.49-14.55,30.17-14.55c24.41,0,44.78,17.77,44.78,46.11
				c0,27.78-20.76,45.93-44.97,45.93c-12.11,0-24.41-5.29-29.98-14.74v3.97c0,5.29-4.42,9.83-10.19,9.83
				c-5.38,0-9.61-4.54-9.61-9.83v-118.5c0-5.29,4.23-9.83,9.61-9.83c5.77,0,10.19,4.54,10.19,9.83V510.47z M551.48,569.06
				c14.99,0,27.1-11.15,27.1-27.4s-12.11-26.84-27.1-26.84c-13.45,0-27.48,9.45-27.48,26.84
				C523.99,558.85,536.87,569.06,551.48,569.06z"/>
			<path class="st1" d="M645.84,623.3c-2.11,4.91-7.11,7.56-12.3,6.24s-8.07-7.37-6.15-12.28l14.61-35.34l-30.56-72.38
				c-2.11-4.91,0.96-10.96,6.15-12.29c5.19-1.32,10.19,1.32,12.3,6.24l22.68,54.81l22.87-54.81c2.11-4.91,7.11-7.56,12.3-6.24
				c5.19,1.32,8.26,7.37,6.15,12.29L645.84,623.3z"/>
			<path class="st1" d="M828.41,573.4c-5.96,9.64-19.03,14.55-30.17,14.55c-24.22,0-45.55-17.95-45.55-46.11
				s21.33-45.93,45.55-45.93c10.76,0,24.02,4.35,30.17,14.36v-3.59c0-5.29,4.23-9.83,9.61-9.83c5.77,0,10.19,4.54,10.19,9.83v70.5
				c0,5.29-4.42,9.83-10.19,9.83c-5.38,0-9.61-4.54-9.61-9.83V573.4z M800.55,569.06c14.61,0,27.67-10.02,27.67-27.4
				s-14.22-26.84-27.67-26.84c-14.99,0-27.48,10.58-27.48,26.84S785.56,569.06,800.55,569.06z"/>
			<path class="st1" d="M894.91,577.18c0,5.29-4.42,9.83-10.19,9.83c-5.38,0-9.61-4.54-9.61-9.83v-118.5c0-5.29,4.23-9.83,9.61-9.83
				c5.77,0,10.19,4.54,10.19,9.83V577.18z"/>
			<path class="st1" d="M964.67,495.91c10.38,0,19.8,2.83,27.48,8.13c4.23,2.83,5.19,8.32,2.31,13.04
				c-2.69,4.35-9.42,4.54-13.65,2.08c-4.61-2.65-10.38-4.35-16.14-4.35c-14.99,0-28.25,10.77-28.25,27.21s13.26,27.03,28.25,27.03
				c5.77,0,11.53-1.7,16.14-4.35c4.23-2.46,10.96-2.27,13.65,2.08c2.88,4.72,1.92,10.21-2.31,13.04c-7.69,5.29-17.1,8.13-27.48,8.13
				c-25.75,0-47.85-17.95-47.85-45.93C916.82,514.06,938.92,495.91,964.67,495.91z"/>
			<path class="st1" d="M1026.55,449.8c7.3,0,13.07,5.29,13.07,12.28c0,6.99-5.77,12.29-13.07,12.29c-7.11,0-13.26-5.29-13.26-12.29
				C1013.29,455.09,1019.44,449.8,1026.55,449.8z M1036.55,506.69c0-5.29-4.42-9.83-10.19-9.83c-5.38,0-9.61,4.54-9.61,9.83v70.5
				c0,5.29,4.23,9.83,9.61,9.83c5.77,0,10.19-4.54,10.19-9.83V506.69z"/>
			<path class="st1" d="M1058.07,541.65c0-27.97,21.33-45.74,46.7-45.74c25.56,0,47.08,17.77,47.08,45.74
				c0,27.97-21.52,46.3-47.08,46.3C1079.4,587.95,1058.07,569.62,1058.07,541.65z M1132.25,541.65c0-16.25-12.49-26.84-27.48-26.84
				c-14.8,0-27.1,10.58-27.1,26.84c0,16.63,12.3,27.4,27.1,27.4C1119.76,569.06,1132.25,558.28,1132.25,541.65z"/>
			<path class="st1" d="M1173.38,506.69c0-5.29,4.42-9.83,10.19-9.83c5.38,0,9.61,4.54,9.61,9.83v4.35
				c5.19-10.21,17.49-15.12,27.48-15.12c21.72,0,34.21,13.8,34.21,38.74v42.52c0,5.29-4.42,9.83-10.19,9.83
				c-5.38,0-9.61-4.54-9.61-9.83v-40.26c0-13.99-7.3-21.92-18.83-21.92c-11.72,0-23.06,6.24-23.06,23.62v38.55
				c0,5.29-4.42,9.83-10.19,9.83c-5.38,0-9.61-4.54-9.61-9.83V506.69z"/>
		</g>
	</g>
</g>
<g id="Layer_2">
</g>
</svg>
