<?xml version="1.0" encoding="UTF-8"?>
<svg fill="#FFFFFF" width="100pt" height="100pt" version="1.1" viewBox="0 0 100 100" xmlns="http://www.w3.org/2000/svg">
 <g>
  <path d="m74.711 14.57c-0.5625-2.7188-2.2891-4.5703-3.7109-4.5703-1 0-1.8711 0.87891-2.1094 3-0.60547 3.2422-1.6133 6.3984-3 9.3906 3.2852 3.9961 6.0156 8.418 8.1094 13.148 3.0898-4.3398 1.6602-16.398 0.71094-20.969z"/>
  <path d="m34.102 22.359c-1.3945-2.9922-2.4023-6.1445-3-9.3906-0.20312-2.0898-1.1016-2.9688-2.1016-2.9688-1.4492 0-3.1797 1.8516-3.7383 4.5703-0.94922 4.5703-2.3789 16.641 0.73828 21 2.0938-4.7461 4.8203-9.1914 8.1016-13.211z"/>
  <path d="m24.891 68.891c0.86719 2.1914 2.1523 4.1953 3.7812 5.8984 1.0781-8.5391 3.7695-18.148 6.4688-21 1.6641-1.7031 3.8086-2.8594 6.1484-3.3086 0.089844-0.15625 0.19141-0.30859 0.30078-0.44922 0.46875-2.8125 2.4102-11.57 8.4102-11.57s8 8.7578 8.4102 11.539c0.10938 0.14453 0.21094 0.29297 0.30078 0.44922 2.3398 0.44922 4.4844 1.6055 6.1484 3.3125 2.6992 2.8906 5.3906 12.5 6.4688 21 1.6289-1.707 2.9141-3.707 3.793-5.8906 2-5.2109-0.51172-25.672-1-28.609-0.48828-2.9414-7.2891-17-13-20.102-1.668-0.89844-3.5352-1.3711-5.4297-1.3711-1.9805 0.015626-3.9297 0.48828-5.6914 1.3906-1.7617-0.90234-3.7109-1.3711-5.6914-1.3711-1.8906 0-3.7539 0.47266-5.418 1.3711-5.7188 3.0586-12.531 17.16-13 20.102-0.46875 2.9375-3.0117 23.398-1 28.609zm38.199-30.52c1.7031 0 3.2383 1.0273 3.8906 2.6016 0.65234 1.5742 0.28906 3.3828-0.91797 4.5859-1.207 1.207-3.0195 1.5625-4.5898 0.90625-1.5742-0.65234-2.5977-2.1914-2.5938-3.8945 0.007813-2.3203 1.8906-4.1992 4.2109-4.1992zm-19.629-14.5c0.19922 0 4.4414-0.17188 6.5391 2.1289 2.1016-2.3008 6.3281-2.1289 6.5391-2.1289 0.41406 0.019531 0.73438 0.37109 0.71484 0.78516-0.019531 0.41406-0.37109 0.73438-0.78516 0.71484 0 0-4.5898-0.17969-5.8008 2.2695l-0.078125 0.12109c-0.0625 0.0625-0.13281 0.11719-0.21094 0.16016h-0.078125c-0.09375 0.042969-0.19531 0.066406-0.30078 0.066406s-0.20703-0.023437-0.30078-0.066406h-0.050781c-0.078126-0.042969-0.14844-0.097656-0.20703-0.16016l-0.078125-0.12109c-1.2188-2.4492-5.75-2.2617-5.8008-2.2695h-0.003906c-0.40625 0.011718-0.75-0.30469-0.77734-0.71094-0.023438-0.40234 0.27734-0.75391 0.67969-0.78906zm-2.4609 5.6094c0.28906 0 6.4805-0.44141 9 3.3008 2.5117-3.7383 8.6992-3.3281 9-3.3008 0.41797 0.03125 0.73438 0.39844 0.69922 0.82031-0.03125 0.41797-0.39844 0.73047-0.82031 0.69922-0.070312 0-6.8203-0.46094-8.1719 3.7109v0.070312 0.078125h0.003907c-0.03125 0.054687-0.066407 0.10156-0.10938 0.14062 0 0 0 0.050781-0.070312 0.058594-0.0625 0.0625-0.13672 0.10938-0.22266 0.13281-0.14844 0.039063-0.30859 0.039063-0.45703 0-0.085937-0.023437-0.16016-0.070312-0.22266-0.13281l-0.070312-0.058594c-0.042969-0.039062-0.082032-0.085938-0.10938-0.14062v-0.078125-0.070312c-1.5078-4.1992-8.2578-3.7109-8.3281-3.7109-0.42188 0.03125-0.78906-0.28125-0.82031-0.69922-0.035156-0.42188 0.28125-0.78906 0.69922-0.82031zm-4.1797 8.8906c1.7031 0 3.2383 1.0273 3.8906 2.6016 0.65234 1.5742 0.28906 3.3828-0.91797 4.5859-1.207 1.207-3.0195 1.5625-4.5898 0.90625-1.5742-0.65234-2.5977-2.1914-2.5938-3.8945 0.003906-1.1172 0.44922-2.1875 1.2422-2.9727 0.78906-0.78906 1.8633-1.2305 2.9766-1.2266z"/>
  <path d="m45.199 85.051c3.1172 1.0391 6.4844 1.0391 9.6016 0-2.4609-3.8594-4-9.1914-4.8008-14.07-0.82031 4.8789-2.3398 10.211-4.8008 14.07z"/>
  <path d="m59.172 52.121v0.058594c0 5.6016-6.4102 7.7695-8.4297 8.3086v2.2188c0.007812 8.8945 3.7461 26.293 12.398 26.293h1.3398c1.4414 0.16406 2.9023-0.019531 4.2578-0.53906 0.53906-0.25 1-1.1719 1.2695-2.5781 1.4883-7.5508-2.4219-27-6.25-31.141l0.003907-0.003907c-1.2617-1.2773-2.8516-2.1836-4.5898-2.6172z"/>
  <path d="m49.25 60.488c-2-0.53906-8.4414-2.7109-8.4297-8.3086v-0.070313c-1.7461 0.44922-3.3359 1.3672-4.5898 2.6602-3.8203 4.0898-7.7305 23.59-6.2305 31.141 0.26953 1.4102 0.73047 2.3281 1.2695 2.5781 1.3555 0.51953 2.8164 0.70703 4.2617 0.54297h1.3398c8.6484 0 12.391-17.398 12.391-26.289z"/>
  <path d="m56.602 48.641c-0.75-3.2422-2.6016-8.6406-6.6016-8.6406s-5.8516 5.4414-6.6016 8.6797c2.125-0.78125 4.3828-1.1211 6.6406-1 2.2305-0.12891 4.4609 0.19531 6.5625 0.96094z"/>
  <path d="m36.828 45.281c1.0977 0 2.0859-0.66016 2.5039-1.6758 0.42188-1.0117 0.1875-2.1758-0.58594-2.9531-0.77344-0.77344-1.9414-1.0039-2.9531-0.58594-1.0117 0.41797-1.6719 1.4062-1.6719 2.5039-0.003906 0.71875 0.28125 1.4102 0.78906 1.918 0.50781 0.50781 1.1992 0.79297 1.918 0.79297z"/>
  <path d="m63.09 45.281c1.0977 0 2.0859-0.66016 2.5039-1.6758 0.41797-1.0117 0.1875-2.1758-0.58594-2.9531-0.77734-0.77344-1.9414-1.0039-2.9531-0.58594-1.0156 0.41797-1.6758 1.4062-1.6758 2.5039 0 0.71875 0.28125 1.4102 0.79297 1.918 0.50781 0.50781 1.1992 0.79297 1.918 0.79297z"/>
  <path d="m42.32 52.191c0 4.1406 4.7891 6.0781 6.8789 6.7188-0.35938-3.8008-2.7617-4-2.8711-4-0.37891-0.0625-0.65234-0.40234-0.62891-0.78516 0.023437-0.38672 0.33594-0.69141 0.72266-0.70312 1.5742 0.21484 2.9258 1.2266 3.5781 2.6797 0.63672-1.4727 1.9922-2.5039 3.5781-2.7305 0.41016-0.019532 0.76172 0.28906 0.79297 0.69922 0.011718 0.19922-0.054688 0.39453-0.18359 0.54297-0.13281 0.14844-0.32031 0.23828-0.51562 0.24609-0.12109 0-2.5117 0.26953-2.8711 4 2.0898-0.64062 6.8906-2.5781 6.8789-6.7188-0.007813-0.56641-0.25781-1.0977-0.67969-1.4688-1.5781-1.5117-5.5586-1.6484-7-1.5781h-0.64844c-1.7812 0-5 0.28125-6.4102 1.6016v-0.003906c-0.41016 0.38672-0.63672 0.93359-0.62109 1.5z"/>
 </g>
</svg>
