<svg xmlns="http://www.w3.org/2000/svg" viewBox="0 0 500 500"><g id="freepik--Shadow--inject-2"><ellipse id="freepik--path--inject-2" cx="250" cy="415.69" rx="193.89" ry="11.32" style="fill:#f5f5f5"></ellipse></g><g id="freepik--Character--inject-2"><g id="freepik--group--inject-2"><path d="M412.49,171.39a9.91,9.91,0,0,1-6.83,6.42h-.05a35.11,35.11,0,0,1-4.19.78l-.69.09c-4.78.56-9.68.45-14.47,1.14l-.72.11a51.94,51.94,0,0,1-7.21.94,14.62,14.62,0,0,1-1.62-.06,10,10,0,0,1-5.85-2.26c-2.11-1.88-3-4.68-3.55-7.5q2.16-.66,4.79-1.51c12.72-4.18-1.16-11.18,3.34-22.36,6.29-15.64,32-14.54,31.56-3.87C415.05,145.32,416.2,160.73,412.49,171.39Z" style="fill:#263238"></path><path d="M377.07,152.65c-.59,2.44-.78,5-1.66,7.34s-2.65,4.58-5.11,5.08c3.7,1.64,8.28-.17,10.78-3.35s3.3-7.41,3.38-11.47c0-.94.17-2.07-.49-2.73C379.24,142.82,377.65,150.21,377.07,152.65Z" style="fill:#263238"></path><path d="M373.51,194.41l-1,.9-.79.7c-.58.52-1.15,1-1.74,1.46-1.17.93-2.35,1.86-3.56,2.72-.25.17-.5.35-.74.5a8.73,8.73,0,0,1-.74.5l-.59.4c-1.82,1.2-3.66,2.32-5.55,3.38q-2.06,1.13-4.17,2.1c-1.32.62-2.67,1.19-4,1.71l-2.14.77c-.73.25-1.46.45-2.17.69l-1.1.33-1.19.3c-.78.18-1.57.36-2.33.48a67.28,67.28,0,0,1-17.93.18c-2.9-.31-5.78-.74-8.62-1.23-2-.35-4-.76-6-1.25-.83-.19-1.67-.41-2.51-.64l.87-4.48,2.4.21c2,.16,3.95.31,5.91.4,2.77.13,5.54.28,8.3.28a74.05,74.05,0,0,0,15.93-1.39c.61-.14,1.21-.31,1.8-.48l.86-.28.92-.35c.6-.24,1.2-.42,1.84-.71l1.77-.8a78.45,78.45,0,0,0,7-3.68c1.57-.93,3.12-1.93,4.64-3l.91-.64c.18-.12.37-.25.55-.39l.58-.41.18-.13c1-.73,2-1.51,3-2.29l1.52-1.26,1.41-1.22,4.74,4.88Z" style="fill:#ffc3bd"></path><path d="M310.93,204.45,302,201.68l1.63,8.88s4.78,0,7.06-2.79Z" style="fill:#ffc3bd"></path><polygon points="295.77 203.5 297.47 209.28 303.65 210.56 302.02 201.68 295.77 203.5" style="fill:#ffc3bd"></polygon><path d="M302.8,204.18a10.41,10.41,0,0,1-1.51-5.18c.09-2.38,1.44-2.21,1.44-2.21s-.25,2.83,3.45,7.6l.09.13Z" style="fill:#ffc3bd"></path><path d="M380,192c-.77,2.32-3.66,4.49-6.69,6.2a55.91,55.91,0,0,1-7.2,3.36l-.81.3-.36-.62-4.55-8.05-.75-1.33.66-.67a67,67,0,0,1,10-8.25c1.88-1.14,3.62-1.83,4.81-1.55C380.56,182.58,381.54,187.44,380,192Z" style="fill:#407BFF"></path><path d="M380,192c-.77,2.32-3.66,4.49-6.69,6.2a55.91,55.91,0,0,1-7.2,3.36l-.81.3-.36-.62-4.55-8.05-.75-1.33.66-.67a67,67,0,0,1,10-8.25c1.88-1.14,3.62-1.83,4.81-1.55C380.56,182.58,381.54,187.44,380,192Z" style="opacity:0.30000000000000004;isolation:isolate"></path><path d="M366.14,201.51a.78.78,0,0,1-.4.92.81.81,0,0,1-1.05-.27l-.31-.57-4.51-8.06-.8-1.43a.8.8,0,0,1,.31-1.09h0a.84.84,0,0,1,.2-.08.82.82,0,0,1,.74.21.86.86,0,0,1,.14.18l.71,1.28,4.53,8.09.38.68A.78.78,0,0,0,366.14,201.51Z" style="fill:#407BFF"></path><path d="M415,180.33c3.19,1.47,3.58,2.31,3.08,4.62-1,4.47-1.78,8.43-2.44,12-.16.86-.31,1.7-.46,2.51,0,.15-.05.3-.08.46h0c0,.16-.06.3-.09.45s-.08.48-.13.71c-3.15,7.26-4.44,16.09-3.63,29.1.07,1,.08,2,.13,3h-3.26l-10.7,0h-1.63l-12.5.08-1.62,0-3.55,0c-.09-.56-.18-1.09-.27-1.63h0c-.92-5.44-1.68-10.31-2.32-14.63-.36-2.47-.69-4.77-1-6.9,0,0-5.34-6.59-3.39-10.63,1.15-2.37,1.68-16.87,1.88-17.5s.37-.62.37-.62c1-.21,2-.42,2.95-.6q4.37-.89,8.78-1.48c1-.14,2.05-.27,3.08-.38a109.59,109.59,0,0,1,12.16-.28c.26,0,.5,0,.76,0,1,0,2,.08,3,.14,1.18.06,2.36.16,3.53.26a45.71,45.71,0,0,1,4.69.49Z" style="fill:#407BFF"></path><path d="M398.57,161.14c-.84,5.15-1.52,14.56,2.18,17.85,0,0-1.9,11.1-11.26,12.78-4.52-1.14-4.64-12.23-4.64-12.23,5.62-1.57,3.74-7.19,4.14-12.88Z" style="fill:#ffc3bd"></path><path d="M387.89,161.14c1,4.08,2,10.92.56,15.29,3-.63,7.44-3,8.06-5.65a33.44,33.44,0,0,0,.11-5.39Z" style="opacity:0.2;isolation:isolate"></path><path d="M405.35,154.41c-1.13,8.49-1.42,12.11-6,16.18-6.94,6.13-17.12,2.89-18.56-5.75-1.3-7.8.75-20.37,9.34-23.18a11.7,11.7,0,0,1,15.25,12.75Z" style="fill:#ffc3bd"></path><path d="M403.31,144.24c-5.23,5.73-21.84,6.8-24.36,5.22,5.1-7.11,13-11.13,17.45-10.2A11.75,11.75,0,0,1,403.31,144.24Z" style="fill:#263238"></path><path d="M406.87,143.3h-.07l-.14.19Z" style="fill:#263238"></path><path d="M407,143.17l-.15.13A.2.2,0,0,0,407,143.17Z" style="fill:#263238"></path><path d="M406.8,143.3l0-.06-.14.06S406.77,143.3,406.8,143.3Z" style="fill:#263238"></path><path d="M407.37,137.68a5.46,5.46,0,0,1-.53,5.56,3.14,3.14,0,0,0,.53-5.56Z" style="fill:#263238"></path><path d="M407.84,162.78a6.26,6.26,0,0,1-4,2.68c-2.16.41-3.06-1.55-2.31-3.49.67-1.76,2.61-4,4.69-3.63a2.83,2.83,0,0,1,2.09,3.4A2.87,2.87,0,0,1,407.84,162.78Z" style="fill:#ffc3bd"></path><path d="M400.18,144.9c-1.28,1.51-1.15,3.67-1.12,5.65.08,5.8.77,13.08-3.66,15.62,5.24-1.46,9.43-3.93,12.1-8.67,2.11-3.75,2-6,.4-10C406.7,144.48,403.09,141.5,400.18,144.9Z" style="fill:#263238"></path><path d="M407.76,186.13s-.36,15.59,1,22.5,2.43,5.19,2.43,5.19.67-10.73,2-13.72S407.76,186.13,407.76,186.13Z" style="opacity:0.1;isolation:isolate"></path><path d="M422.93,199.08c-.09,1.06-.15,2.35-.21,3.54s-.09,2.44-.09,3.66c0,2.45,0,4.91.19,7.34a75.59,75.59,0,0,0,2.23,14.26c.32,1.11.65,2.28,1,3.35s.83,2.18,1.3,3.29c1,2.22,2.07,4.48,3.21,6.72,2.29,4.49,4.72,9,7.13,13.5l-3.84,2.7a128.34,128.34,0,0,1-9.62-12.52c-1.49-2.18-2.91-4.42-4.23-6.82-.66-1.2-1.3-2.42-1.88-3.76s-1-2.62-1.5-3.94a70.11,70.11,0,0,1-3.22-16.09,78.65,78.65,0,0,1-.36-8.12c0-1.36,0-2.69.1-4.05s.15-2.66.32-4.16Z" style="fill:#ffc3bd"></path><path d="M436.46,253.77l6.5,4.55L435,263.4s-3.53-4.8-1.95-9.68Z" style="fill:#ffc3bd"></path><polygon points="445.17 265.81 438.35 269.41 435.03 263.41 442.96 258.32 445.17 265.81" style="fill:#ffc3bd"></polygon><path d="M424.47,187.53c1.5,11.27-1.88,13.1-1.88,13.1l-10.55,1s-5.19-15.71-2.13-19.55C413.1,178.08,423.74,182.06,424.47,187.53Z" style="fill:#407BFF"></path><path d="M424.47,187.53c1.5,11.27-1.88,13.1-1.88,13.1l-10.55,1s-5.19-15.71-2.13-19.55C413.1,178.08,423.74,182.06,424.47,187.53Z" style="opacity:0.30000000000000004;isolation:isolate"></path><path d="M423.59,200.47h0a.83.83,0,0,1-.74.9h0l-10.72,1a.82.82,0,0,1-.89-.74h0a.81.81,0,0,1,.72-.89h0l10.72-1A.83.83,0,0,1,423.59,200.47Z" style="fill:#407BFF"></path><path d="M377.82,231.69l-1.46,3.19c-.12.25.15.5.58.47l34.41-1.56c.32,0,.58-.18.59-.37l.21-3.14c0-.22-.27-.4-.62-.39l-33.14,1.49A.66.66,0,0,0,377.82,231.69Z" style="fill:#263238"></path><path d="M382.74,235.47l-.94,0c-.19,0-.34-.08-.33-.19l.3-4.09c0-.11.17-.22.36-.23l.95,0c.18,0,.34.09.32.2l-.29,4.09A.36.36,0,0,1,382.74,235.47Z" style="fill:#407BFF"></path><path d="M408.9,234.52l-.94,0c-.19,0-.34-.08-.34-.2l.3-4.09c0-.11.17-.23.36-.23l1,0a.25.25,0,0,1,.33.21l-.29,4.09C409.26,234.41,409.09,234.51,408.9,234.52Z" style="fill:#407BFF"></path><path d="M396.9,235l-.95,0a.24.24,0,0,1-.32-.21l.29-4.08c0-.11.18-.22.37-.23l.94,0c.19,0,.34.09.33.21l-.3,4.09C397.25,234.9,397.06,235,396.9,235Z" style="fill:#407BFF"></path><path d="M392.25,155.89c-.05.69-.47,1.21-.91,1.19s-.79-.61-.74-1.31.46-1.21.91-1.19S392.29,155.2,392.25,155.89Z" style="fill:#263238"></path><path d="M384.4,155.34c-.06.69-.46,1.22-.91,1.2s-.79-.62-.73-1.32.45-1.22.9-1.2S384.48,154.63,384.4,155.34Z" style="fill:#263238"></path><path d="M383.86,154.07l-1.62-.55S383,154.8,383.86,154.07Z" style="fill:#263238"></path><path d="M386.39,156.68a19,19,0,0,1-2.78,4.26,3,3,0,0,0,2.43.63Z" style="fill:#ed847e"></path><path d="M389.58,164.41a6.83,6.83,0,0,1-1.28,0,.17.17,0,0,1-.16-.18h0a.18.18,0,0,1,.18-.16,5.52,5.52,0,0,0,4.67-1.85.16.16,0,0,1,.22-.07.14.14,0,0,1,.08.2s0,0,0,0A5.58,5.58,0,0,1,389.58,164.41Z" style="fill:#263238"></path><path d="M395.48,151.19a.37.37,0,0,1-.31-.13,3.25,3.25,0,0,0-2.71-1.33.35.35,0,0,1-.37-.32.33.33,0,0,1,.31-.36h0a3.92,3.92,0,0,1,3.3,1.59.33.33,0,0,1-.05.47A.38.38,0,0,1,395.48,151.19Z" style="fill:#263238"></path><path d="M381.58,150.41a.36.36,0,0,1-.33-.08.34.34,0,0,1,0-.48h0a3.94,3.94,0,0,1,3.44-1.26.33.33,0,0,1,.28.37v0a.32.32,0,0,1-.39.26h0a3.31,3.31,0,0,0-2.82,1.07A.38.38,0,0,1,381.58,150.41Z" style="fill:#263238"></path><path d="M362,408.71H362c-.24-.07-.95-.26-1.76-.43-1.31-.26-2.9-.46-3.38,0a.52.52,0,0,0-.14.56,1.22,1.22,0,0,0,.65.86,3.39,3.39,0,0,0,2.06.16,12.42,12.42,0,0,0,2.18-.64A3.07,3.07,0,0,0,362,409h0l0,0a.15.15,0,0,0,.1-.16A.16.16,0,0,0,362,408.71Zm-4.48.66a.87.87,0,0,1-.49-.63.23.23,0,0,1,.06-.24.67.67,0,0,1,.38-.15v0a12.47,12.47,0,0,1,4,.5C360.42,409.27,358.46,409.86,357.53,409.37Z" style="fill:#407BFF"></path><polygon points="372.95 410.95 364.68 411.42 362.93 390.68 371.19 390.2 372.95 410.95" style="fill:#ffc3bd"></polygon><polygon points="429.76 396.82 421.74 399.91 414.85 381.05 422.87 377.97 429.76 396.82" style="fill:#ffc3bd"></polygon><path d="M421.46,399.18l7.55-6.06a.69.69,0,0,1,.91,0l6.46,5.85a1.38,1.38,0,0,1,0,1.95.65.65,0,0,1-.12.11c-2.66,2.07-4.06,2.93-7.35,5.61-2,1.68-7,6.49-9.87,8.75s-6.05-1-5-2.16c4.37-5.38,6.1-9.84,6.68-12.75A2.28,2.28,0,0,1,421.46,399.18Z" style="fill:#263238"></path><path d="M363.61,407.43l10.09-1.67a.87.87,0,0,1,.93.5l3.52,7.63a1.29,1.29,0,0,1-.61,1.7,1.14,1.14,0,0,1-.36.1c-3.55.62-5.24.85-9.68,1.61-2.74.45-10.59,3.06-14.39,2.63s-4.07-4.26-2.49-4.42c7.06-.76,9.9-4.94,11.68-7.28A2.08,2.08,0,0,1,363.61,407.43Z" style="fill:#263238"></path><polygon points="362.92 390.69 363.83 401.38 372.17 401.75 371.19 390.21 362.92 390.69" style="opacity:0.2;isolation:isolate"></polygon><polygon points="423.7 380.2 415.68 383.28 419.24 393 427.25 389.92 423.7 380.2" style="opacity:0.2;isolation:isolate"></polygon><path d="M377.41,234.91s-20.3,45.22-21.17,82.87C355.66,343,360,395.29,360,395.29l14.57,3.07s.78-53.58,2.64-74.27c3.19-35.41,25.88-90.09,25.88-90.09Z" style="fill:#407BFF"></path><path d="M377.41,234.91s-20.3,45.22-21.17,82.87C355.66,343,360,395.29,360,395.29l14.57,3.07s.78-53.58,2.64-74.27c3.19-35.41,25.88-90.09,25.88-90.09Z" style="fill:#fff;opacity:0.4"></path><path d="M389.85,251.64,392.57,262a408.92,408.92,0,0,0-11.51,39.24C377.9,281.54,386.07,260.48,389.85,251.64Z" style="opacity:0.2;isolation:isolate"></path><polygon points="357.28 397.64 375.78 399.06 376.04 392.02 356.59 391.22 357.28 397.64" style="fill:#407BFF"></polygon><path d="M385.07,234.72s-4.14,51.42,3.46,84.33c6.14,26.58,28.13,69.91,28.13,69.91l10-6.39s-7.84-33.83-12.85-51.71c-12.29-43.86,9.85-68.84-1.4-97.24Z" style="fill:#407BFF"></path><path d="M385.07,234.72s-4.14,51.42,3.46,84.33c6.14,26.58,28.13,69.91,28.13,69.91l10-6.39s-7.84-33.83-12.85-51.71c-12.29-43.86,9.85-68.84-1.4-97.24Z" style="fill:#fff;opacity:0.4"></path><polygon points="414.73 390.7 428.76 385.65 427.53 379.79 411.95 385.93 414.73 390.7" style="fill:#407BFF"></polygon><path d="M421.46,400.34h0l-.05,0h-.11l-.59.19c-.26.1-.58.21-.91.35h0c-.92.39-1.92.93-2.09,1.51a.68.68,0,0,0,.18.65,1.26,1.26,0,0,0,.67.43l.31,0a2.35,2.35,0,0,0,1.31-.86h0a9.33,9.33,0,0,0,1.29-1.94.36.36,0,0,0,0-.07,0,0,0,0,0,0,0,.09.09,0,0,0,0-.05A.14.14,0,0,0,421.46,400.34Zm-.48.44h0a9.7,9.7,0,0,1-.57.94,3.06,3.06,0,0,1-1.57,1.4.81.81,0,0,1-.72-.33.34.34,0,0,1-.1-.32c.16-.56,1.56-1.19,2.59-1.56l.37-.13s0,0,0,0Z" style="fill:#407BFF"></path><path d="M421.44,400.33l-.05,0a4,4,0,0,0-.5-.38,4.53,4.53,0,0,0-2.65-1.06,1.07,1.07,0,0,0-.74.46.69.69,0,0,0,0,.86,2,2,0,0,0,1.16.55,6.1,6.1,0,0,0,1.13.11h0a7.73,7.73,0,0,0,.84,0c.26,0,.52-.1.77-.16l.06,0a.36.36,0,0,0,0-.07,0,0,0,0,0,0,0,.09.09,0,0,0,0-.05A.17.17,0,0,0,421.44,400.33Zm-3.68-.36c-.05-.07-.13-.2,0-.45a.7.7,0,0,1,.51-.32,1.87,1.87,0,0,1,.47,0,6.26,6.26,0,0,1,2,1l.21.16a2.3,2.3,0,0,1-.26,0C419.69,400.58,418.15,400.45,417.76,400Z" style="fill:#407BFF"></path><path d="M362.21,408.82a2.77,2.77,0,0,0-.13-.29c-.41-.86-1.69-3.28-3.33-2.78-.48.14-.6.41-.59.61,0,.57,1,1.34,2,1.91a11.12,11.12,0,0,0,1.28.61l.27.09.24.07h.08l.12-.06A.2.2,0,0,0,362.21,408.82Zm-3.7-2.47s0-.17.32-.26l.15,0c1.27-.19,2.35,1.79,2.74,2.58C360.42,408.19,358.53,407,358.51,406.35Z" style="fill:#407BFF"></path><path d="M391.71,154.62l-1.63-.56S390.84,155.39,391.71,154.62Z" style="fill:#263238"></path></g></g><g id="freepik--Graphics--inject-2"><polygon points="72.61 90.19 73.27 97.74 55.69 97.74 57.23 115.32 49.68 115.32 47.48 90.19 72.61 90.19" style="fill:#407BFF"></polygon><polygon points="95.42 356.85 94.76 349.3 77.18 349.3 75.64 331.71 68.09 331.71 70.29 356.85 95.42 356.85" style="fill:#407BFF"></polygon><polygon points="248.31 356.85 247.65 349.3 265.23 349.3 263.69 331.72 271.24 331.72 273.44 356.85 248.31 356.85" style="fill:#407BFF"></polygon><polygon points="224.49 90.8 225.15 98.35 242.74 98.35 244.28 115.94 251.82 115.94 249.63 90.8 224.49 90.8" style="fill:#407BFF"></polygon></g><g id="freepik--Fingerprint--inject-2"><path d="M190.35,115l2.48.45-2.05-1.58c-.54-.42-1.1-.84-1.65-1.24l-.13-.1-.16,0C176.17,110,160.75,105.57,143,99.2l-.15-.06-.16,0c-.59.08-1.18.18-1.76.29l-2.22.43,2.22.81C160.27,107.71,176.9,112.51,190.35,115Z" style="fill:#407BFF"></path><path d="M199.48,123.07l2,.47L200,122c-.38-.4-.77-.78-1.17-1.17l-.14-.13-.19,0c-17.68-4.2-40.06-10.36-66.49-18.29l-.24-.07-.21.09-1.15.55-1.43.71,1.62.49C158.22,112.45,181.39,118.82,199.48,123.07Z" style="fill:#407BFF"></path><path d="M207.88,132.68l2,.7-1.29-1.67c-.19-.25-.39-.49-.58-.73l-.26-.32,0-.25-.44-.16c-15.29-5.4-42.2-13.75-83.61-22.9l-.28-.06-.22.16c-.3.22-.6.43-.9.67l-1.07.84,1.41.31C165,118.62,192.4,127.16,207.88,132.68Z" style="fill:#407BFF"></path><path d="M215.62,143.82l2,1-1.21-1.9-.87-1.37-.11-.17-.18-.08c-18.41-9.28-50.48-21.64-98.73-27.88l-.3,0-.2.2-.78.78-.88.93,1.35.17C164.86,121.75,197.17,134.35,215.62,143.82Z" style="fill:#407BFF"></path><path d="M202.62,144.4h0a170.28,170.28,0,0,1,19.79,11.45l2,1.32-1.05-2.09c-.21-.42-.43-.82-.64-1.23l-.1-.18,0-.21-.29-.19a174.58,174.58,0,0,0-18.79-10.76c-19-9.42-50.62-20.9-93.26-22.15h-.31l-.18.23-.66.83-.86,1,1.41,0C152.18,123.59,183.68,135,202.62,144.4Z" style="fill:#407BFF"></path><path d="M113.9,140.13l.64.06v-2.14l-.65-.06a45.88,45.88,0,0,0-15.46,1.41l-.26.07-.11.25c-.16.34-.31.68-.46,1l-.55,1.31,1.38-.4A43.8,43.8,0,0,1,113.9,140.13Z" style="fill:#407BFF"></path><path d="M203.33,151.42a173.1,173.1,0,0,1,24.84,16.76L230,169.7l-.89-2.19c-.22-.55-.46-1.09-.7-1.62l-.07-.16-.14-.12a176.08,176.08,0,0,0-123.63-37.68l-.3,0-.15.24c-.19.29-.37.59-.55.89l.54.4h0l-.56-.36-.68,1.12,1.35-.11A173.59,173.59,0,0,1,203.33,151.42Zm-99.18-21.93Z" style="fill:#407BFF"></path><path d="M136.68,136c22.93,2.53,58,11.54,94.71,40.09l1.71,1.33-.74-2c-.13-.36-.27-.72-.41-1.09l-.12-.31,0-.22-.25-.19c-36.84-28.27-71.92-37.22-94.87-39.75a154.28,154.28,0,0,0-35.57.12l-.3,0-1.22,2.35,1.31-.17A151.79,151.79,0,0,1,136.68,136Z" style="fill:#407BFF"></path><path d="M94.94,218.93l-2-.84-.21.58a152.15,152.15,0,0,0-6.05,30v.1l0,.1c.19.9.4,1.8.62,2.7l.94,3.9.33-3.89a149.41,149.41,0,0,1,6.19-32.07Z" style="fill:#407BFF"></path><path d="M91.58,182.65V182l-2.16-.13,0,.65c.37,13.49-1.17,29.87-5,53.12v.19c.12,1,.26,2,.41,2.94l.61,4.07.66-4C90.27,214.1,92,196.76,91.58,182.65Z" style="fill:#407BFF"></path><polygon points="97.45 212.12 100.22 203.44 98.15 202.64 95.4 211.32 97.45 212.12" style="fill:#407BFF"></polygon><path d="M91.92,177a20,20,0,0,1,5.31-11l.47-.43L96.14,164l-.44.41a21.62,21.62,0,0,0-5.92,12.17l-.07.62,2.14.45Z" style="fill:#407BFF"></path><path d="M92.77,194.66l2.16.26,0-.64c.2-5.83,6-14,6.29-14.32l.36-.5-1.77-1.34-.37.49C99.2,179,93,187.36,92.79,194Z" style="fill:#407BFF"></path><path d="M105.36,184.38l.46-.44-1.64-1.58-.43.46c-.77.83-7.63,8.51-11.27,24.24l-.14.61,2.11.65.14-.61C98.27,191.8,105.3,184.45,105.36,184.38Z" style="fill:#407BFF"></path><polygon points="106.6 192.53 104.74 191.29 100.04 198.94 101.91 200.18 106.6 192.53" style="fill:#407BFF"></polygon><path d="M107.8,166.19l.59-.18-.8-2.06-.6.19c-.46.15-11.22,3.67-14.2,14.79l-.16.61,2.08.71.16-.6C97.59,169.53,107.38,166.33,107.8,166.19Z" style="fill:#407BFF"></path><path d="M111,152.13l.64-.09-.51-2.12-.62.09c-10.19,1.48-16,5.15-19.06,8l-.21.21,0,.18L90,162.82l1.9-2.06C94.2,158.23,99.79,153.76,111,152.13Z" style="fill:#407BFF"></path><path d="M139.71,144c22.87.89,57.87,8.69,94.79,40.81l1.73,1.5-.72-2.13c-.17-.49-.33-1-.51-1.46v-.21l-.23-.19c-37.1-31.85-72.25-39.58-95.2-40.46-23.53-.91-40.28,4.9-44.85,6.7l-.23.09-.09.23c-.12.3-.23.61-.33.91l-.59,1.66,1.41-.58C98,149.5,115,143,139.71,144Z" style="fill:#407BFF"></path><path d="M142.43,149.74c-26.13,1-43.73,11.58-44.48,12l-.54.32,1.27,1.84.53-.32c.72-.44,17.94-10.79,43.52-11.74,22.69-.86,57.52,5.67,94.56,41.65l1.7,1.65-.65-2.23c-.16-.54-.33-1.08-.5-1.61l-.05-.18-.14-.13C200.38,155.35,165.3,148.89,142.43,149.74Z" style="fill:#407BFF"></path><path d="M190.81,164.12a91.43,91.43,0,0,0-45.52-6.44c-25.9,3.07-42.84,16.81-43,16.95l-.46.39,1.44,1.69.47-.39a89,89,0,0,1,42-16.5c22.44-2.67,57,2.56,94,42.53l1.71,1.84-.63-2.37c-.16-.58-.31-1.15-.47-1.72l0-.17-.12-.12C224.43,183,207.8,171,190.81,164.12Z" style="fill:#407BFF"></path><path d="M170,164.4c-37-3.36-63,22.78-63.28,23l-.44.44,1.62,1.55.43-.43c.25-.26,25.67-25.75,61.66-22.47,24.84,2.26,49.07,17.28,72,44.64l1.74,2.07-.63-2.56c-.14-.58-.28-1.14-.41-1.72l0-.18-.14-.17C219.44,181.57,195,166.69,170,164.4Z" style="fill:#407BFF"></path><path d="M108,204.69c17.84-25.59,53.81-42.38,94-22.2,20.89,10.49,29.63,22.95,39.75,37.37q1.44,2.05,2.94,4.16l1.64,2.3-.49-2.7c-.12-.65-.23-1.29-.35-1.87v-.19l-.11-.15c-.64-.9-1.27-1.79-1.89-2.69-10.32-14.68-19.23-27.36-40.64-38.13-41.31-20.76-78.29-3.52-96.62,22.77-16.74,24-15.55,51.65-13.34,66l0,.14c.52,1.37,1,2.74,1.58,4.08l1.23-.26C90.75,248,95.24,223,108,204.69Z" style="fill:#407BFF"></path><path d="M195.64,273.43c-3.79-9.76-5.59-10.79-7-10.45-3.5.84-.26,13.57-.23,13.7,1.8,6.89,30.28,22.7,42.44,29.17l.55.3,1-1.82-.62-.33c-19.14-10.21-40-22.85-41.3-27.69-1.42-5.44-1.46-9.71-1.16-11,.55.61,1.89,2.58,4.27,8.71,5.67,14.61,27.53,23.11,40.06,26.87l.49.15.23-.43.41-.81.34-.7-.79-.24C222.16,295.17,200.88,286.93,195.64,273.43Z" style="fill:#407BFF"></path><path d="M198.55,270c-3.84-8.86-6.86-12.75-9.78-12.56s-5,4.48-6.44,14.08c-2,12.88,34.39,33.27,45.59,39.22l.5.27.3-.44c.17-.24.32-.49.47-.73l.36-.58-.65-.35C206.51,297,183.08,281,184.46,272c1.71-11.12,3.79-12.41,4.65-12.45.62,0,3,.8,7.47,11.11s17.54,19.43,38.81,26.71l.54.19.21-.49c.06-.13.12-.25.17-.37s.13-.26.19-.4l.29-.66-.73-.24C215.67,288.45,202.7,279.66,198.55,270Z" style="fill:#407BFF"></path><path d="M201.46,266.55c-4.85-10.16-9.32-15.12-13.72-15.16s-8.12,5-11.47,15.23c-6.08,18.58,35.51,42.1,48.4,48.86l.49.26,1.24-1.7-.71-.37c-8.9-4.7-53-29-47.37-46.23,3-9.1,6.3-13.91,9.64-13.91s7.27,4.82,11.56,13.81c4.76,10,17,18.63,37.41,26.49l.53.21.24-.48a8.41,8.41,0,0,0,.35-.82l.24-.62-.66-.25C217.76,284.22,205.93,275.93,201.46,266.55Z" style="fill:#407BFF"></path><path d="M204.36,263.12c-6.24-11.85-12.37-18-18.22-18.12S175,250.5,170.2,261.81s2.87,25.11,22.1,40a209,209,0,0,0,28.83,18.27l.47.24.3-.37.55-.66.48-.61-.74-.38c-10.05-5.25-59.68-32.57-50-55.49,4.44-10.51,9.17-15.77,14.07-15.64S196.67,253,202.47,264c6.6,12.53,23.65,21,35.91,26.25l.6.26.32-.83c.06-.18.13-.35.19-.53l.21-.58-.61-.26C227.17,283.16,210.61,275,204.36,263.12Z" style="fill:#407BFF"></path><path d="M207.26,259.68c-8.16-14.09-15.74-21-23.18-21.28-7.2-.21-13.89,6.06-20,18.64-3,6.28-3.19,13.09-.44,20.22,8.87,23.05,46.2,43.37,53.59,47.21l.44.22.31-.32.59-.64.55-.61-.79-.41c-7.29-3.77-44.08-23.71-52.69-46.07-2.52-6.54-2.39-12.78.4-18.54,5.63-11.65,11.64-17.55,17.88-17.55h.25c6.57.2,13.51,6.76,21.22,20.07,6.76,11.68,21.87,20,34.28,25.94l.62.29.23-.6c.1-.26.19-.53.28-.8l.19-.56-.57-.27C228.36,278.82,213.66,270.75,207.26,259.68Z" style="fill:#407BFF"></path><path d="M210.16,256.24C203,245,193.27,232,181.73,231.68h-.35c-8.32,0-16.18,6.93-23.36,20.61-4.18,8-4.64,16.49-1.37,25.31,9.52,25.72,48.63,47.07,56.37,51.09l.41.21.31-.28c.22-.2.44-.4.65-.61l.64-.61-.85-.44C206.54,323,168,302.15,158.66,277c-3-8.22-2.61-16.16,1.3-23.6,6.91-13.19,14.28-19.81,21.92-19.59,10.42.25,19.63,12.66,26.49,23.45,7,11,20.37,19.06,32.56,25.53l.66.35.22-.66c.09-.28.17-.56.25-.83l.13-.51-.49-.27C229.82,274.55,216.79,266.67,210.16,256.24Z" style="fill:#407BFF"></path><path d="M213.05,252.78l-.17-.24c-7.17-10.29-19.17-27.52-33.74-27.69h-.2c-9.59,0-18.68,7.63-27,22.68A35.54,35.54,0,0,0,149.51,278c9.78,27.26,47.51,48.75,58.84,54.69l.38.2.38-.3c.22-.17.44-.34.65-.52l.71-.61-.89-.46c-8-4.15-48.24-26.21-58.06-53.56a33.55,33.55,0,0,1,2.32-28.73c8-14.5,16.6-21.81,25.47-21.69,13.4.16,24.95,16.76,31.84,26.67l.17.24c7.26,10.43,20.24,18.86,30.73,25l.7.42.58-2.06-.47-.27C232.65,271,220,262.81,213.05,252.78Z" style="fill:#407BFF"></path><path d="M216,249.36c-.36-.47-.74-1-1.13-1.51l-.95-1.25c-8-10.67-21.29-28.53-37.36-28.57-10.85,0-21.16,8.33-30.67,24.76-6.62,11.46-7.79,23.47-3.48,35.7,10.24,29.09,49.12,51.67,60.79,57.9l.35.18,2-1.31-1-.52c-11.56-6.1-50-28.23-60.09-56.79-4.09-11.62-3-23,3.34-34,9.13-15.8,18.88-23.8,29-23.8,14.87,0,27.75,17.29,35.45,27.6.74,1,1.44,1.93,2.09,2.78,7.61,10,19.38,18.28,28.78,24.38l.74.48.21-.8.21-.86.09-.45-.41-.27C234.77,267.1,223.33,259,216,249.36Z" style="fill:#407BFF"></path><path d="M222.67,247.22c-19.11-28.58-36.17-34.69-47.13-34.78-13-.05-24.32,8-32,22.9-9,17.56-10.22,34.8-3.52,51.23,11.59,28.4,43.75,46.74,57,53.3l.29.14.27-.12c.33-.15.65-.32,1-.49l1.07-.57-1.17-.58c-10.28-5-44.73-23.59-56.46-52.34-6.46-15.81-5.29-32.46,3.46-49.47,7.25-14.09,17.9-21.85,30-21.85h.22c10.4.08,26.67,6,45.21,33.71,5.68,8.5,15.84,16.19,23.36,21.14l.78.51.19-.94c.06-.27.11-.54.16-.8l.08-.43-.39-.26C237.86,262.73,228.09,255.31,222.67,247.22Z" style="fill:#407BFF"></path><path d="M225.28,242.64c-7.86-11.64-15.48-19.88-24-25.93-11.46-8.15-23.21-11.4-34-9.42-11.72,2.17-22,10.51-29.08,23.48-15.59,28.68-7.54,52.69,2,67.77,14.71,23.57,41.67,38.12,52.58,43.28l.27.12.25-.1c.36-.14.7-.28,1-.44l1.25-.56-1.32-.61c-10.85-5-37.67-19.3-52.29-42.7-9.18-14.58-17-37.8-1.84-65.62,6.77-12.46,16.62-20.45,27.74-22.51,10.16-1.88,21.32,1.24,32.26,9,8.25,5.86,15.68,13.9,23.38,25.3,4.44,6.58,11.69,13.63,21.55,21l.81.6.18-.93c.07-.31.12-.62.16-.94l.06-.4-.34-.25C236.47,255.69,229.51,248.92,225.28,242.64Z" style="fill:#407BFF"></path><path d="M227.89,238.07c-8.75-12.85-16.64-21-26.36-27.39-12.57-8.21-25.42-11.33-37.18-9-12.69,2.49-23.86,11.2-31.46,24.51-13,22.73-12.74,48.86.61,71.7,14.79,25.29,43,40.32,54.39,45.61l.23.1.22-.06c.38-.1.75-.22,1.12-.34l1.63-.53-1.55-.7c-11.4-5.17-39.5-19.91-54.19-45-7.61-13-17.8-39.36-.56-69.57,7.32-12.82,18-21.2,30.15-23.59,11.2-2.21,23.48.79,35.52,8.66,9.45,6.18,17.13,14.17,25.68,26.72,4.32,6.35,10.92,13.21,19.62,20.41l.87.72.15-1.06c.05-.33.09-.66.12-1l0-.35-.29-.24C238.34,250.73,232,244.14,227.89,238.07Z" style="fill:#407BFF"></path><path d="M230.5,233.49c-6.95-10.12-15.25-20.62-28.73-28.84-34.66-21.14-61.64-4.07-74.21,17-13.78,23.06-14,51.32-.74,75.61,14.06,25.68,40.67,40.82,55.28,47.57l.19.09.2,0c.48-.08,1-.16,1.44-.26l1.91-.37-1.86-.84c-14.64-6.61-41.3-21.5-55.29-47-12.94-23.6-12.66-51.08.74-73.5,12.09-20.25,38-36.7,71.34-16.39,13.07,8,21.18,18.24,28,28.14A115.71,115.71,0,0,0,246.25,254l.95.87.11-1.21c0-.35.05-.7.07-1l-.64-.11h0l.64.09,0-.32-.25-.23A113,113,0,0,1,230.5,233.49Z" style="fill:#407BFF"></path><path d="M233.11,228.91c-8.6-12.39-17.17-22.28-31.09-30.27-16-9.23-32.41-11.76-47.34-7.32-13,3.89-24.55,13-32.47,25.74-14.78,23.69-15.55,53.42-2.08,79.52,13.59,26.33,40,41.88,54.6,48.81l.14.06H175c.64,0,1.27,0,1.91,0l2.5-.14-2.36-1.08c-14.71-6.78-41.42-22.07-55-48.45-13.11-25.41-12.35-54.36,2-77.44,13.14-21.09,41.2-38.41,77-17.83,13.53,7.78,21.9,17.44,30.29,29.55a137.31,137.31,0,0,0,15.15,18l1,1.07,0-1.42c0-.39,0-.77,0-1.16v-.28l-.2-.2A135.37,135.37,0,0,1,233.11,228.91Z" style="fill:#407BFF"></path><path d="M235.72,224.34c-7.69-11-16.61-22.53-33.44-31.72-17.19-9.39-34.77-11.77-50.83-6.87-13.85,4.22-26.13,13.72-34.58,26.74-18.57,28.63-13.94,61.88-3.42,83.45,12,24.49,34.26,39.89,50.88,48.5l.16.08h.1c.85.16,1.73.29,2.62.4l3.63.46-3.36-1.67c-17.1-8.47-40-23.78-52.1-48.57-10.27-21-14.79-53.46,3.33-81.37,15.37-23.7,46.89-38.85,82.66-19.3,16.4,9,25.1,20.22,32.61,31a173.49,173.49,0,0,0,12.48,15.82l1.16,1.31-.05-1.84c0-.38,0-.76,0-1.17l0-.23-.16-.18A173.2,173.2,0,0,1,235.72,224.34Z" style="fill:#407BFF"></path><path d="M246.93,231.61l0-.19-.12-.16c-3.24-4.14-6.09-8.14-8.46-11.5-8.48-12-17.6-23.65-35.8-33.15-39.16-20.48-73.92-4.05-91,21.32-19.79,29.4-14.94,65.44-4.76,87.36,7.17,15.54,19.11,29.23,35.41,40.63l.18.13a69.19,69.19,0,0,0,7.37,3.83l.52-1.12c-19.54-12-33.52-26.86-41.54-44.22-9.94-21.41-14.69-56.6,4.64-85.31,16.58-24.64,50.32-40.61,88.32-20.75,17.7,9.26,26.63,20.61,34.94,32.4,2.41,3.44,5.66,8,9.34,12.63l1.31,1.67-.18-2Q247,232.38,246.93,231.61Z" style="fill:#407BFF"></path><path d="M159.55,99.27a17.92,17.92,0,0,0-4.13.08,255,255,0,0,0,25.23,7.46C176.54,103.82,164.61,99.7,159.55,99.27Z" style="fill:#407BFF"></path></g></svg>
