<svg height="743" width="2500" xmlns="http://www.w3.org/2000/svg" viewBox="-0.002 0.066 827.851 245.153"><path d="M644.443 49.665c-13.938.277-25.968 3.986-35.689 11.219-10.465 7.782-15.764 18.294-15.764 31.252 0 9.024 2.39 16.852 7.017 23.26 4.628 6.412 14.103 12.553 29.02 18.832 11.302 4.401 18.797 8.187 22.29 11.214a12.416 12.416 0 0 1 4.49 9.895c0 6.182-2.386 14.903-22.773 14.39a76.026 76.026 0 0 1-39.106-12.517s-.749-.462-.749 2.067v26.563a3.1 3.1 0 0 0 1.611 1.93c10.26 5.452 22.403 8.212 36.064 8.212 15.831 0 28.984-3.76 39.08-11.183 10.47-7.695 15.775-18.376 15.775-31.74 0-9.551-2.79-17.79-8.352-24.382-5.56-6.587-15.282-12.41-30.056-18.176-13.405-5.56-18.617-8.92-20.638-10.737-2.478-2.257-3.689-5.422-3.689-9.644a11.583 11.583 0 0 1 5.28-9.998c3.893-2.827 9.115-4.274 15.512-4.274a53.256 53.256 0 0 1 30.344 9.024l4.274 2.888c.538 0 1.036-.528 1.195-1.862V58.129a75.298 75.298 0 0 0-35.136-8.464M409.012 52.483v55.752h-55.41v-48.52a7.23 7.23 0 0 0-7.228-7.232h-18.698V185.99a7.216 7.216 0 0 0 7.218 7.162h18.709V130.9h55.409v55.09a7.226 7.226 0 0 0 7.233 7.163h18.694V59.716a7.196 7.196 0 0 0-2.108-5.115 7.206 7.206 0 0 0-5.11-2.118z" fill="#005ffa"/><path d="M713.936 52.483h113.913v140.67H713.936z" fill="none"/><g transform="translate(713.925 52.416)"><path d="M.01.066h48.654c31.811 0 65.264 21.336 65.264 67.66 0 41.983-27.569 72.794-63.848 72.794H2.668c-.892.011-1.78.082-2.657.216zm27.77 116.148h18.642c22.906 0 39.121-19.463 39.121-44.594 0-31.016-17.277-48.248-41.142-48.248H27.78z" fill="#005ffa" fill-rule="evenodd"/></g><path d="M559.458 56.195h-18.499v87.113a26.98 26.98 0 0 1-13.328 23.85 26.982 26.982 0 0 1-27.317 0 26.97 26.97 0 0 1-13.328-23.85V63.357a7.161 7.161 0 0 0-7.161-7.162h-18.499v87.113c0 29.071 23.567 52.638 52.639 52.638s52.639-23.567 52.639-52.638V63.357a7.155 7.155 0 0 0-7.146-7.162" fill="#005ffa"/><path d="M0 .426h244.792v244.793H0z" fill="none"/><g transform="translate(0 .261)"><path d="M244.791 122.562c0 67.598-54.798 122.396-122.396 122.396S-.002 190.16-.002 122.562C-.002 54.963 54.798.165 122.395.165c67.598 0 122.396 54.798 122.396 122.397" fill="#005ffa"/></g><g fill="#fff"><path d="M72.01 149.98v43.754h26.045V176.02c0-14.384-11.66-26.04-26.045-26.04M158.37 112.121a25.997 25.997 0 0 0-10.731-2.323h-37.46c-7.187 0-13.02-5.828-13.02-13.015V51.916H71.116v57.882c.005 14.384 11.665 26.045 26.045 26.05h37.449c3.457 0 6.766 1.37 9.208 3.816a13.015 13.015 0 0 1 3.812 9.209v44.862h26.045v-57.887a26.034 26.034 0 0 0-15.303-23.727M152.174 51.914h-5.438v17.709c0 14.385 11.66 26.045 26.045 26.05V51.914z"/></g></svg>