<svg id="Layer_1" xmlns="http://www.w3.org/2000/svg" viewBox="0 0 350.3 90" width="2500" height="642"><style>.st0{fill:#1f8ded}</style><path class="st0" d="M119.3 58V32c0-1.6 1.3-2.9 2.9-2.9 1.6 0 2.9 1.3 2.9 2.9v26c0 1.6-1.3 2.9-2.9 2.9-1.5 0-2.9-1.3-2.9-2.9zM152.5 59.1L139.9 39v19c0 1.6-1.3 2.9-2.9 2.9-1.6 0-2.9-1.3-2.9-2.9V32.8c0-2.1 1.7-3.9 3.9-3.9h.2c1.3 0 2.6.7 3.3 1.8L154 50.5V31.8c0-1.6 1.3-2.9 2.9-2.9 1.6 0 2.9 1.3 2.9 2.9V57c0 2.1-1.7 3.9-3.9 3.9-1.4 0-2.7-.6-3.4-1.8zM180 34.5v23.8c0 1.5-1.2 2.7-2.7 2.7h-.4c-1.5 0-2.7-1.2-2.7-2.7V34.5h-6.7c-1.5 0-2.7-1.2-2.7-2.7 0-1.5 1.2-2.7 2.7-2.7h19.3c1.5 0 2.7 1.2 2.7 2.7 0 1.5-1.2 2.7-2.7 2.7H180zM194.1 58.3V31.6c0-1.4 1.2-2.6 2.6-2.6h17.5c1.4 0 2.6 1.2 2.6 2.6 0 1.4-1.2 2.6-2.6 2.6h-14.3v7.4h12.3c1.4 0 2.6 1.2 2.6 2.6 0 1.4-1.2 2.6-2.6 2.6h-12.3v8.7h14.3c1.4 0 2.6 1.2 2.6 2.6 0 1.4-1.2 2.6-2.6 2.6h-17.5c-1.4.2-2.6-.9-2.6-2.4zM241.3 59.2l-4.6-10.3h-7.1v9.2c0 1.6-1.3 2.9-2.9 2.9h-.1c-1.6 0-2.9-1.3-2.9-2.9V32c0-1.6 1.3-2.9 2.9-2.9h10.6c7.6 0 11.1 4.8 11.1 9.9 0 4.3-2.3 7.6-5.8 8.9l4 9c.8 1.9-.5 4-2.6 4-1.1 0-2.2-.6-2.6-1.7zm-4-25.1h-7.6v9.5h7.7c3.3 0 5.2-1.7 5.2-4.7-.1-2.5-2-4.8-5.3-4.8zM275.9 57.7c-2.4 2.4-5.7 3.8-9.1 3.8-3.4 0-6.6-1.1-9-3.6-3.5-3.5-4-7.7-4-12.9s.5-9.5 4-12.9c2.4-2.4 5.6-3.6 9-3.6 3.4 0 6.7 1.3 9.1 3.7.8.9 1.5 1.8 2 2.9.9 1.9-.5 4-2.6 4-1.2 0-2.2-.7-2.7-1.8-.2-.6-.6-1.1-1-1.6-1-1.3-2.8-2-4.8-2-1.8 0-3.6.8-4.9 2.1-2.2 2.3-2.2 6.2-2.2 9.2 0 2.9 0 6.9 2.2 9.2 1.3 1.3 3.1 2.1 4.9 2.1 2 0 3.8-.7 4.8-2 .4-.5.8-1.1 1-1.7.4-1.1 1.5-1.8 2.7-1.8 2.1 0 3.5 2.1 2.6 4-.5 1.1-1.2 2.1-2 2.9zM307 57.9c-2.4 2.4-5.8 3.6-9.2 3.6-3.4 0-6.7-1.2-9.2-3.6-3.5-3.5-4-7.7-4-12.9s.6-9.5 4-12.9c2.4-2.4 5.8-3.6 9.2-3.6s6.7 1.2 9.2 3.6c3.5 3.5 4 7.7 4 12.9.1 5.2-.5 9.5-4 12.9zm-4.1-22c-1.3-1.3-3.2-2.1-5-2.1-1.8 0-3.8.8-5 2.1-2.2 2.3-2.3 6.2-2.3 9.2 0 2.9.1 6.8 2.3 9.1 1.3 1.3 3.2 2.1 5 2.1s3.8-.8 5-2.1c2.2-2.3 2.3-6.2 2.3-9.1 0-3-.1-7-2.3-9.2zM344.7 58.1V38.2l-7.5 20.3c-.4 1.2-1.6 2-2.9 2-1.3 0-2.4-.8-2.9-2l-7.5-20.6v20.2c0 1.6-1.3 2.8-2.8 2.8-1.6 0-2.8-1.3-2.8-2.8V33.4c0-2.4 2-4.4 4.4-4.4h.4c1.8 0 3.5 1.1 4.1 2.9l7.3 19.8 7.4-19.8c.6-1.7 2.3-2.9 4.1-2.9 2.4 0 4.4 2 4.4 4.4v24.7c0 1.6-1.3 2.8-2.8 2.8-1.7 0-2.9-1.2-2.9-2.8zM78.8 0H11.3C5 0 0 5 0 11.2v67.5C0 85 5 90 11.3 90h67.5C85 90 90 85 90 78.8V11.3C90 5 85 0 78.8 0zM57 16.5c0-1.7 1.3-3 3-3s3 1.3 3 3v40.1c0 1.7-1.3 3-3 3s-3-1.3-3-3V16.5zM42 15c0-1.7 1.3-3 3-3s3 1.3 3 3v43.5c0 1.7-1.3 3-3 3s-3-1.3-3-3V15zm-15 1.5c0-1.7 1.3-3 3-3s3 1.3 3 3v40.1c0 1.7-1.3 3-3 3s-3-1.3-3-3V16.5zm-15 6c0-1.7 1.3-3 3-3s3 1.3 3 3v27c0 1.7-1.3 3-3 3s-3-1.3-3-3v-27zm65 45.8c-.5.4-11.6 9.7-32 9.7s-31.5-9.3-32-9.7c-1.3-1.1-1.4-3-.3-4.2 1.1-1.3 3-1.4 4.2-.3.2 0 10.1 8.2 28.1 8.2 18.2 0 28-8.2 28-8.3 1.3-1.1 3.2-.9 4.2.3 1.2 1.3 1 3.2-.2 4.3zm1-18.8c0 1.7-1.3 3-3 3s-3-1.3-3-3v-27c0-1.7 1.3-3 3-3s3 1.3 3 3v27z"/></svg>