<svg xmlns="http://www.w3.org/2000/svg" clip-rule="evenodd" stroke-miterlimit="10" viewBox="38.09 47.38 500.75 154.77580196614196" width="2500" height="580"><g fill-rule="non-zero"><path d="M464.91 47.38c15.84.54 31.72 1.63 47.33 4.45 6.93 1.35 13.96 2.86 20.26 6.16 2.66 1.48 5.6 3.6 5.97 6.88.37 3.27-2.21 5.87-4.79 7.44-5.57 3.38-12.01 4.89-18.3 6.3-9.59 1.92-19.32 3.23-29.08 3.84 8.54-1.5 17.05-3.26 25.35-5.76 4.73-1.51 9.57-3.08 13.66-5.99 1.78-1.28 3.61-3.4 2.85-5.76-.89-2.54-3.34-4.05-5.57-5.29-5.75-2.97-12.06-4.6-18.32-6.09-12.95-3-26.17-4.66-39.36-6.18M245.86 81.72c2.51-.74 5.29-.88 7.79-.02 1.55.54 2.94 1.77 3.32 3.4.56 2.23-.43 4.58-2.01 6.15-2.54 2.55-6.3 3.53-9.82 3.27-1.88-.14-3.87-.76-5.09-2.28-1.3-1.6-1.18-3.94-.29-5.7 1.19-2.42 3.57-4.04 6.1-4.82M38.09 83.05h35.92c8.08-.01 16.28-.2 24.22 1.61 5.74 1.32 11.55 3.91 15.2 8.71 3.04 3.94 3.85 9.15 3.2 13.99-1.16 8.58-5.38 16.7-11.69 22.63-6.06 5.85-14 9.33-22.14 11.16-13.24 2.99-26.99 2.55-40.43 1.36 4.4-16.43 8.82-32.87 13.21-49.31-5.84-3.37-11.67-6.75-17.49-10.15m34 10.85c-3.46 12.93-6.95 25.84-10.37 38.77 4.17.25 8.38.32 12.53-.28 6.81-.97 13.56-3.94 18.08-9.25 3.82-4.53 6.21-10.36 6.44-16.29.23-4.41-2.23-8.8-6.2-10.78-6.28-3.24-13.66-2.91-20.48-2.17m307.1-2.91c5.52-.17 11.04-.38 16.56-.57-.84 3.12-1.69 6.23-2.53 9.35h11.91c-.89 3.29-1.77 6.59-2.66 9.88-3.96-.01-7.93-.01-11.89-.01-1.38 5.16-2.76 10.31-4.15 15.46-.42 1.69-.86 3.51-.35 5.23.37 1.23 1.59 1.96 2.79 2.17 2.35.41 4.74.09 7.09-.13-.89 3.39-1.75 6.79-2.64 10.19-5.27 1.03-10.77 1.56-16.08.6-2.94-.67-6.15-1.93-7.64-4.74-1.62-3.22-1.09-7-.3-10.38 1.61-6.14 3.29-12.26 4.92-18.39-2.37-.01-4.73-.01-7.09 0 .87-3.29 1.76-6.59 2.64-9.88h7.09c.78-2.93 1.54-5.86 2.33-8.78m-233.33 7.97c6.61-.66 13.7-.32 19.61 3.03 4.21 2.33 7.23 6.74 7.59 11.57.47 6.18-1.91 12.35-5.63 17.21-5.64 7.24-14.52 11.35-23.48 12.56-6.55.84-13.51.54-19.56-2.34-4.48-2.09-8.08-6.31-8.71-11.29-.81-6.37 1.58-12.8 5.36-17.85 5.85-7.72 15.35-11.92 24.82-12.89m-1.13 9.79c-4.2 1.02-7.49 4.33-9.42 8.09-1.58 3.13-2.58 6.66-2.33 10.2.17 2.51 1.48 5.06 3.82 6.17 3.22 1.46 7.08 1.02 10.12-.67 4.77-2.7 7.56-7.96 8.52-13.22.54-3.05.41-6.68-1.92-9.02-2.31-2.2-5.86-2.27-8.79-1.55m285.79-9.8c6.6-.65 13.67-.28 19.55 3.09 4.01 2.24 6.95 6.37 7.46 10.97.66 5.95-1.48 11.93-4.83 16.77-5.61 7.93-15.05 12.37-24.5 13.6-6.9.82-14.32.43-20.5-3.05-4.27-2.35-7.33-6.82-7.61-11.72-.38-6.17 2.01-12.3 5.76-17.13 5.91-7.53 15.31-11.6 24.67-12.53m-1.09 9.75c-6.62 1.63-10.68 8.23-11.75 14.61-.56 3.16-.22 6.99 2.47 9.14 3.16 2.36 7.66 1.97 11.02.25 4.94-2.63 7.81-8.01 8.8-13.35.54-3.03.43-6.62-1.84-8.96-2.24-2.26-5.78-2.36-8.7-1.69m-234.69-2.81c6.27-5.78 15.32-8.24 23.68-6.63 3.4.67 6.8 2.49 8.52 5.63 2.06 3.68 1.7 8.14.71 12.09-2.29 8.6-4.6 17.2-6.91 25.79h-16.68c1.86-7 3.74-13.98 5.61-20.98.69-2.66 1.73-5.41 1.15-8.2-.32-1.61-1.54-2.97-3.11-3.45-5.88-1.88-13.19 1.95-14.46 8.13-2.18 8.17-4.37 16.33-6.56 24.5H170c3.7-14.33 8.01-28.51 11.09-43 4.83 0 9.67-.01 14.51 0-.3 2.04-.59 4.08-.86 6.12m76.17 0c5.32-4.89 12.62-7.43 19.83-7.08 4.34.12 9.12 1.45 11.77 5.14 2.66 3.72 2.39 8.67 1.34 12.91-2.3 8.64-4.64 17.27-6.94 25.91h-16.69c1.95-7.31 3.9-14.61 5.87-21.91.66-2.46 1.5-5.07.8-7.62-.41-1.44-1.53-2.62-2.95-3.08-5.88-1.92-13.22 1.88-14.51 8.05-2.18 8.19-4.39 16.38-6.57 24.56h-16.69c3.69-14.33 8-28.52 11.09-43h14.49c-.29 2.04-.57 4.08-.84 6.12m45.24.31c7.06-5.82 16.73-8.69 25.78-6.87 3.29.65 6.17 2.72 7.81 5.65.61-1.75 1.26-3.48 1.92-5.21h14.5c-3.32 9.7-5.62 19.71-8.36 29.58-1.74 6.32-3.03 12.98-6.82 18.49-3.51 5.42-9.19 9.15-15.31 11.05-6.26 1.99-12.92 2.43-19.46 2.16-5.18-.27-10.42-1.03-15.19-3.14 2-3.44 4.04-6.85 6.04-10.28 5.4 2.56 11.5 3.62 17.44 3.08 4.5-.44 9.07-2.39 11.75-6.16 1.72-2.24 2.37-5.04 3.1-7.71-6.21 5.14-14.92 6.77-22.66 4.78-3.57-.96-6.95-3.03-8.98-6.17-2.09-3.18-2.63-7.16-2.11-10.88 1-7.18 4.97-13.81 10.55-18.37m18.43 3.07c-7.03 1.56-11.73 8.69-11.89 15.64-.03 2.73 1.35 5.58 3.93 6.73 4.5 1.95 10.08.5 13.4-3.01 1.52-1.59 2.32-3.7 2.85-5.81.54-2.19 1.25-4.34 1.69-6.55.51-2.33-.54-4.95-2.61-6.17-2.2-1.33-4.93-1.33-7.37-.83m144.53-3.41c5.16-4.64 12.1-7.25 19.06-7.06 4.51 0 9.56 1.19 12.43 4.97 2.76 3.68 2.54 8.67 1.5 12.93-2.31 8.7-4.65 17.38-6.98 26.07h-16.68c1.89-7.08 3.79-14.16 5.7-21.25.64-2.57 1.66-5.24 1.06-7.93-.32-1.68-1.65-3.04-3.28-3.52-4.46-1.32-9.46.56-12.37 4.09-1.33 1.49-1.75 3.49-2.26 5.36-2.05 7.76-4.15 15.5-6.21 23.25-5.57-.01-11.13.01-16.7 0 3.7-14.33 8.01-28.52 11.09-43h14.5c-.28 2.03-.57 4.07-.86 6.09m-242.59-6.09h16.69c-3.84 14.34-7.68 28.67-11.52 43-5.57-.01-11.13.01-16.7 0 3.85-14.33 7.69-28.67 11.53-43M40.76 153h9.8c-.16.71-.31 1.43-.47 2.15h-3.5c-.67 3.2-1.34 6.4-2.02 9.6-.86-.01-1.73-.02-2.6-.01.67-3.2 1.34-6.39 2-9.59h-3.66c.15-.72.3-1.44.45-2.15m11.28.01c.79-.01 1.57-.02 2.36-.02a90.86 90.86 0 0 1-.89 3.97c1.57-1.03 4.74-1.61 5.3.8-.03 2.38-.87 4.66-1.27 6.99-.78-.01-1.57-.01-2.35-.01.36-2.18 1.16-4.31 1.11-6.54-1.11-.75-2.63-.12-3.08 1.08-.64 1.76-.86 3.64-1.28 5.46-.78-.01-1.57 0-2.36.01.81-3.92 1.64-7.83 2.46-11.74m25.08 0c.79-.02 1.58-.02 2.36-.02-.28 1.35-.56 2.69-.86 4.02 1.54-1.08 4.62-1.67 5.27.68-.01 2.4-.86 4.71-1.27 7.06-.78-.01-1.56-.02-2.34-.02.44-2.12.91-4.24 1.28-6.37-1.04-.71-2.53-.56-3.11.66-.81 1.8-.96 3.81-1.42 5.71-.79 0-1.57.01-2.36.02.82-3.92 1.63-7.83 2.45-11.74m59 .44c1.05-.81 2.48-.5 3.7-.54-.11.51-.23 1.02-.34 1.54-1.15.07-2.01.63-2.42 1.72l1.91.08c-.12.51-.22 1.03-.33 1.55-.57 0-1.13.01-1.69.02-.49 2.3-.98 4.61-1.46 6.92-.79-.01-1.58-.01-2.36.01.49-2.32.97-4.63 1.46-6.94h-1.38c.11-.53.22-1.06.33-1.57.33-.01.98-.01 1.3-.01.37-.95.55-2.04 1.28-2.78m10.16-.44c2.44.1 4.97-.32 7.37.33 2.19.96 1.62 4.28-.4 5.15 2.47 1.6 1.19 5.51-1.49 6.01-2.62.5-5.31.14-7.95.24.82-3.91 1.64-7.82 2.47-11.73m2.08 1.98c-.19.91-.38 1.83-.58 2.75 1.47-.26 3.91.67 4.61-1.14.43-2.31-2.64-1.4-4.03-1.61m-.93 4.47c-.23 1.08-.46 2.17-.69 3.26 1.32-.02 2.65.08 3.95-.11 1.21-.24 1.67-1.83.99-2.79-1.35-.54-2.83-.3-4.25-.36m17.33-4.51c.13-.65.28-1.3.42-1.95.79-.01 1.58-.01 2.38 0-.15.65-.3 1.3-.44 1.95h-2.36m11.38-1.95c.78-.01 1.58 0 2.37.01-.15.64-.3 1.29-.44 1.94-.78 0-1.57 0-2.36.01.14-.66.28-1.31.43-1.96m10.99 11.75l2.46-11.75c.78-.01 1.57-.01 2.36 0-.27 1.33-.56 2.65-.87 3.98 1.52-.93 4.21-1.64 5.17.38.3 2.49-.81 4.93-1.16 7.39-.79-.01-1.57-.02-2.36-.02.41-2.05.97-4.08 1.21-6.16-.75-1.38-2.73-.53-3.15.69-.67 1.76-.88 3.65-1.3 5.48-.79 0-1.57-.01-2.36.01m-72.88-11.11c.79 0 1.57-.01 2.35-.01-.17.86-.35 1.71-.53 2.58.47.02 1.39.06 1.84.09-.18 1.24-1.1 1.62-2.22 1.64-.35 1.67-.69 3.34-.96 5.03.43.01 1.28.05 1.7.06l-.45 1.85c-1.27-.1-3.53.27-3.64-1.56.16-1.86.69-3.67 1.05-5.5-.39-.01-1.14-.01-1.53-.01.09-.4.27-1.19.36-1.58h1.5c.18-.87.35-1.73.53-2.59m55.94 0c.78 0 1.57-.01 2.36 0-.19.86-.36 1.72-.54 2.59h1.69c-.13.52-.25 1.05-.37 1.58h-1.67c-.36 1.71-.72 3.43-.99 5.17.43.01 1.28.04 1.7.05-.16.62-.31 1.23-.47 1.84-1.26-.09-3.44.27-3.63-1.5.16-1.88.7-3.7 1.06-5.55-.38 0-1.14-.01-1.52-.02.08-.39.26-1.17.34-1.56.38 0 1.13-.01 1.51-.01.17-.87.35-1.73.53-2.59m60.48 0c.78-.01 1.57 0 2.36 0-.19.86-.37 1.72-.54 2.59h1.68c-.12.52-.25 1.04-.36 1.58h-1.67c-.36 1.7-.72 3.39-.99 5.11.42.04 1.26.11 1.68.15-.14.59-.29 1.2-.43 1.8-1.27-.09-3.49.28-3.65-1.51.16-1.88.7-3.7 1.05-5.55h-1.51c.08-.4.25-1.18.34-1.57.38 0 1.13-.01 1.51-.01.17-.87.35-1.73.53-2.59m59.31 0c.78 0 1.56-.01 2.36 0-.19.86-.36 1.72-.54 2.59h1.68c-.13.52-.24 1.05-.36 1.57-.42.01-1.26.01-1.68.01-.35 1.72-.71 3.43-.98 5.17.43.01 1.28.04 1.7.05-.16.62-.32 1.23-.47 1.84-1.27-.09-3.41.28-3.64-1.48.18-1.89.7-3.72 1.07-5.57-.38 0-1.14-.01-1.52-.02.09-.39.26-1.17.35-1.56.37 0 1.12-.01 1.49-.01.18-.87.35-1.73.54-2.59M61.42 164.05c-2.38-2.32-.86-7 2.28-7.82 1.62-.45 3.67-.14 4.68 1.32.69 1.02.53 2.31.58 3.48-2.23.02-4.45-.03-6.67.05.38.76.51 1.98 1.58 2.05 1.01.32 1.75-.58 2.47-1.1.77-.01 1.54-.02 2.31 0-1.11 2.77-4.87 3.87-7.23 2.02m1.18-4.57c1.46.06 2.92.07 4.38 0-.46-.67-.76-1.81-1.79-1.68-1.17-.12-1.87.94-2.59 1.68m23.94-1.75c1.51-1.98 4.82-2.32 6.62-.55 1.01 1.01.84 2.54.88 3.84-2.22.03-4.44-.02-6.65.07.36.7.43 1.78 1.36 1.98 1.08.48 1.93-.49 2.72-1.07.75.01 1.5.02 2.25.05-1.08 2.58-4.32 3.69-6.76 2.34-2.27-1.41-1.91-4.8-.42-6.66m1.15 1.76c1.45.05 2.9.06 4.35-.01-.44-.62-.61-1.65-1.54-1.67-1.26-.25-2.08.86-2.81 1.68m10.82-3.27c1.68-.32 4.31-.45 5.02 1.51.07 2.39-.9 4.67-1.11 7.04-.72-.02-1.44-.02-2.15-.03l.13-.63c-1.43.65-3.25 1.31-4.66.28-1.34-.93-1.02-3.1.3-3.89 1.6-.99 3.63-.56 5.32-1.3.26-.71-.13-1.53-.94-1.55-1.06-.35-1.85.53-2.53 1.18-.52-.01-1.54-.01-2.05-.02.55-1.14 1.28-2.4 2.67-2.59m-.95 5.24c-.81.75-.17 2.03.89 1.91 1.55.19 2.07-1.46 2.65-2.54-1.18.16-2.44.1-3.54.63m10.57-3.91c1-1.04 2.35-1.54 3.79-1.61l-.48 2.21c-1.09.12-2.53 0-3.12 1.16-.88 1.67-.99 3.62-1.43 5.43-.79-.01-1.57 0-2.35 0 .58-2.84 1.19-5.68 1.77-8.52l2.29.03c-.12.32-.35.98-.47 1.3m17.91-1.16c1.81-.7 4.39-.45 5.39 1.42 1.13 2.51-.14 5.98-2.85 6.86-1.76.56-4.17.31-5.14-1.46-1.13-2.45.03-5.82 2.6-6.82m1.12 1.52c-1.52.71-2.1 2.76-1.63 4.28.48 1.26 2.28 1.26 3.03.25.77-1 1.16-2.4.81-3.64-.27-.91-1.4-1.19-2.21-.89m32.34-.36c1.03-1.01 2.37-1.54 3.8-1.62l-.45 2.22c-1.1.11-2.54 0-3.13 1.17-.87 1.67-.99 3.61-1.43 5.43-.79-.01-1.58-.02-2.35-.02.59-2.83 1.18-5.67 1.78-8.51.57.01 1.72.03 2.3.03-.13.33-.39.97-.52 1.3m4.99-1.32h2.37c-.6 2.84-1.21 5.67-1.8 8.5-.8 0-1.59 0-2.38.01.6-2.84 1.22-5.67 1.81-8.51m10.96.01c.79-.01 1.58-.01 2.37-.01-.6 2.84-1.21 5.67-1.81 8.51-.79-.01-1.59-.01-2.38.01.61-2.85 1.22-5.68 1.82-8.51m4.58.65c2.16-1.52 6.14-1.22 6.64 1.87h-2.05c-.74-1.22-2.22-1.51-3.33-.59.82 1.63 3.19 1.14 4.27 2.54.83 1.12.36 2.82-.8 3.51-2.3 1.39-6.26.9-6.71-2.23.68-.02 1.37-.04 2.06-.05.49 1.7 3.86 2.12 3.48-.13-1.24-.6-2.64-.79-3.82-1.49-1-.88-.78-2.67.26-3.43m24.14-.66c.76 0 1.53 0 2.3.01-.1.25-.3.75-.39 1.01 1.53-1.2 3.81-1.79 5.25-.12 1.53-1.23 4.55-1.74 5.32.57-.05 2.39-.86 4.7-1.28 7.05-.78-.01-1.57-.02-2.35-.02.4-2.03.97-4.03 1.19-6.1-.35-1.36-2.24-.7-2.65.28-.9 1.81-1 3.89-1.49 5.83-.79 0-1.58-.01-2.37 0 .35-2.17 1.19-4.31 1.08-6.52-.91-.8-2.24-.1-2.66.88-.77 1.78-.93 3.76-1.37 5.65-.8-.01-1.58-.02-2.36-.01.59-2.84 1.19-5.67 1.78-8.51m17.22.04c1.72-.51 4.04-.25 5.02 1.44 1.29 2.63-.21 6.38-3.16 7.06-1.7.41-3.94.1-4.81-1.61-1.16-2.55.2-6.06 2.95-6.89m.66 1.69c-1.66.9-2.53 4.13-.56 5.14 2.14.54 3.26-2.17 3-3.9-.05-1.19-1.46-1.7-2.44-1.24m15.5-1.58c2.22-.98 5.7.01 5.76 2.83.54 3.49-2.98 6.71-6.4 5.53-3.84-1.16-2.72-7.23.64-8.36m1.09 1.53c-1.77.84-2.65 4.05-.75 5.19 2.17.57 3.3-2.09 3.08-3.85-.04-1.15-1.34-1.75-2.33-1.34m9.12-.33c1.04-1.02 2.38-1.57 3.83-1.66-.16.73-.3 1.48-.45 2.21-1.01.17-2.34-.03-2.99.97-1.05 1.68-1.1 3.76-1.57 5.65-.79-.01-1.58-.02-2.36-.01.6-2.84 1.19-5.68 1.78-8.53.59.02 1.75.04 2.33.05-.14.33-.43.99-.57 1.32m5.28-.88c2.16-1.26 5.93-.94 6.33 2.07-.67 0-1.33-.01-2-.02-.73-1.13-2.29-1.64-3.31-.53.8 1.56 3.12 1.11 4.19 2.45.79 1.01.5 2.6-.51 3.37-2.24 1.61-6.49 1.22-6.94-2.02.69-.04 1.38-.07 2.07-.09.46 1.65 3.56 2.15 3.51.05-1.16-.89-2.76-.87-3.94-1.72-1.01-1-.64-2.91.6-3.56m8.54-.57c.87.1 1.74.2 2.61.36 1.54-.57 3.63-.74 4.65.83 1.58 2.91-.34 7.64-3.98 7.61-1.03.12-1.82-.62-2.6-1.13-.26 1.31-.53 2.62-.81 3.93-.79-.01-1.57-.01-2.36-.01.84-3.86 1.64-7.73 2.49-11.59m3.02 1.83c-1.52.83-2.17 2.99-1.49 4.55 1.35 1.65 3.7-.06 3.82-1.8.66-1.49-.64-3.59-2.33-2.75m9.65-1.77c1.99-.56 4.75.24 5.1 2.56.84 3.5-2.56 7.15-6.14 6.04-4.3-1.06-2.83-7.95 1.04-8.6m.67 1.67c-2.15.64-3.01 5.1-.22 5.33 1.8-.21 2.49-2.31 2.38-3.88-.01-1.08-1.19-1.78-2.16-1.45m8.96-.3c.98-1.06 2.31-1.55 3.74-1.63-.15.75-.3 1.5-.44 2.25-1.08.08-2.48-.05-3.1 1.07-.92 1.68-1.02 3.65-1.47 5.5-.78-.01-1.57-.02-2.34-.01.58-2.84 1.18-5.68 1.77-8.52l2.3.03c-.12.33-.35.98-.46 1.31" fill="#0023AB"/><path d="M435.96 53.28c18-.66 36.06-.23 53.97 1.74 9.32 1.09 18.65 2.63 27.6 5.53 2.44.94 5.17 1.91 6.71 4.16 1.07 1.74-.44 3.61-1.89 4.52-4.63 2.96-10.14 4.01-15.39 5.27-17.02 3.72-34.46 4.96-51.83 5.51-8.29.15-16.59.37-24.86-.29-16.5-1.07-32.99-2.06-49.48-3.18 18.64-1.05 37.27-2.23 55.92-3.15-13.89-.9-27.8-1.33-41.7-2.04-10.51-.57-21.03-.78-31.53-1.59 24.95-.8 49.86-2.3 74.81-3.09-7.34-.56-14.71-.6-22.06-.93-16.42-.58-32.83-1.18-49.24-1.76-7.12-.35-14.27-.29-21.37-.97 12.31-.11 24.62-.8 36.92-1.15 19.3-.6 38.59-1.53 57.9-1.9-9.44-.52-18.89-.64-28.33-.96-27.99-.84-55.99-1.59-83.98-2.49 35.95-1.12 71.89-2.15 107.83-3.23m20.11 6.58c-1.24 4.49-2.47 8.98-3.71 13.47 13.91.08 27.97-.34 41.59-3.47 2.22-.63 4.75-1.11 6.39-2.87.86-1.18-.74-2.18-1.66-2.62-3.63-1.58-7.6-2.17-11.47-2.84-10.31-1.48-20.74-1.87-31.14-1.67" fill="#E22C24"/></g></svg>