<svg xmlns="http://www.w3.org/2000/svg" width="2500" height="796" viewBox="0.497 0.501 198.998 63.356"><g fill="#eb3c00"><path d="M.496 51.61V13.094L34.568.502l18.517 5.924v51.85l-18.517 5.582L.496 51.61l34.072 4.1V10.873l-22.221 5.185v30.369L.497 51.61zM89.373 51.88c-5.362 0-9.658-1.769-12.885-5.304-3.228-3.533-4.84-8.133-4.84-13.796 0-6.084 1.644-10.938 4.932-14.56 3.288-3.622 7.764-5.433 13.425-5.433 5.223 0 9.43 1.759 12.622 5.275 3.192 3.518 4.788 8.116 4.788 13.796 0 6.172-1.637 11.051-4.907 14.64-3.27 3.589-7.647 5.381-13.135 5.381zm.316-35.083c-3.974 0-7.2 1.434-9.68 4.3-2.48 2.866-3.72 6.63-3.72 11.289s1.21 8.41 3.627 11.25 5.57 4.26 9.456 4.26c4.149 0 7.421-1.354 9.812-4.062 2.391-2.708 3.588-6.497 3.588-11.368 0-4.995-1.162-8.854-3.483-11.58-2.319-2.725-5.52-4.09-9.6-4.09zM123.177 10.675c-2.445 0-4.476.833-6.11 2.477-1.635 1.643-2.454 3.881-2.454 6.712v4.376h-4.606v3.703h4.606V51.25h4.306V27.943h10.53V51.25h4.306V27.943h6.32V24.24h-6.32v-4.167c0-3.815 1.513-5.716 4.537-5.716 1.073 0 2.027.22 2.87.694v-3.888c-.773-.316-1.806-.487-3.124-.487-2.445 0-4.499.834-6.134 2.477-1.636 1.644-2.454 3.882-2.454 6.712v4.376h-10.531v-4.166c0-3.816 1.51-5.717 4.536-5.717 1.072 0 2.026.22 2.87.694v-3.888c-.774-.319-1.829-.489-3.148-.489zM146.365 17.375a2.743 2.743 0 0 1-1.979-.792c-.545-.528-.818-1.195-.818-2.004s.273-1.481.818-2.017a2.717 2.717 0 0 1 1.979-.805c.791 0 1.463.267 2.018.805.555.536.83 1.208.83 2.017a2.67 2.67 0 0 1-.83 1.979c-.554.544-1.227.817-2.018.817zm2.11 33.867h-4.326v-27.01h4.325v27.01zM173.051 50.003c-2.074 1.248-4.538 1.873-7.385 1.873-3.851 0-6.959-1.253-9.323-3.76s-3.55-5.753-3.55-9.746c0-4.45 1.275-8.023 3.825-10.722 2.551-2.7 5.953-4.049 10.209-4.049 2.372 0 4.466.44 6.277 1.32v4.43c-2.004-1.406-4.15-2.11-6.435-2.11-2.762 0-5.026.99-6.794 2.968-1.767 1.979-2.65 4.576-2.65 7.794 0 3.166.83 5.663 2.491 7.492 1.663 1.828 3.89 2.742 6.688 2.742 2.355 0 4.573-.783 6.647-2.347v4.115zM199.494 38.82h-19.07c.07 3.006.879 5.327 2.425 6.963 1.55 1.634 3.676 2.452 6.385 2.452 3.042 0 5.839-1.002 8.387-3.007v4.062c-2.373 1.723-5.512 2.585-9.416 2.585-3.816 0-6.815-1.226-8.994-3.68-2.181-2.454-3.271-5.903-3.271-10.353 0-4.203 1.191-7.628 3.573-10.275 2.383-2.647 5.342-3.969 8.876-3.969s6.269 1.143 8.203 3.429c1.934 2.286 2.9 5.46 2.9 9.522v2.27zm-4.43-3.667c-.018-2.497-.62-4.44-1.808-5.829-1.187-1.39-2.836-2.084-4.945-2.084-2.041 0-3.772.731-5.197 2.19-1.424 1.46-2.303 3.368-2.636 5.723h14.585z"/></g></svg>