<svg height="504" width="2500" xmlns="http://www.w3.org/2000/svg" viewBox="0.5910000000000014 -6.400090847440536 236.70899999999997 59.23839772950548"><linearGradient id="a" x1="10.956%" x2="103.223%" y1="50.028%" y2="50.028%"><stop offset="0" stop-color="#1885c8"/><stop offset=".14" stop-color="#1881c3"/><stop offset=".32" stop-color="#1a74b3"/><stop offset=".52" stop-color="#1b6099"/><stop offset=".73" stop-color="#1e4475"/><stop offset=".96" stop-color="#212047"/><stop offset="1" stop-color="#22183d"/></linearGradient><linearGradient id="b" x1="2.641%" x2="107.123%" y1="53.534%" y2="46.383%"><stop offset=".24" stop-color="#52bce8"/><stop offset="1" stop-color="#3f88b9"/></linearGradient><linearGradient id="c" x1="0%" y1="49.934%" y2="49.934%"><stop offset=".54" stop-color="#52bce8"/><stop offset="1" stop-color="#49a4d3"/></linearGradient><linearGradient id="d" x1="37.085%" x2="65.118%" y1="52.606%" y2="43.296%"><stop offset="0" stop-color="#3a78ac"/><stop offset=".29" stop-color="#34689e"/><stop offset=".86" stop-color="#253e78"/><stop offset="1" stop-color="#21336e"/></linearGradient><linearGradient id="e" x1="-1.62%" x2="104.475%" y1="59.55%" y2="45.052%"><stop offset="0" stop-color="#52bce8"/><stop offset=".25" stop-color="#51b9e6"/><stop offset=".41" stop-color="#4eb0de"/><stop offset=".56" stop-color="#48a1d0"/><stop offset=".69" stop-color="#418cbd"/><stop offset=".78" stop-color="#3977ab"/><stop offset=".85" stop-color="#33669c"/><stop offset=".98" stop-color="#243b75"/><stop offset="1" stop-color="#21336e"/></linearGradient><g fill="none" fill-rule="evenodd"><g fill-rule="nonzero"><path d="M49.354 37.724c1.12-.264 2.143-.865 3.289-.772 1.894.292 2.791-.078 4.238-1.015 1.061.608 2.322 1.876 4.912 1.848.833.054 1.8-.357 1.605-1.238-.052-.764 1.444-.433 1.539-1.407.167-.582.043-.558-.865-1.106-1.513-.828-1.487-2.413-2.627-3.438-.125-.15-.495-.418-.506-.606-3.799-10.29.68-6.779-7.948-16.49-2.454-1.821-6.041-6.011-9.228-5.762-2.893.093-3.626 1.731-5.758 2.426-2.69.954-4.303 1.227-6.467 3.246-1.401 1.177-3.263-.277-5.254 1.82-4.219 4.257-4.692.255-11.618 5.666-3.58 3.112-8.527.866-4.54-3.136 2.022-1.444 4.582-3.22 3.637-5.977-.32-2.065-3.285-2.636-5.153-2.933-1.08-.216-2.927-1.638-3.537-2.023-1.83 2.053-.915 6.8 3.027 7.282.163.01.293.14.303.303a.613.613 0 0 1-.1.405c-2.826 2.227-3.433 3.136-3.533 5.665-.216 3.463 2.636 6.086 6.27 5.967.579.01 1.157-.024 1.73-.102.1 0 .201 0 .201.102.286 1.565.407 3.478.91 4.047.1.201.1.405-.101.504-1.157 1.139-3.622-.145-4.244 1.922-.387.844-.294 1.894-1.211 2.327-.649-.143-.822-1.104-1.72-1.113s-2.378.662-3.026 2.125c-.692.474-1.393.152-1.717 1.212-.147-.01-.227.56-.201.81a2.921 2.921 0 0 1-.404 1.315c-.666.842.056 1.872 1.111 2.024.78.06 1.274.368 1.514.1.099 0 .099-.1.2-.1.217-.206.383-.056.606 0 .45.024 1.103.374 1.617.303a.37.37 0 0 1 .303.102c1.514-.013 1.994-.617 2.525-1.418-.028-.36.26-.606.405-.909.138-.145.238-.216.404-.203.262.076.865.164 1.012.203 2.314.204 2.919-2.164 4.757-2.428.454 0 1.297.089 3.13.303 1.203.095 2.379-.78 3.538-1.415.519-.26.97-.405 1.414-1.013.545-.433 1.2-3.104 1.92-3.134 1.477-.03 2.874-.515 4.344-.506 1.805-.08 3.64.422 5.254-.202.06.022.415-.054.506.1.229.34.876.491.707.911 0 .102-.203.201-.303.303-.333 0-.817.026-1.111.405-.147.134-.558.173-.71 0-.966.086-3.701-.318-4.04 1.112.257 1.108 1.167 3.883 3.027 3.642.101 0 .302.1.302.202.707 1.415 1.92 2.326 3.027 2.326 1.107 0 3.862-.989 5.961-2.023h.896c1.282-.12 1.794-.463 2.525-1.922.97-.97.186 1.984 3.265 1.368zm-1.946-6.52c-.302.303-.605.404-1.01 1.01-.706-.303-.808-1.214-.908-1.618.606-.1 1.918-.405 2.627-.505-.406.405-.61.606-.71 1.113z" fill="#fff"/><path d="M63.2 34.476c-1.313-.707-1.819-2.223-2.628-3.334-2.115-2.188-2.474-5.93-3.027-8.995-.558-2.975-3.1-5.176-4.862-7.476-1.563-1.276-5.644-5.142-7.568-5.76-2.541-1.057-4.758.94-6.873 1.92-1.717.707-3.536.908-5.051 2.223-2.38 3.053-3.809.61-6.57 3.027-4.109 4.307-5.666.516-11.317 5.558-1.513.908-2.93 1.819-4.757 1.717-2.904-.136-3.893-4.039-1.618-5.76 1.585-1.773 5.478-3.595 3.542-6.462-2.01-1.793-4.376-1.03-6.768-3.027-1.103 1.73.307 4.075 2.121 4.648.744.463 2.474-.274 2.829.802-.766 1.533-2.857 2.364-3.839 3.842-2.445 2.824-.03 7.453 3.434 7.67 1.28.415 2.913-.632 3.74-.202.101 1.01 0 1.92.203 2.83.093.995 1.226 2.063.605 3.028a5.1 5.1 0 0 1-3.633 1.226c-.69.793-.806 1.695-1.213 2.627-.504.908-1.514 1.312-2.223 1.716-.467.712-.932 1.499-1.92 1.618-.606.707-.708 1.617-.909 2.527 2.528.668 3.069.329 4.446-1.82.506-.504 1.214-.1 1.718 0 1.435-.171 2.506-1.131 3.537-2.02 3.677-.962 3.642 1.447 7.88-1.314.71-.303 1.013-1.112 1.315-1.72.355-.676 1.335-1.98.102-2.321-3.172 6.421-8.695 1.195-12.936 6.053-.649.18-.145-.83 0-1.011 3.043-4.433 9.963-.53 12.326-6.27.415-.883.18-4.398 1.213-4.346.102 0 .405.101.405.302-.982 4.286-.333 5.615 4.243 4.865 1.565-.454 6.055 1.144 5.962-1.01 0-.404-.405-.605 0-.908.1-.101.404 0 .504.1.285 1.73 1.803 2.999 3.243 3.74 2.905 1.976 1.73 4.556-1.617 4.445-1.112-.605-1.415-1.718-2.223-2.626-.945-.829-2.236-.433-3.335-.204-.545.824.75 1.806 1.01 2.63.506.302 1.213-.204 1.618.402s.605 1.213 1.213 1.617c1.751 1.68 5.406-1.271 7.274-1.414 1.633.177 2.38-1.31 2.93-2.528.922-1.682-1.528-3.345-1.716-4.85-.558-.153-1.298-.59-1.72 0 .31.753 2.044 3.505 1.92 4.347-.226.607-.741 2.017-1.513 1.92.203-.708.506-1.514.506-2.325-.368-.865-1.992-3.362-2.121-4.244.322-.854 1.98-.359 2.625-1.213.71-1.111.91-2.223 1.114-3.637a.454.454 0 0 1 .302-.305c.984.634-.017 3.676-.607 4.346-.057 1.047 2.006.346 2.426 0 .78.162 2.364-.616 2.727-.101a5.49 5.49 0 0 0-1.01 2.021c-.605.707-1.615 1.213-1.615 2.223.11.636.964-.39 1.01.404-.88 1.118-.77 1.388-.507 2.627.924 1.298 2.689.23 3.841-.1 1.946-.762 4.137.446 5.66-1.616a1.34 1.34 0 0 1 1.01.605 5.565 5.565 0 0 0 4.344 1.719c.662-.46-.785-.822-1.01-1.012-.707-.404-1.618-1.01-1.819-1.818-.266-1.129-1.081-2.163-1.617-3.233 2.359.035 2.608 4.962 6.055 4.244.168-.116.151-.242.101-.404zM46.224 19.218c-.102.101-.203.101-.404.101-.27-1.02-.366-2.086-.91-2.931-.284-.277-.65-.638-.405-1.112a.482.482 0 0 1 .607-.101c.926.692 1.082 1.656 1.112 2.83.201.2.1.808 0 1.213zm8.285 14.248c-.462.123-.937.19-1.415.201h-.1c-.598-.551.65-1.652 1.314-1.617h.302c.37.154.275 1.129-.101 1.416m2.627-5.861c-.112.196-.285.711-.504.707-.218-.005-.313.032-.303-.201-.019-.68-.13-1.514-.709-1.92-1.319-2.052-1.652.519-2.121.2-.281-.57.162-1.217.404-1.716.113-.136.158-.294.303-.404.216-1.244 1.351-.534 1.617.2.697.866 1.514 1.84 1.415 2.831-.102-.102-.102.102-.102.303M5.904 36.902c.707-.405 1.111-1.112 1.414-1.72-.216-.339-.48-.786-1.01-.604-.48.37-.986.708-1.513 1.01-.253.687.378 1.552 1.111 1.314m-2.223 0c-1.2.49-.564 1.97-1.313 2.728 0 .1-.203.303 0 .405.504.1.909.302 1.514.404.27-.904.532-1.91.707-2.729-.203-.304-.506-.707-.91-.808m32.74-2.223c.405.504.405 1.21.91 1.615a2.174 2.174 0 0 0 1.718-.504c.303-.203-.102-.505-.201-.808-.305-.404-.102-1.213-.81-1.213-.765.177-1.604-.043-2.324.201 0 .305.606.305.707.71" fill="#db0a40"/><path d="M84.907 27.802c-.05-1.67-.725-3.484-1.855-4.675l-.052-.06c-.578 2.28-1.407 4.292-3.788 7.916-.916 1.387-2.542 1.448-3.548 2.72-.238-.129-.169-.306-.476.022 1.268-1.361-.182-.66.41-1.316 2.213-2.442 4.24-4.642 5.096-7.938-.361.452-.58.593-.943 1.05a51.68 51.68 0 0 0 1.036-4.032l-.39-.156C79.042 25.913 76.8 29.92 72.7 32.67c-5.324 3.864-.829 2.571.068 1.772-6.71 6.84-21.564 11.238-30.101 4.279 1.246 1.212 2.777 2.567 4.231 3.458-.885-.151-1.515-.837-2.35-1.098.013.028 2.03 2.65 8.052 3.337.387.043.758.082 1.115.114 8.21.649 8.71-.819 14.44-2.029.257.11-1.847 1.195-4.74 2.012-4.57 1.668-9.876.432-13.748.03h.017c.089.044.69.32 3.771 1.42-.216.078-1.223.216-5.422-1.582 10.303 5.933 21.392 1.442 30.497-5.299 0 .03-.013.073-.013.11.08.013.182.026.264.033-.05.144-.05.144-.756.985 1.537-1.238 2.325-3.16 3.953-4.322-.833 1.67-1.898 2.868-3.881 4.804.15-.115.295-.238.433-.37-2.998 2.797-6.953 5.572-13.09 7.029a8.432 8.432 0 0 0 1.314-.26c-.777.216-.798.242-1.127.35.203-.026.203-.026 1.262-.24-.617.303-1.33.448-3.053.798 10.215-1.617 20.84-9.552 21.07-20.198z" fill="url(#a)" transform="translate(1)"/><path d="M74.557 41.77c-4.053 2.562-8.536 4.798-13.544 5.369 6.024.215 13.173-4.12 17.067-7.672-1.166.775-2.332 1.555-3.523 2.302z" fill="url(#b)" transform="translate(1)"/><path d="M68.053 42.453c-5.765 1.227-6.092 2.692-14.341 2.068-.65.199-4.079-.011-4.645-.197.028 0 .294.116.523.208h-.015c.865-.11 6.57 1.12 8.392.876 2.365.162 9.786-2.07 10.086-2.955z" fill="url(#c)" transform="translate(1)"/><path d="M80.918 21.635l-.204-.088a52.916 52.916 0 0 1-1.04 4.006c.364-.456.584-.595.947-1.044-.87 3.276-2.894 5.462-5.115 7.89-.595.644.87-.046-.413 1.308.309-.327.24-.15.478-.022 1.008-1.265 2.642-1.325 3.561-2.704 2.39-3.605 3.222-5.602 3.8-7.868a6.699 6.699 0 0 0-2.014-1.478z" fill="url(#d)" transform="translate(1)"/><path d="M53.915 39.55c-3.784-2.145-1.041-.72 2.274.065 2.429.598 4.935.818 7.43.65 3.948-1.519 7.322-3.727 9.196-5.822-.898.825-5.34 2.06-.064-1.78 4.086-2.761 6.326-6.782 7.676-11.38a14.898 14.898 0 0 0-3.277-.803c-1.58 3.78-1.816 6.404-5.32 8.493-3.909 2.557-1.462 1.901-1.423 1.882.305-.122.595-.278.864-.465-1.512 2.432-4.142 3.984-7.278 4.685-.1.981-1.597.652-1.538 1.411.192.884-.771 1.303-1.603 1.242-2.592.028-3.846-1.244-4.907-1.854-1.654 1.103-2.432 1.244-4.514 1.012-1.035.015-1.978.543-3.004.781 1.468 1.32 7.792 3.018 5.488 1.883zM73.86 29.02c.659-1.443 2.188-2.218 2.69-3.961-.072.256.474.362.69.362.864-.148.885-1.337 1.164-1.585-.216 2.703-2.041 4.917-4.037 6.75a.899.899 0 0 0-.864-.04c-.084-.507 1.011-1.215.357-1.526z" fill="url(#e)" transform="translate(1)"/><path d="M78.324 13.102c-2.534-1.447-5.396-1.785-8.087-2.86 4.049.867 8.864 1.749 11.858 4.79.047.024.16.135.216.15.259.175.555.797.915.567-6.281-12.302-25.361-10.933-34.44-5.888.495.382 1.039.83 1.546 1.263 1.727-1.403 8.73-2.383 9.348-2.287-2.34.47-6.216 1.882-8.57 2.942l.33.279c4.804-1.696 12.117-2.879 17.299-1.631-4.142.461-11.526.398-16.438 2.361 1.349 1.025 2.55 2.89 3.71 4.26 8.014-3.924 12.637-4.052 16.69-3.539.39.217-2.874.354-2.082.594.88.204 2.532-.286 2.914-.336.248-.08 1.806-.028 2.298.065 1.874.457.117.696-.537.542a4.826 4.826 0 0 0-.967.02c-.723.136-1.597.296-2.318.404-.194.033-2.394-.026-2.06.26.422-.028 2.273.308 2.75.252.288-.065.579.032.85-.115.135-.093.683-.16.707.07-.624 1.394-2.52.348-3.946.65-1.271.094-2.62.664-2.849.465 4.17-2.546-5.96 1.237-5.789 1.88a.062.062 0 0 0 .035 0c.03.57 1.62-.26 1.942-.2.698-.053 1.64-.489 2.32-.649.51 0 .71.256 1.218.143 1.114-.02 2.12-.5 3.194-.713.095 0 .767.284.734.362 2.025 1.822 3.093.303 5.314.903.354.048-.065.278-.185.35-1.172.827-2.565.955-3.922 1.054a1.224 1.224 0 0 0-.665.109c-.447-.035-.863.216-1.31.149-1.271.026-2.528.217-3.67.8-.431.084-.921.153-1.243.476-.328.266-.822.165-1.111.464-.492.296-4.205 1.083-3.786 1.847h-.022.022a.217.217 0 0 1 0 .05c6.132-.88 13.442-5.218 21.176-1.969 3.184 1.627 4.964 4.456 3.695 9.924.01-.026.149-.39.147-.405l-.024.017c.36-1.276.69-2.372.682-3.663.831-4.72-2.739-11.401-7.889-14.207zm-7.256-4.618c1.124.253 3.186.63 3.859 1.343-1.768-.02-2.644-.787-2.616-.767-.339-.104-1.403-.485-1.243-.576z" fill="#fad50a"/><path d="M51.131 11.826l-.74-.614c1.764-1.44 8.655-2.36 9.353-2.288-1.038.21-2.06.49-3.059.84a74.962 74.962 0 0 0-5.554 2.062zm35.79 9.918C85.84 13.695 83.084 6.63 73.264 4.034c6.073 1.468 6.53 2.225 7.321 2.749C75.868 2.425 68.27.91 60.588 2.214 65.067.767 72.428.944 77.032 3.79 66.049-2.986 52.849-.056 44.733 7.682c1.515.293 2.845 1.294 4.08 2.247 9.211-5.007 28.219-6.378 34.54 5.869-.363.228-.648-.389-.917-.565-.05-.015-.162-.125-.216-.15-3.003-3.018-7.824-3.91-11.887-4.766 2.711 1.078 5.567 1.406 8.107 2.846 6.627 3.799 9.52 11.498 7.227 17.77l.023-.017a23.264 23.264 0 0 0 1.232-9.17zm-22.33-11.77c-4.202 0-9.52.79-13.1 2.156l.839.707c4.277-1.625 11.467-2.037 14.985-2.171 3.81-.116-1.33-.68-2.724-.692zm7.817-.834c-.07-.037.88.754 2.622.763-.681-.712-2.737-1.078-3.87-1.337-.156.09.91.47 1.25.574z" fill="#f2940a"/></g><g fill="#d2003c"><path d="M205.1 31.6c0 1.8 1.5 3.3 3.4 3.3s3.4-1.5 3.4-3.3V20.8h5.9v12c0 4-4.2 7.3-9.4 7.3s-9.4-3.3-9.4-7.3v-12h6v10.8zm26.2 7.8h6V7.9h-6zm-10.1 0h6V7.9h-6zM111.4 14.5h-3.3v24.9h-6.4v-30h11c5 0 9 4 9 8.9 0 4.1-2.9 7.7-6.9 8.6l8.8 12.6h-7.5l-6.4-9.8v-7.2h1.5c2.4 0 4.3-1.8 4.3-3.9 0-2.3-1.8-4.1-4.1-4.1z"/><path d="M129.3 27.9c-.1-2 1.4-3.8 3.5-3.9 2-.1 3.8 1.4 3.9 3.5v.4zm13.2 3.4c0-.4.1-.8.1-1.3.1-6.5-4.2-10.1-9.7-10.1s-9.9 4.5-9.9 10 4.4 10 9.9 10c4.2 0 7.4-1.9 9.1-4.8l-4.9-2.3c-.7 1.4-2.2 2.3-3.8 2.3-2.3 0-4.1-1.7-4.1-3.7v-.2c.1.1 13.3.1 13.3.1zm13.6 3.5c-2.4 0-4.4-2.2-4.4-4.8 0-2.7 2-4.8 4.4-4.8s4.4 2.2 4.4 4.8c0 2.7-2 4.8-4.4 4.8zm10.3 4.6V7.9h-6v14.9c-1.6-1.6-3.8-2.5-6-2.5-4.9 0-9 4.4-9 9.8s4 9.8 9 9.8c2.3 0 4.5-1 6.1-2.6v2.1zm20.4-5.2h-5.7V14.5h4c1.8 0 3.2 1.6 3.2 3.4s-1.4 3.2-3.2 3.2H183v5.4h3.8c2.1 0 3.7 1.7 3.7 3.8v.1c-.1 2.1-1.4 3.7-3.7 3.8m5-11.1c1.7-1.5 2.6-3.6 2.6-5.8 0-2-.8-3.9-2.2-5.4-1.4-1.6-4-2.4-7.4-2.4h-10.2v30h13.3c5.1-.1 9.2-3.9 9.2-8.6-.1-3.5-1.3-5.9-5.3-7.8"/></g></g></svg>