<svg xmlns="http://www.w3.org/2000/svg" width="2500" height="2500" viewBox="0 0 192.756 192.756"><g fill-rule="evenodd" clip-rule="evenodd"><path fill="#fff" d="M0 0h192.756v192.756H0V0z"/><path fill="#cc2229" d="M169.869 88.106l.811-3.138H78.157l112.82-8.452-21.108 11.59z"/><path d="M80.965 106.027l.629-2.018 12.904-.017c2.521-.003 2.607-2.846 1.664-3.615l-7.592-6.194c-.346-.282-.399-.667.083-.667l12.595.001-.5 1.867-7.125-.017 4.566 3.887c.643.352 1.025 1.393.662 2.569l-.898 2.907c-.574 1.24-1.149 1.22-2.463 1.275l-14.525.022zm45.637-.01c-1.723.001-2.225-1.12-1.852-2.45l3.316-11.841c.299-1.062 1.479-1.994 2.984-1.994h14.408l-.514 1.87-13.699-.033c-.887-.002-1.334.914-1.592 1.906l-2.443 9.352c-.158.608-.094 1.164 1.014 1.164h13.182l-.594 2.019-14.21.007zm21.226 0l1.672-5.61h11.096l-.684 2.486-9.229-.037-.883 3.161h-1.972zm-4.598 0l4.182-14.415c.281-.973 1.553-1.87 2.404-1.87h13.713l-.447 1.87h-11.689c-1.68 0-2.145 1.485-2.266 1.909l-3.594 12.506h-2.303zm-61.248-3.894l.537-1.703 7.773-.011-5.459-4.171c-.798-.61-.818-1.616-.557-2.424l.927-2.869c.287-.889 1.006-1.222 1.943-1.222h15.174l-.555 1.888-13.99.001c-.379 0-.66.379-.778.761l-.507 1.632c-.215.695.312 1.066.606 1.294l6.894 5.333c.701.541.908 1.485-.035 1.486l-11.973.005zm48.905.037c-1.102 0-1.457-.633-1.156-1.754l1.574-5.886c.354-1.318.893-1.01 1.631-1.01h11.504l-.617 1.871h-10.512l-1.545 5.025h10.639l-.518 1.754h-11zm18.957-3.196l1.572-5.454h11.074l-.551 1.871h-9.016l-.488 1.721 9.012.006-.465 1.886-11.138-.03zm-49.467 7.045l3.688-13.359c.789-2.854 4.574-4.864 7.105-1.748l6.209 7.645 2.264-8.815h2.17l-3.305 11.668c-.205.727-.604 1.126-1.355.155l-6.928-8.955c-1.088-1.406-3.209-1.91-4.057.91l-3.756 12.499h-2.035zm13.512-2.235l-4.795-6.038-2.332 8.267-2.109.006 3.051-10.973c.48-1.73 1.395-.93 1.889-.291l6.645 8.6c.912 1.182 3.223 2.053 4.217-1.519l3.371-12.096h2.084l-3.615 12.435c-1.676 5.757-5.586 5.158-8.406 1.609zM1.055 109.812h158.713l-3.061 6.54H1.055v-6.54z" fill="#33348e"/></g></svg>