<svg height="369" viewBox="-.079 0 136.576 19.184" width="2500" xmlns="http://www.w3.org/2000/svg"><path d="m5.991 15.209c-2.158 1.245-4.196 1.266-5.628 1.017l-.349 1.969c-.093.542.283.989.836.989h17.186c.552 0 1.09-.447 1.18-.989l2.194-12.425c-7.787-1.266-10.553 6.624-15.419 9.439m15.432-15.209h-17.186c-.555 0-1.088.445-1.184.991l-2.049 11.615c1.4.343 3.677.514 6.1-.886 4.74-2.743 7.389-10.165 14.952-9.609l.198-1.12c.095-.546-.28-.991-.831-.991" fill="#ed1c24"/><path d="m121.989 1.604-2.945 16.617h4.209l1.27-7.257h6.083l-1.29 7.257h4.234l2.947-16.617h-4.235l-1.16 6.474h-6.06l1.157-6.474zm-43.524 16.618h4.31l2.44-13.731h3.653l2.03-2.886h-14.065l-.506 2.886h4.58zm22.978-10.144h-5.72l.617-3.587h6.608l2.008-2.887h-12.298l-2.948 16.618h12.964l-1.049-2.888h-7.169l.738-4.37h5.706zm-74.749-1.765c.025 2.62 2.593 3.835 4.436 4.575 1.74.716 2.773 1.34 2.785 2.442.01 1.105-1.163 1.948-2.954 2.014-1.18.046-2.872-.311-4.17-.802-.066.066-2.153 1.99-2.683 2.48 1.107.597 3.412 1.5 6.26 1.553 3.917 0 8.096-1.686 8.042-6.098-.02-1.94-1.211-3.452-3.974-4.615l-.355-.15c-1.395-.592-2.935-1.133-2.946-2.227-.01-.82.9-1.643 2.946-1.706 1.277-.04 2.298.194 2.932.458.285-.262 2.248-2.07 2.856-2.633a16.074 16.074 0 0 0 -5.446-.994c-3.793 0-7.775 1.76-7.729 5.703m43.963-4.709h4.051l-2.946 16.618h-1.392l-7.962-9.07-1.631 9.07h-4.035l2.946-16.61h1.408l7.937 9.04zm42.113 14.032c-3.125 0-5.014-1.782-5.048-4.647-.025-2.123.784-3.893 2.343-4.922.977-.657 2.27-1.103 3.844-1.103 1.205 0 2.035.203 2.605.356l1.91-2.748a12.843 12.843 0 0 0 -4.408-.803c-2.692 0-4.25.413-6.011 1.353-2.813 1.529-4.724 4.34-4.68 8.237.064 5.372 3.945 7.616 8.304 7.616 1.977 0 3.93-.415 5.046-.815l-1.048-2.979c-.782.264-1.623.455-2.857.455m-60.32-13.574-1.63 9.19c-.547 3.048-1.718 4.428-3.841 4.428-1.835 0-2.679-1.271-2.723-2.49-.01-.976.1-1.763.18-2.148l1.59-8.98h-4.136l-1.557 8.78c-.113.713-.205 1.502-.195 2.215.041 3.945 2.39 5.97 6.358 5.918 5.408 0 7.541-2.59 8.512-8.013l1.58-8.9z" fill="#58585a"/></svg>