<svg height="842" viewBox="56.1 34.7 763.9 212.5" width="2500" xmlns="http://www.w3.org/2000/svg"><path d="m766.3 36.6c-11.8 2.6-22.9 11.6-28.5 23.2-2.8 5.8-3.3 8-3.6 16.5-.4 8.3-.1 10.8 1.8 16.5 10.2 30.2 48.8 38.9 71.3 16 8.3-8.4 12.7-18.9 12.7-30.2 0-6.1-.7-9.2-4.3-18.1-4.6-11.7-17.1-21.5-30.5-24.1-8.7-1.7-10.7-1.6-18.9.2zm9.8 9.1c.1 1 0 4.6-.1 8-.1 5.2.1 6.3 1.4 6.3.9 0 1.6-.3 1.6-.8 0-.4 2-1.8 4.5-3.2s4.5-2.7 4.5-3 1.6-1.4 3.5-2.4c4.8-2.6 6.2-1 2.7 3.2-5.6 6.8-7.1 9-6.5 9.6.3.3 5 .6 10.4.6 5.6 0 10.1.4 10.4 1 1 1.7-3.6 4.8-8.2 5.5-7.4 1.1-7.1 1.9 5 11.9 2.6 2.2 4.7 4.3 4.7 4.8 0 1.3-4.4.9-7.6-.6-1.6-.8-4-1.7-5.3-2.1-2.2-.7-2.3-.5-1.8 2.6 1.1 7.6 2.9 15.5 3.9 16.6.5.7.7 1.7.3 2.3-1 1.5-7.3-5.2-8.7-9.1-1.6-4.7-3.8-3.1-6.7 4.6-3.2 8.6-6 13-7.4 11.6-.7-.7-.6-2.9.2-6.7.6-3.2 1.1-6.6 1.1-7.6 0-2.1-2.2-2.4-4.2-.5-1.9 1.8-14.8 9.7-15.9 9.7-1.8 0-.8-2 3.7-7.6 2.5-3.1 4.2-6 3.7-6.4-.4-.4-5.2-1.2-10.7-1.8-5.4-.6-10.1-1.3-10.3-1.6-1.2-1.1 1-2.5 5-3.1 4.9-.7 9.7-2.4 9.7-3.5 0-.3-1.9-2.1-4.2-3.8-6.8-5.1-10.8-8.8-10.8-10 0-1.8 3.6-1.4 8 .8 5.9 3 7.3 2.7 6.5-1.3-.4-1.7-1.3-5-2.1-7.2-1.5-4.5-1.8-10.1-.6-10.9 1-.6 4.6 4 5.6 7 .4 1.2 1.5 2.9 2.6 3.9 1.9 1.7 2 1.7 2.6-.1 1.2-3.3 4.2-10.8 5.8-14.7 1.7-3.9 3.5-4.9 3.7-2zm-714.9 22.2c-1.6 1-2.6 8.1-1.4 9.9.5.7 4.6 1.6 10 2.1 11.7 1.1 14.4 2.9 10.2 7.1-2.5 2.5-6.7 2.5-10.5 0-5.8-3.8-13.4-1.5-9.2 2.8 1.3 1.3 4 1.6 13.9 1.5 6.8 0 13.3-.3 14.4-.7 2.4-.7 4-6 2.8-9-1.1-2.8-5.9-4.6-12.6-4.6-6.6 0-10.8-1.8-10.8-4.5 0-3.7 9.3-4.7 13.1-1.5 3 2.7 9.2 2.4 9.7-.4.2-1-.2-2.2-1-2.7-1.7-1.1-26.9-1.1-28.6 0zm37.2.4c-.2.7-.3 6-.2 11.7l.3 10.4 2.9.7c4.3 1.2 5.6-.4 5.6-6.6 0-5.1.1-5.4 3-6 4.6-1 6.8.2 7.5 3.9.4 1.8.6 3.9.5 4.7-.4 2.8 0 3.7 2.1 4.2 4.1 1.1 4.9-.1 4.9-7.4 0-6.7-.1-6.9-3.2-8.5-2.3-1.2-4.6-1.5-8.5-1.1-5.7.6-5.6.7-6.7-4.6-.6-2.3-1.1-2.7-4.2-2.7-1.9 0-3.7.6-4 1.3zm69.3-.7c-.4.4-.7 5.6-.7 11.4 0 11.8.6 13.2 5.3 12.3l2.8-.5-.3-11.7-.3-11.6-3-.3c-1.7-.2-3.4 0-3.8.4zm14.8 1.6c-.3 1.3-.5 6.5-.3 11.7l.3 9.5 2.9.7c4.9 1.3 5.6-.2 5.6-11.1 0-12.2-.3-13-4.6-13-2.7 0-3.5.5-3.9 2.2zm-48.1 6.6c-2.6 2.1-3.7 6.2-2.8 10.7.5 2.9 1.2 3.6 4.3 4.5 4.9 1.4 7.1 1.3 7.1-.4 0-.7-.7-1.9-1.6-2.7-1.4-1.2-1.4-1.4.2-2.6 2.2-1.6 10-1.7 11-.1.4.6-.2 1.9-1.4 2.9-4.4 3.5-1.1 5.2 5.7 2.8 3.3-1.2 3.7-1.9 2-3.6-.8-.8-.8-1.3 0-1.7.6-.4 1.1-2.4 1.1-4.5 0-5.8-2.7-7.1-14.2-7.1-7.3 0-9.8.4-11.4 1.8zm15.6 2.2c1.5 2.8.5 4-3.6 4-3.8 0-5.4-2.1-3.4-4.5 1.8-2.2 5.7-1.9 7 .5zm-91.4 46.9c-.6.9 1.1 6.9 2.5 8.6.4.6 1.7 3.5 2.9 6.5 1.1 3 3.2 7.9 4.5 10.8 1.4 2.9 2.5 5.5 2.5 5.8s1.4 3.5 3 7.1c1.7 3.5 3 6.8 3 7.3 0 .8 2.5 6.4 5.1 11.2.5 1 .9 2.3.9 3s1.4 4 3 7.2c1.7 3.2 3 6.3 3 6.8 0 .6 1.3 3.9 3 7.5 1.6 3.5 3 6.7 3 7 0 .2 1.3 3.4 3 7 1.6 3.5 3 6.8 3 7.3s.9 2.9 2.1 5.2c1.1 2.4 2.9 5.9 3.8 7.8l1.7 3.5h21.9l2.7-5.4c1.6-3 3.1-6.4 3.4-7.5.4-1.2 2-4.9 3.5-8.3 1.6-3.3 2.9-6.5 2.9-7.1 0-.5 1.3-3.6 3-6.8 1.6-3.2 3-6.3 3-6.7s1.4-3.7 3-7.2c1.7-3.5 3-6.9 3-7.5s.4-1.8.9-2.8c.6-.9 1.9-3.7 2.9-6.2 1.1-2.5 3.4-7.6 5.1-11.3s3.1-7.2 3.1-7.8c0-.5.4-1.7 1-2.7.5-.9 1.9-4 3-6.7 2.6-6 4.7-10.9 6.5-15 4.4-10.1 4.5-10.6 3.2-11.1-.7-.2-8-.3-16.1-.2l-14.8.3-4.3 10.5c-2.3 5.8-5.2 12.6-6.4 15.2-1.1 2.6-2.1 5.2-2.1 5.8 0 .5-.4 1.8-1 2.8-1 1.9-4 8.9-6 14.2-.7 1.9-2.1 5.3-3 7.5s-2.5 6-3.5 8.5-2.2 4.9-2.7 5.5c-1.3 1.4-4.3-2.4-6.3-8-2.1-5.9-5.2-13.3-6.5-15.7-.6-1-1-2.3-1-3s-.6-2.4-1.3-3.8-2.1-4.8-3.1-7.5c-2.3-6.2-5.3-13.4-6.6-15.7-.6-1-1-2.3-1-3-.1-.7-.9-3.1-2-5.3s-1.9-4.5-2-5.2c0-.7-.9-1.7-1.9-2.3-2.4-1.2-29.8-1.4-30.5-.1zm186.4 59.1c0 33 .3 60 .8 60 11.7.4 27.6 0 28.3-.7.5-.5 1-9.4 1.1-19.8l.3-19 13-.6c21.6-1 30.6-3.4 37.8-10.3 6.5-6.1 9.7-15.8 9.7-29.6 0-13.6-3.1-23.1-9.7-29.5-4.8-4.6-7-5.8-16.4-8.4-6.9-1.9-10.1-2.1-36.2-2.1h-28.7zm53.1-34.3c5 3.1 6.9 7 6.9 14-.1 6.4-1.2 9.1-5 12.1-5.7 4.4-20.9 6.9-23.8 4-1.7-1.7-1.7-31.4.1-32.2.6-.3 5.1-.4 9.8-.3 6.6.2 9.3.8 12 2.4zm79.9 12.3c-12.3 3.3-19 7.5-25.5 15.8-5.4 6.8-7.6 13.3-8.3 23.4-1.3 21.5 10.7 38.3 31.4 43.8 7.1 1.9 10 2.2 20.6 1.7 16.8-.7 24.3-3.5 33.9-12.7 5.2-5 9.9-12.8 9.9-16.2 0-.8.5-1.9 1.1-2.5 1.8-1.8 1.4-20.1-.6-24.8-4.8-11.6-7.6-15.6-14.5-20.6-12-8.7-32.4-12.1-48-7.9zm24 23.8c7.5 4.6 11 10.5 11 18.5 0 11-9.9 20.2-21 19.5-15.4-1.1-23.8-17.7-15.5-30.7 5.5-8.9 17.4-12.2 25.5-7.3zm244.5-25.2c-17.8 4.8-25.5 10.4-31.5 22.5-10 20.5-3.7 46.2 13.9 57.3 7.3 4.7 15.4 6.6 27.6 6.6 20.8 0 32.1-5.6 39.7-19.7 2.1-3.9 2.3-6.3.6-6.4-.7 0-6.5 0-12.8.1-10.6.1-11.7.3-14 2.4-3.9 3.7-8.5 5.6-13.4 5.6-9.4 0-19.3-9.6-18.4-17.7l.3-2.8 31-.5 31-.5-.2-6.9c-.6-16.6-11.2-32.5-24.6-36.8-1.8-.6-4.3-1.5-5.7-2.1-2.8-1.1-20.4-1.9-23.5-1.1zm16 17.5c5.4 1.5 11.7 8.1 11.3 11.8l-.3 2.6-16.4.3c-9.1.1-16.8-.1-17.3-.6-1.6-1.6 1.3-8.1 5-11 5.1-4.1 10.6-5 17.7-3.1zm100.8-15.1c-7.1.8-13.5 4.4-16.1 9.1-3 5.2-5.2 2.9-5.2-5.4v-3.7h-14c-8.7 0-14 .4-14 1v79c0 .6 5.3 1 13.9 1h13.9l.4-21.8c.5-24 1-26.3 7.8-32.7 3.1-3 3.3-3 14.3-3l11.2-.1.3-9.9c.2-5.5 0-11-.3-12.3-.6-2.4-1.2-2.5-12.2-1.2zm-316.2.9c-1 .6-.8 1.7.8 4.7 1.2 2.1 2.1 4.4 2.1 5.1 0 .6.3 1.3.8 1.5.6.2 16.6 31.4 27.1 52.8 1.3 2.5 2.7 5.3 3.2 6.3.6 1 1.9 3.6 3.1 5.8l2 3.9h18.9l3-6.8c1.7-3.7 5-10.8 7.4-15.7 2.3-5 5.4-11.6 6.9-14.8 4-8.9 4.3-8.7 14.1 12.8 2.1 4.4 5.1 10.9 6.7 14.5s3.3 7.2 3.7 8c.6 1.1 3.1 1.6 10.4 1.8l9.6.3 2.7-5.3c1.5-2.9 3.3-6.7 4.1-8.3.8-1.7 1.9-3.9 2.5-5s6.9-13.3 13.8-27c7-13.8 13.2-26 13.8-27.3.7-1.2 1.7-3.2 2.3-4.3.8-1.7.8-2.4-.3-3-1.9-1.2-24.6-1.1-26.9.2-1.1.5-3.1 3.6-4.5 6.7-3.1 7.2-10 21.7-13.9 29.6-1.6 3.4-3.6 6.1-4.4 6.1-.9 0-4.8-7.3-10-18.5-4.7-10.2-9.3-19.9-10.1-21.5-1.5-2.9-1.8-3-8.9-3.3-5.8-.2-7.7.1-9.2 1.4-1.1.9-1.9 2.2-1.9 2.7 0 .6-1.3 3.9-3 7.4-4.5 9.4-8.5 18.1-11.4 24.5-1.4 3.1-3.4 6.2-4.5 6.8-1.8.9-2.2.5-4-3.6-1.2-2.6-2.1-4.8-2.1-5s-2-4.6-4.4-9.7c-6.3-13.3-8.6-18.5-8.6-19.5 0-.4-.9-1.8-2.1-3-1.9-2.1-2.8-2.2-14.8-2.1-7 0-13.3.4-14 .8zm-266.4 18.7c-.4.4-.7 5.3-.7 11 0 8.4.3 10.3 1.6 10.8 2.4.9 40.7.7 42.2-.2.9-.6 1.2-3.6 1-11.3l-.3-10.4-21.6-.3c-11.8-.1-21.8.1-22.2.4z" fill="#e92929"/></svg>