<svg xmlns="http://www.w3.org/2000/svg" width="3684.109" height="800.001" viewBox="-1350.225 -293.2 3684.109 800.001"><radialGradient id="a" cx="-5080.898" cy="2814.838" r="400.01" gradientTransform="matrix(1.3475 0 0 -1.3475 5755.38 3711.265)" gradientUnits="userSpaceOnUse"><stop offset="0" stop-color="#fd9196"/><stop offset="1" stop-color="#f30713"/></radialGradient><path fill="url(#a)" d="M-950.231-293.2c-220.808 0-399.994 179.186-399.994 399.994s179.198 400.007 399.994 400.007c220.82 0 399.994-179.198 399.994-400.007 0-220.808-179.174-399.994-399.994-399.994z"/><path opacity=".66" d="M-948.877-267.31c-211.4 0-382.956 171.543-382.956 382.968 0 211.4 171.556 383.076 382.956 383.076 211.412 0 383.089-171.664 383.089-383.076 0-211.424-171.677-382.968-383.089-382.968zm.121 8.9c2.225 0 4.523.701 6.312 1.982 1.983 1.403 3.422 3.374 4.22 5.611v.121l.109.121 12.771 46.338c166.078 12.056 297.281 150.744 297.281 319.894 0 49.917-11.452 97.247-31.827 139.401l32.879 33.121.121.121.121.108c1.632 1.898 2.491 4.1 2.685 6.337.206 2.249-.218 4.618-1.415 6.65a10.963 10.963 0 0 1-5.03 4.57c-2.165.992-4.521 1.232-6.796.811h-.339l-45.177-11.813c-57.694 85.35-155.389 141.507-266.035 141.507-110.634 0-208.256-56.157-265.913-141.506l-45.044 11.946h-.363c-2.527.461-4.837-.048-6.784-.942a11.145 11.145 0 0 1-5.031-4.57c-1.1-1.911-1.632-4.293-1.402-6.529.218-2.249 1.052-4.427 2.696-6.338l.109-.119.121-.109 32.771-33.121c-20.412-42.202-31.827-89.545-31.827-139.522 0-169.197 131.215-307.945 297.389-319.894l12.54-46.218.109-.242v-.121a11.543 11.543 0 0 1 4.22-5.611c2.018-1.428 4.292-1.984 6.529-1.984zm0 4.668c-1.354 0-2.757.387-3.87 1.185a6.755 6.755 0 0 0-2.442 3.277l-27.861 102.991c-.714 2.007-1.017 4.426-.363 6.444.665 2.008 1.886 3.604 3.64 4.802 4.994 3.445 6.881 9.951 9.239 16.264 2.346 6.312 2.733 11.742 1.052 18.271-1.693 6.519-5.429 12.455-10.544 16.846-9.189 7.872-17.438 17.376-22.577 28.55-5.139 11.186-6.905 23.145-6.905 35.237V9.837l-143.96-83.087-15.926 27.377 159.886 92.229v33.472l-28.792 16.628-159.875-92.351-15.925 27.631 143.96 83.101-25.757 14.873c-10.472 6.021-19.819 13.593-26.917 23.629-7.11 10.049-11.367 21.947-13.58 33.822-1.246 6.627-4.426 12.843-9.251 17.559-4.801 4.716-9.747 6.953-16.397 8.064-6.626 1.102-13.108 2.951-18.598.363-1.898-.895-4.002-1.161-6.07-.714-2.068.424-4.124 1.561-5.514 3.156l-75.01 75.965c-.895 1.016-1.522 2.395-1.645 3.749-.133 1.354.146 2.562.822 3.748.677 1.173 1.681 2.236 2.927 2.806a6.656 6.656 0 0 0 3.966.472l103.233-27.39c2.08-.362 4.208-1.354 5.611-2.926 1.415-1.572 2.297-3.507 2.467-5.611.483-6.069 5.188-10.835 9.48-16.034 4.305-5.176 8.852-8.271 15.333-10.072 6.494-1.803 13.423-1.402 19.795.834 11.403 4.015 23.798 6.288 36.036 5.15 12.262-1.137 23.483-5.55 33.943-11.597l25.757-14.886V386.02h31.729V201.562l28.901-16.735 28.804 16.614V386.02h31.815V219.798l25.757 14.886c10.472 6.034 21.694 10.46 33.943 11.597 12.262 1.125 24.645-1.28 36.048-5.296 6.36-2.226 13.411-2.491 19.892-.701 6.481 1.813 10.811 4.909 15.091 10.062 4.281 5.199 9.118 9.867 9.589 15.914.181 2.104 1.052 4.038 2.467 5.623 1.415 1.584 3.422 2.89 5.502 3.275l103.342 27.052a6.72 6.72 0 0 0 3.979-.459c1.245-.568 2.237-1.524 2.914-2.697a6.46 6.46 0 0 0 .822-3.869c-.133-1.354-.641-2.721-1.536-3.761l-75.263-75.711c-1.367-1.597-3.326-2.95-5.381-3.387-2.08-.436-4.185-.218-6.083.701-5.502 2.601-11.959.871-18.599-.242-6.65-1.111-11.597-3.458-16.396-8.174-4.813-4.739-8.005-10.956-9.25-17.559-2.213-11.923-6.337-23.798-13.447-33.835-7.122-10.062-16.675-17.485-27.159-23.508l-25.624-14.873 143.96-83.101-15.914-27.498-159.874 92.338-28.805-16.614V46.489l159.887-92.24L-744.2-73.25-888.161 9.849v-29.723c0-12.104-1.874-24.053-7.001-35.237-5.151-11.174-13.422-20.678-22.601-28.55-5.115-4.391-8.839-10.327-10.533-16.846-1.681-6.518-1.185-11.959 1.161-18.271 2.37-6.3 4.002-12.83 9.021-16.264 1.729-1.209 3.096-2.793 3.736-4.802.665-2.007.713-4.438 0-6.444l-28.32-102.991c-.448-1.294-1.232-2.491-2.334-3.277-1.076-.799-2.358-1.186-3.724-1.186zm0 199.09c7.546 0 15.019 3.096 20.364 8.44 5.357 5.345 8.44 12.817 8.44 20.363v54.077l-28.804 16.615-28.901-16.736V-25.85c0-7.546 3.083-15.007 8.417-20.363 5.344-5.355 12.926-8.439 20.484-8.439zm.121 136.125l28.683 16.627v33.46l-28.683 16.627-29.022-16.748V98.196l29.022-16.723zm-89.533 51.743l28.792 16.615v33.472l-46.689 26.918c-6.542 3.772-14.583 4.765-21.899 2.817-7.304-1.972-13.761-6.93-17.546-13.458-3.773-6.53-4.764-14.584-2.805-21.889 1.959-7.328 6.796-13.677 13.35-17.438l46.797-27.037zm178.944 0l46.701 26.918c6.53 3.772 11.488 10.122 13.459 17.438 1.971 7.305.858 15.454-2.927 21.996-3.771 6.519-10.267 11.379-17.558 13.338-7.304 1.936-15.225.943-21.767-2.806l-46.822-27.038v-33.255l28.914-16.591z"/><radialGradient id="b" cx="-4371.346" cy="1683.944" r="574.681" gradientTransform="rotate(-45 -6908.361 5608.65) scale(1.6347 -1.4815)" gradientUnits="userSpaceOnUse"><stop offset=".048" stop-color="#e4ebee"/><stop offset=".272" stop-color="#f5f8f9"/><stop offset=".467" stop-color="#fff"/><stop offset=".752" stop-color="#bfc1c3"/><stop offset=".867" stop-color="#dce0e6"/><stop offset=".905" stop-color="#e2e6ed"/><stop offset="1" stop-color="#bcbec0"/></radialGradient><path fill="url(#b)" d="M-950.268-276.198c-211.412 0-382.956 171.531-382.956 382.956s171.544 383.089 382.956 383.089c211.424 0 383.064-171.664 383.064-383.089.001-211.425-171.651-382.956-383.064-382.956zm.109 8.888c2.213 0 4.522.701 6.312 1.995a11.556 11.556 0 0 1 4.208 5.623v.109l.121.133 12.758 46.338c166.078 12.044 297.292 150.744 297.292 319.869 0 49.918-11.452 97.224-31.827 139.401l32.891 33.134.109.108.121.12c1.621 1.898 2.479 4.088 2.685 6.312.23 2.262-.218 4.632-1.391 6.663a11.088 11.088 0 0 1-5.03 4.57 11.096 11.096 0 0 1-6.784.822h-.363l-45.177-11.827c-57.681 85.349-155.388 141.506-266.021 141.506-110.658 0-208.269-56.157-265.938-141.506l-45.044 11.947h-.363c-2.527.46-4.837-.048-6.784-.942-2.152-.992-3.895-2.588-5.03-4.57-1.101-1.888-1.633-4.281-1.391-6.53.193-2.237 1.052-4.426 2.685-6.336l.121-.109.121-.12 32.771-33.122c-20.424-42.189-31.839-89.544-31.839-139.521 0-169.209 131.239-307.946 297.414-319.869l12.516-46.242.109-.242v-.108c.798-2.262 2.237-4.221 4.208-5.623 2.017-1.439 4.315-1.983 6.54-1.983zm0 4.68c-1.367 0-2.757.387-3.87 1.173a6.728 6.728 0 0 0-2.442 3.276l-27.861 102.992c-.702 2.007-1.004 4.329-.351 6.336.665 2.007 1.898 3.712 3.627 4.897 5.006 3.458 6.881 9.952 9.251 16.275 2.358 6.301 2.733 11.742 1.052 18.261-1.668 6.529-5.538 12.467-10.653 16.845-9.178 7.872-17.329 17.389-22.468 28.55-5.151 11.187-6.893 23.146-6.893 35.25V.948l-143.973-83.1-15.914 27.377 159.886 92.229v33.46l-28.804 16.627-159.888-92.349-15.926 27.499 143.961 83.22-25.745 14.874c-10.472 6.034-19.928 13.593-27.039 23.63-7.123 10.035-11.246 21.936-13.458 33.835-1.246 6.602-4.438 12.816-9.251 17.558-4.813 4.704-9.734 6.941-16.385 8.054-6.639 1.112-13.132 2.963-18.61.352a9.379 9.379 0 0 0-6.095-.689c-2.068.411-4.124 1.523-5.502 3.146l-75.13 75.952c-.896 1.039-1.403 2.405-1.536 3.761-.145 1.343.145 2.562.81 3.749a6.806 6.806 0 0 0 2.927 2.709c1.245.556 2.648.798 3.99.567l103.221-27.39c2.08-.387 4.208-1.343 5.623-2.927 1.391-1.584 2.285-3.507 2.467-5.61.472-6.07 5.175-10.848 9.468-16.035 4.293-5.212 8.84-8.271 15.333-10.061 6.494-1.813 13.423-1.402 19.771.822 11.415 4.003 23.798 6.287 36.06 5.127 12.237-1.124 23.472-5.515 33.932-11.562l25.757-14.886v166.198h31.718V192.639l28.913-16.736 28.792 16.615v184.566h31.839V210.886l25.624 14.886c10.484 6.022 21.803 10.438 34.052 11.562 12.262 1.16 24.646-1.245 36.061-5.261 6.348-2.226 13.397-2.624 19.892-.811 6.469 1.813 10.811 4.97 15.103 10.182 4.269 5.188 9.106 9.868 9.578 15.914.181 2.104 1.052 4.039 2.467 5.623 1.403 1.584 3.434 2.866 5.502 3.277l103.342 27.051c1.342.241 2.757.097 3.99-.46a6.636 6.636 0 0 0 2.926-2.721c.665-1.161.931-2.491.81-3.857-.133-1.366-.641-2.721-1.523-3.749l-75.263-75.723c-1.367-1.608-3.326-2.963-5.381-3.374-2.068-.437-4.184-.229-6.095.688-5.49 2.612-11.959.884-18.598-.229-6.651-1.137-11.572-3.482-16.385-8.199-4.812-4.716-7.993-10.932-9.25-17.534-2.225-11.923-6.349-23.82-13.459-33.834-7.11-10.062-16.675-17.485-27.147-23.531l-25.745-14.874 144.07-83.208-15.926-27.391-159.875 92.351-28.804-16.627V37.565l159.886-92.217-15.914-27.51L-889.577.937v-29.735c0-12.092-1.862-24.052-7.014-35.236-5.151-11.173-13.411-20.678-22.589-28.55-5.127-4.391-8.852-10.315-10.532-16.846-1.681-6.529-1.197-11.946 1.161-18.26 2.358-6.312 4.015-12.83 9.021-16.276 1.741-1.196 3.083-2.901 3.749-4.909.665-1.995.702-4.329 0-6.312l-28.32-103.003c-.459-1.282-1.354-2.491-2.455-3.29a5.998 5.998 0 0 0-3.603-1.15zm0 199.09c7.558 0 15.006 3.083 20.364 8.429 5.356 5.357 8.428 12.818 8.428 20.375V19.33l-28.792 16.627-28.913-16.749v-53.957c0-7.559 3.083-15.006 8.428-20.363 5.357-5.357 12.927-8.428 20.485-8.428zm0 136.125l28.792 16.614v33.483l-28.671 16.604-29.021-16.726V89.32l28.9-16.735zm-89.532 51.622l28.901 16.748v33.46l-46.701 26.93c-6.542 3.772-14.572 4.74-21.888 2.806-7.316-1.959-13.785-6.917-17.558-13.459-3.785-6.528-4.776-14.596-2.817-21.875 1.959-7.328 6.796-13.785 13.35-17.559l46.713-27.051zm178.956 0l46.81 27.051c6.554 3.772 11.5 10.108 13.459 17.426 1.971 7.315.737 15.466-3.047 21.996-3.773 6.53-10.134 11.391-17.45 13.35-7.292 1.937-15.333.943-21.875-2.829l-46.713-26.918v-33.472l28.816-16.604z"/><path fill="#F30711" d="M-484.116-229.279L-336.588 221.2v220.034h145.557V221.2l139.208-450.479h-131.578l-82.664 292.734-80.294-292.734h-137.757zM424.485-229.279v670.514h121.07V6.391l69.387 434.845h91.418L775.603 6.391v434.845h123.344v-670.514h-184.87L661.341 89.684l-50.812-318.962-186.044-.001zM1460.543-229.279v670.514h134.951v-282.6h114.951v282.601h131.735v-670.514h-131.735V37.469h-114.951v-266.748h-134.951zM2033.906-229.412l-116.607 670.623h131.615l25.949-163.816h100.852l25.418 163.816h132.752L2217.24-229.412h-183.334zm92.484 147.068l34.307 242.61h-70.064l35.757-242.61zM1088.772-229.412L972.165 441.211h131.613l25.951-163.816h100.862l25.406 163.816h132.763l-116.644-670.623h-183.344zm92.484 147.068l34.318 242.61h-70.076l35.758-242.61zM53.26-229.412L-63.36 441.211H68.255l25.938-163.816h100.863l25.406 163.816h132.763L236.594-229.412H53.26zm92.471 147.068l34.33 242.61h-70.088l35.758-242.61z"/></svg>