<svg width="2500" height="588" xmlns="http://www.w3.org/2000/svg" viewBox="0 -0.22536098966569895 84.762 20.903060594657283"><path d="M69.012 6.414c.324.559.43 1.195.465 1.91l.046.953v6.664l.047.954c.094 1.558 1.243 2.71 2.813 2.808l.949.047V9.277l.047-.953c.039-.707.144-1.355.473-1.918a3.806 3.806 0 0 1 6.59.012c.324.559.425 1.207.464 1.906l.047.95v6.667l.047.954c.098 1.566 1.238 2.718 2.813 2.808l.949.047V8.324a7.62 7.62 0 0 0-7.617-7.62 7.6 7.6 0 0 0-5.715 2.581A7.61 7.61 0 0 0 65.715.703c-1.582 0-3.05.48-4.266 1.309-.742-.828-2.402-1.309-3.355-1.309V19.75l.953-.047c1.594-.105 2.746-1.226 2.808-2.808l.051-.954V9.277l.047-.953c.04-.719.14-1.351.465-1.914a3.816 3.816 0 0 1 3.297-1.898 3.81 3.81 0 0 1 3.297 1.902zM3.809 19.704l.953.046h14.285L19 18.8c-.129-1.566-1.238-2.71-2.809-2.812l-.953-.047h-8.57l11.426-11.43-.047-.949C17.973 1.98 16.817.837 15.238.75l-.953-.043L0 .703l.047.953c.125 1.551 1.25 2.719 2.808 2.809l.954.047h8.57L.953 15.942l.047.953c.094 1.57 1.227 2.707 2.809 2.808zM54.355 3.491a9.523 9.523 0 0 1 0 13.469 9.53 9.53 0 0 1-13.472 0c-3.719-3.719-3.719-9.75 0-13.469a9.518 9.518 0 0 1 6.73-2.789 9.525 9.525 0 0 1 6.742 2.79zM51.66 6.188a5.717 5.717 0 0 1 0 8.082 5.717 5.717 0 0 1-8.082 0 5.717 5.717 0 0 1 0-8.082 5.717 5.717 0 0 1 8.082 0zM27.625.702a9.518 9.518 0 0 1 6.73 2.79c3.72 3.718 3.72 9.75 0 13.468a9.53 9.53 0 0 1-13.472 0c-3.719-3.719-3.719-9.75 0-13.469a9.518 9.518 0 0 1 6.73-2.789h.012zm4.035 5.484a5.717 5.717 0 0 1 0 8.083 5.717 5.717 0 0 1-8.082 0 5.717 5.717 0 0 1 0-8.082 5.717 5.717 0 0 1 8.082 0z" fill="#2D8CFF" fill-rule="evenodd"/></svg>