<svg xmlns="http://www.w3.org/2000/svg" viewBox="0 0 500 500"><g id="freepik--Shadow--inject-2"><ellipse id="freepik--path--inject-2" cx="250" cy="416.24" rx="193.89" ry="11.32" style="fill:#f5f5f5"></ellipse></g><g id="freepik--character-3--inject-2"><path d="M370.32,150.9c2.47-8-22.8-9.82-28.89,4.55-8.53,20.13,3.91,31.45,3.91,31.45,7.25-3.89,21.43-4.47,29.18-1.9Z" style="fill:#263238"></path><polygon points="372.27 407.98 364.47 408.28 364.43 399.85 372.22 399.55 372.27 407.98" style="fill:#b55b52"></polygon><path d="M364.16,406.67H373a.72.72,0,0,1,.69.53l1.92,7a1.09,1.09,0,0,1-1.07,1.4c-3.09-.06-4.59-.24-8.47-.24-2.39,0-8.55.25-11.85.25s-3.9-3.26-2.56-3.55c6-1.33,9.42-3.15,11.27-4.89A1.78,1.78,0,0,1,364.16,406.67Z" style="fill:#407BFF"></path><polygon points="364.43 399.86 364.45 404.2 372.25 404.24 372.23 399.55 364.43 399.86" style="opacity:0.2"></polygon><path d="M346.61,243.82c-1.27,9.6,3.06,55.14,6.71,75,4.85,26.39,9.44,83.61,9.44,83.61l10.51-.63s1.27-62.73-1.95-84c-.21-27.91.29-76.79.29-76.79Z" style="fill:#263238"></path><path d="M371.37,271.43c0-7.08-5.24-12.67-6.55.85-.83,8.61,2.52,23.05,6.45,33.05C371.26,294.44,371.31,282.24,371.37,271.43Z" style="opacity:0.2"></path><polygon points="418.67 408.85 411.52 409.04 408.15 399.29 415.31 399.1 418.67 408.85" style="fill:#b55b52"></polygon><path d="M418.5,406.67h-8.82a.47.47,0,0,0-.5.53l.65,7a1.7,1.7,0,0,0,1.59,1.4c3.06-.06,4.5-.24,8.38-.24,2.39,0,5.53.25,8.83.25s2.7-3.26,1.26-3.55c-6.47-1.33-7.48-3.15-10-4.89A2.5,2.5,0,0,0,418.5,406.67Z" style="fill:#407BFF"></path><polygon points="408.16 399.3 409.89 404.32 417.19 404.53 415.32 399.1 408.16 399.3" style="opacity:0.2"></polygon><path d="M358.61,242.47s16.21,59.35,24.35,76.86c5.29,27.05,24.22,83.74,24.22,83.74l11-.76s-12-57.36-19.38-84c-4-24.75-6.61-66-18-78.34Z" style="fill:#263238"></path><path d="M342.9,199.68c-.21,5-.64,9.85-1.23,14.76s-1.31,9.77-2.26,14.64l-.37,1.83-.2,1a7.92,7.92,0,0,1-.57,1.71,5.64,5.64,0,0,1-1.73,2.18,5.18,5.18,0,0,1-3.22,1,6.31,6.31,0,0,1-2.18-.48,8.65,8.65,0,0,1-1.37-.72,18.43,18.43,0,0,1-3.41-3c-.91-1-1.74-2-2.53-3a90.31,90.31,0,0,1-8-12.67,2.15,2.15,0,0,1,3.54-2.39l0,0c3.08,3.64,6.19,7.37,9.45,10.65.8.82,1.62,1.61,2.44,2.31a11.86,11.86,0,0,0,2.24,1.63c.13.05.25.11.26.09s-.06-.07-.41-.1a2.48,2.48,0,0,0-1.51.48,2.18,2.18,0,0,0-.67.74c-.06.13,0,0,0,0l.12-.83.25-1.77c.63-4.71,1.13-9.47,1.59-14.23s.81-9.58,1.13-14.28v-.06a4.32,4.32,0,0,1,8.63.48Z" style="fill:#b55b52"></path><path d="M339.23,193c-7.42,3.63-6.26,13.25-6.26,13.25l11.87,8.36s4.34-10.45,3.44-15.46C347.35,194,344.73,190.35,339.23,193Z" style="fill:#407BFF"></path><path d="M338,201.06c1.74-2.74,4.73-2.08,8.21.1a9,9,0,0,1,2,2.48,60.08,60.08,0,0,1-3.3,11l-8.37-5.89A12.73,12.73,0,0,1,338,201.06Z" style="opacity:0.2"></path><path d="M319.93,215.9l-1.77-6.77-6,5.4s2.17,3.62,5.66,4.11Z" style="fill:#b55b52"></path><path d="M313.56,206.37l-1.22,1.21a5,5,0,0,0-.19,6.95h0l6-5.4-1.68-2.47A1.91,1.91,0,0,0,313.56,206.37Z" style="fill:#b55b52"></path><path d="M316.6,206.83a55.14,55.14,0,0,1-4.11-6.39c-.38-.76-1.61.3-1,1.41s1.74,4.73,2.94,6.05S316.6,206.83,316.6,206.83Z" style="fill:#b55b52"></path><path d="M336.48,198.49c2.11,19.32,8.41,32.79,10.13,45.33L380.75,240c-1.93-12.55-2.91-20.76-.51-44a7.32,7.32,0,0,0-7.17-8.08c-2.08,0-4.38,0-6.7.15a107.9,107.9,0,0,0-15.5,1.74c-3.6.74-7.43,1.78-10.17,2.58A5.82,5.82,0,0,0,336.48,198.49Z" style="fill:#407BFF"></path><path d="M350.87,189.79s-5.48,5.93,2.69,14a46,46,0,0,1,12.81-15.77Z" style="fill:#fff"></path><path d="M362.88,170.76c-.42,5.1-.37,14.35,3.49,17.29,0,0-8.53,4.64-13.13,12.8-6-6-2.37-11.06-2.37-11.06,5.41-2,4.81-6.07,3.4-9.83Z" style="fill:#b55b52"></path><path d="M361.94,171.77a21,21,0,0,1-1.11,8.79c-.69,1.94-3.07,3.05-5.59,3.52a13.9,13.9,0,0,0-1-4.12Z" style="opacity:0.2"></path><path d="M370.12,163.63c-1.48,8.26-1.94,11.79-6.64,15.57-7.08,5.68-16.9,2.05-17.91-6.49-.91-7.69,1.68-19.91,10.21-22.27A11.45,11.45,0,0,1,370.12,163.63Z" style="fill:#b55b52"></path><path d="M363.75,157c-2,4.42-.25,11.92,6.09,11.46-5.13,5.85-3.91,18.68-3.91,18.68a16.85,16.85,0,0,0,9.24-2s-2-12.13.11-20.64c1.72-6.92,1.47-20.35-13.53-17.43-1.75.34-13.15,3.33-14.3,9.32C347.36,156.93,359.62,160.48,363.75,157Z" style="fill:#263238"></path><path d="M372,168.32a6.1,6.1,0,0,1-2.71,3.82c-1.83,1.13-3.34-.36-3.33-2.4,0-1.84,1-4.64,3.05-4.94A2.75,2.75,0,0,1,372,168.32Z" style="fill:#b55b52"></path><path d="M374.87,201.54a9.77,9.77,0,0,0,4.2,8.8c.18-3.46.48-7.34.92-11.8C378.25,196.67,375.28,198.3,374.87,201.54Z" style="opacity:0.2"></path><path d="M381,237.93l1.88,2.88c.15.23-.1.5-.5.54l-35.8,4c-.31,0-.58-.09-.62-.28l-.66-3c0-.21.21-.42.54-.46l34.58-3.88A.62.62,0,0,1,381,237.93Z" style="fill:#263238"></path><path d="M376.83,242.32l.93-.11c.18,0,.31-.13.29-.24l-.88-3.93c0-.11-.2-.19-.39-.17l-.92.11c-.19,0-.32.13-.29.24l.88,3.92C376.47,242.26,376.65,242.34,376.83,242.32Z" style="fill:#407BFF"></path><path d="M349.26,245.41l.92-.1c.19,0,.32-.14.29-.25l-.88-3.92c0-.12-.2-.19-.38-.17l-.93.1c-.18,0-.31.13-.29.25l.88,3.92C348.9,245.35,349.07,245.43,349.26,245.41Z" style="fill:#407BFF"></path><path d="M363,243.86l.93-.1c.18,0,.31-.13.29-.25l-.88-3.92c0-.11-.2-.19-.38-.17l-.93.1c-.18,0-.31.13-.29.25l.88,3.92C362.69,243.81,362.86,243.88,363,243.86Z" style="fill:#407BFF"></path><path d="M356,164.47c-.08.68-.5,1.19-.94,1.14s-.74-.65-.66-1.32.5-1.19.95-1.14S356.11,163.8,356,164.47Z" style="fill:#263238"></path><path d="M348.37,163.57c-.08.68-.5,1.19-.94,1.14s-.74-.65-.66-1.32.5-1.19,1-1.14S348.45,162.9,348.37,163.57Z" style="fill:#263238"></path><path d="M347.91,162.31l-1.58-.66S347,163,347.91,162.31Z" style="fill:#263238"></path><path d="M350.26,165a18.23,18.23,0,0,1-2.92,4,2.91,2.91,0,0,0,2.36.73Z" style="fill:#a02724"></path><path d="M351.6,172.12a.21.21,0,0,1-.09-.2.2.2,0,0,1,.23-.17,5.39,5.39,0,0,0,4.67-1.43.2.2,0,0,1,.3.27,5.72,5.72,0,0,1-5,1.56Z" style="fill:#263238"></path><path d="M359.67,160.91a.32.32,0,0,1-.14-.14,3.21,3.21,0,0,0-2.4-1.63.4.4,0,1,1,0-.8,4,4,0,0,1,3.05,2,.4.4,0,0,1-.14.55A.43.43,0,0,1,359.67,160.91Z" style="fill:#263238"></path><path d="M346.35,159.59l-.06-.05a.39.39,0,0,1,0-.56,4,4,0,0,1,3.35-1.47.4.4,0,0,1-.1.8,3.14,3.14,0,0,0-2.64,1.19A.41.41,0,0,1,346.35,159.59Z" style="fill:#263238"></path><path d="M379.85,193.19c2.94,3,5.73,6,8.45,9.17,1.36,1.58,2.73,3.17,4,4.85a55.92,55.92,0,0,1,3.83,5.42,16.65,16.65,0,0,1,1,1.82,8.64,8.64,0,0,1,.5,1.5,5.6,5.6,0,0,1,.1.63l0,.39a4.68,4.68,0,0,1,0,.52l0,.27,0,.12v0l0,.1-.05.2c-.26,1.08-.45,2.17-.79,3.23a38.51,38.51,0,0,1-2.35,6.29,29.47,29.47,0,0,1-3.65,5.76,21.14,21.14,0,0,1-2.42,2.5c-.44.39-.89.76-1.38,1.12-.24.17-.5.34-.76.5s-.5.3-.92.52l-2.17-3.69c0-.05.22-.23.33-.37l.42-.47c.28-.33.55-.68.81-1a23.17,23.17,0,0,0,1.41-2.3,30.78,30.78,0,0,0,2.12-5c.25-.9.53-1.77.72-2.7s.4-1.82.55-2.74.26-1.87.4-2.8l0-.18,0-.08v0l0,.18c0,.11,0,.26,0,.33a1.21,1.21,0,0,0,0,.19l0,.25c0,.2,0,.14,0,.06s-.32-.52-.55-.85c-1-1.37-2.26-2.92-3.54-4.39s-2.62-3-4-4.47l-8.25-8.86Z" style="fill:#b55b52"></path><path d="M387.57,236.76l-6,5.57L377.68,236s3.74-2.69,7.1-1.68Z" style="fill:#b55b52"></path><path d="M377,243.5l-2-2.09a2.1,2.1,0,0,1,.06-2.95l2.56-2.51,3.88,6.38-1.67,1.37A2.11,2.11,0,0,1,377,243.5Z" style="fill:#b55b52"></path><path d="M366.32,192.91c-.46,3.57,9.05,14,9.05,14l8.9-11.14s-4.15-5.82-7.32-7.14C371.86,186.48,366.84,188.84,366.32,192.91Z" style="fill:#407BFF"></path><path d="M355.57,163.21l-1.58-.66S354.68,163.92,355.57,163.21Z" style="fill:#263238"></path></g><g id="freepik--character-1--inject-2"><path d="M128.62,156.21c-3.69,4.09-8.28,16.35,5.94,13.89S128.62,156.21,128.62,156.21Z" style="fill:#263238"></path><path d="M133.15,144.94c.87-5.44-9.08-17.93-13-10.22C115.34,144,133.15,144.94,133.15,144.94Z" style="fill:#263238"></path><path d="M133.18,148.24c4.51-3.16,6.53-19-1.76-16.46C121.43,134.83,133.18,148.24,133.18,148.24Z" style="fill:#263238"></path><path d="M156,196.76c-.09.84-.17,1.89-.24,2.85s-.11,2-.14,3c0,2-.12,4-.06,5.95a85.53,85.53,0,0,0,1.07,11.79c.14,1,.36,1.92.54,2.88l.06.33a1,1,0,0,0,0,.11s0,0,0,.09.48.33,1.16.4a10.2,10.2,0,0,0,2.39,0,50.43,50.43,0,0,0,11.2-3.17l1.94,3.45c-.93.67-1.82,1.23-2.76,1.79s-1.87,1.1-2.86,1.58a32.06,32.06,0,0,1-6.33,2.47,16.41,16.41,0,0,1-3.8.55,8.91,8.91,0,0,1-4.78-1.23,7,7,0,0,1-2.17-2.12,7.13,7.13,0,0,1-.67-1.28,6.34,6.34,0,0,1-.24-.64l-.1-.32-.05-.2c-.27-1.06-.59-2.13-.82-3.2a73.07,73.07,0,0,1-1.71-13c-.11-2.17-.15-4.33-.07-6.5,0-1.09.09-2.17.17-3.26s.18-2.13.34-3.35Z" style="fill:#ffb573"></path><path d="M155,187.33c3,1.36,3,14.81,3,14.81l-13.58,6.16s-2.32-16.35.73-19.42S150.61,185.35,155,187.33Z" style="fill:#263238"></path><polygon points="154.25 190.2 156.29 202.95 148.92 206.28 154.25 190.2" style="opacity:0.2"></polygon><path d="M170.24,222.67l5.67-6.21,1.78,6.84s-3.63,3.47-6.72,2.47Z" style="fill:#ffb573"></path><path d="M179.56,216.26l.84,3.39a1.58,1.58,0,0,1-.44,1.5l-2.27,2.15-1.78-6.84,1.1-1A1.55,1.55,0,0,1,179.56,216.26Z" style="fill:#ffb573"></path><path d="M156.71,190.43c-.38,4.57-2.67,15.71-12,42.71l-31.3-5.41c2.59-12,3.95-19.66,2.75-43.58a3.94,3.94,0,0,1,4-4.15,87.63,87.63,0,0,1,9.39.59A102.2,102.2,0,0,1,143.76,183c3.82,1,7.91,2.46,10.38,3.36A3.93,3.93,0,0,1,156.71,190.43Z" style="fill:#263238"></path><path d="M116.75,190.84c2.71,1.2,4.8,4.74,3.5,10.38a13.92,13.92,0,0,1-3.85,6.72c.26-4.47.3-9.7.09-16.44Z" style="opacity:0.2"></path><path d="M133.71,164.83c.11,4.73-.44,13.26-4.17,15.76,0,0,2.71,3.39,10.28,9.23,7.22-4,3.94-6.78,3.94-6.78-4.89-2.09-4.11-5.85-2.61-9.25Z" style="fill:#ffb573"></path><path d="M136.75,168.49l4.4,5.29a14.65,14.65,0,0,0-.87,2.45c-1.9-.62-4.68-2.81-4.73-5C135.52,170.2,136.5,168.93,136.75,168.49Z" style="opacity:0.2"></path><path d="M130,156.12c.43,7.75.44,11,4.33,15,5.85,6,15.27,3.8,17.17-3.92,1.71-7,.72-18.46-6.84-21.59A10.59,10.59,0,0,0,130,156.12Z" style="fill:#ffb573"></path><path d="M129.93,161.31c3.34.17,7.17-6.27,5.62-9.18,1.75-.39,9.21.45,9.18-2.3,3.37,2.35,10.77,2.47,12-.72s-1.57-6.16-5.21-5c-2.63-6.78-15.28-8.18-20-1.74C125.54,142.22,112.55,152,129.93,161.31Z" style="fill:#263238"></path><path d="M143.4,158.26c0,.63.32,1.14.74,1.14s.74-.5.75-1.13-.33-1.15-.74-1.15S143.4,157.63,143.4,158.26Z" style="fill:#263238"></path><path d="M150.52,158.3c0,.63.33,1.14.74,1.15s.75-.51.76-1.14-.33-1.14-.74-1.15S150.53,157.67,150.52,158.3Z" style="fill:#263238"></path><path d="M151.1,157.2l1.51-.43S151.83,158,151.1,157.2Z" style="fill:#263238"></path><path d="M148.32,159.42a16.65,16.65,0,0,0,2.22,4,2.72,2.72,0,0,1-2.25.41Z" style="fill:#ed893e"></path><path d="M144.62,166.32a5.49,5.49,0,0,0,.93.07.18.18,0,0,0,.19-.18.2.2,0,0,0-.19-.19,5,5,0,0,1-4.06-2,.18.18,0,0,0-.26-.06.19.19,0,0,0,0,.26A5.21,5.21,0,0,0,144.62,166.32Z" style="fill:#263238"></path><path d="M143.57,167.38a5.83,5.83,0,0,0,.83.41.18.18,0,0,0,.24-.1.18.18,0,0,0-.1-.24,5,5,0,0,1-3-3.35.18.18,0,0,0-.22-.14.19.19,0,0,0-.15.21A5.21,5.21,0,0,0,143.57,167.38Z" style="fill:#263238"></path><path d="M127.63,162.16a5.73,5.73,0,0,0,2.72,3.37c1.75.94,3.06-.53,2.94-2.41-.11-1.69-1.16-4.22-3.1-4.38A2.55,2.55,0,0,0,127.63,162.16Z" style="fill:#ffb573"></path><path d="M140.16,154.74a.37.37,0,0,0,.43-.08c1.21-1.21,3.39-.86,3.41-.86a.38.38,0,0,0,.43-.3.37.37,0,0,0-.31-.43c-.1,0-2.58-.41-4.05,1.07a.37.37,0,0,0,0,.53Z" style="fill:#263238"></path><path d="M152.93,154.88a.38.38,0,0,0,.34-.13.37.37,0,0,0-.05-.52,3.69,3.69,0,0,0-3.28-.81.37.37,0,0,0-.24.46.36.36,0,0,0,.46.25,2.91,2.91,0,0,1,2.59.67A.37.37,0,0,0,152.93,154.88Z" style="fill:#263238"></path><polygon points="141.72 406.36 149.54 406.36 149.04 388.25 141.22 388.25 141.72 406.36" style="fill:#ffb573"></polygon><path d="M150,405.45h-8.79a.57.57,0,0,0-.59.54l-.65,6.95a1.34,1.34,0,0,0,1.33,1.39c3.06-.05,4.52-.23,8.39-.23,2.37,0,7.3.24,10.58.24s3.3-3.24,1.91-3.54c-6.19-1.32-8.7-3.13-10.85-4.87A2.15,2.15,0,0,0,150,405.45Z" style="fill:#263238"></path><g style="opacity:0.2"><polygon points="149.04 388.25 149.3 397.59 141.48 397.59 141.22 388.25 149.04 388.25"></polygon></g><path d="M144.73,233.14s4.88,48.83,6.4,72.65c1.58,24.77-.49,90-.49,90H140.07s-6.53-73.48-6.53-88.14c-4.16-26.57-15.63-54.09-11.73-78.46Z" style="fill:#407BFF"></path><path d="M144.73,233.14s4.88,48.83,6.4,72.65c1.58,24.77-.49,90-.49,90H140.07s-6.53-73.48-6.53-88.14c-4.16-26.57-15.63-54.09-11.73-78.46Z" style="fill:#fff;opacity:0.6000000000000001"></path><path d="M128.12,252.47a11.07,11.07,0,0,0-5.67,3.65c1.61,10.13,4.33,20.52,6.83,30.92C131.07,275.74,130,256.7,128.12,252.47Z" style="fill:#407BFF;opacity:0.2"></path><polygon points="139.15 396.16 151.56 396.16 152.47 392.2 138.57 391.72 139.15 396.16" style="fill:#263238"></polygon><path d="M153,406.82a3,3,0,0,0,1.9-.48,1,1,0,0,0,.33-.9.61.61,0,0,0-.31-.5c-1-.52-4.08,1.07-4.43,1.25a.17.17,0,0,0-.09.19.19.19,0,0,0,.14.16A13.55,13.55,0,0,0,153,406.82Zm1.4-1.62a.66.66,0,0,1,.34.07.22.22,0,0,1,.13.2.66.66,0,0,1-.22.59c-.47.43-1.76.5-3.49.22A10,10,0,0,1,154.37,405.2Z" style="fill:#407BFF"></path><path d="M150.55,406.54h.07c.94-.42,2.78-2.11,2.64-3,0-.21-.19-.47-.7-.52a1.36,1.36,0,0,0-1,.32c-1,.82-1.16,2.92-1.17,3a.21.21,0,0,0,.08.17A.2.2,0,0,0,150.55,406.54Zm1.86-3.17h.11c.34,0,.36.17.37.21.09.54-1.16,1.86-2.11,2.44a4.32,4.32,0,0,1,1-2.42A1,1,0,0,1,152.41,403.37Z" style="fill:#407BFF"></path><polygon points="76.91 394.08 84.14 397.06 91.53 380.52 84.31 377.54 76.91 394.08" style="fill:#ffb573"></polygon><path d="M84.71,397l-7.64-4.34a.61.61,0,0,0-.8.16L72,398.33a1.26,1.26,0,0,0,.41,1.83c2.69,1.46,4.06,2,7.42,3.94,2.06,1.18,6.22,3.82,9.07,5.44s4.61-1.11,3.57-2c-4.68-4.18-5.88-6.95-6.82-9.47A2,2,0,0,0,84.71,397Z" style="fill:#263238"></path><g style="opacity:0.2"><polygon points="91.53 380.53 87.72 389.05 80.49 386.07 84.3 377.54 91.53 380.53"></polygon></g><path d="M135.94,231.62S123.16,287.74,121,311.5C115.57,333.57,90,388,90,388l-9.78-4s15.33-58.15,23.75-74.17c.8-26.56.66-58.56,9.1-82.15Z" style="fill:#407BFF"></path><path d="M135.94,231.62S123.16,287.74,121,311.5C115.57,333.57,90,388,90,388l-9.78-4s15.33-58.15,23.75-74.17c.8-26.56.66-58.56,9.1-82.15Z" style="fill:#fff;opacity:0.6000000000000001"></path><polygon points="79.18 383.98 90.65 388.71 93 385.4 80.34 379.65 79.18 383.98" style="fill:#263238"></polygon><path d="M86.59,399.6a3,3,0,0,0,1.89.52,1,1,0,0,0,.73-.62.6.6,0,0,0,0-.58c-.57-.94-4.07-1.09-4.46-1.1a.17.17,0,0,0-.18.11.18.18,0,0,0,0,.21A13.65,13.65,0,0,0,86.59,399.6Zm2-.72a.79.79,0,0,1,.27.23.23.23,0,0,1,0,.24.68.68,0,0,1-.47.41c-.63.13-1.78-.44-3.15-1.54A10.16,10.16,0,0,1,88.6,398.88Z" style="fill:#407BFF"></path><path d="M84.62,398.16s0,0,.07,0c1,.09,3.46-.47,3.77-1.31.07-.2.07-.5-.35-.8a1.33,1.33,0,0,0-1-.22c-1.26.22-2.45,2-2.5,2a.17.17,0,0,0,0,.18A.16.16,0,0,0,84.62,398.16Zm3.18-1.83a.27.27,0,0,1,.1.06c.27.19.23.32.21.36-.19.51-1.93,1-3,1.08a4.28,4.28,0,0,1,2.06-1.61A1,1,0,0,1,87.8,396.33Z" style="fill:#407BFF"></path><path d="M144,157.15l1.51-.42S144.7,157.9,144,157.15Z" style="fill:#263238"></path><path d="M113.28,225.82,112,228.48c-.15.2.07.46.43.53l32.21,5.56c.28.05.54,0,.59-.23l.77-2.75c.05-.19-.17-.4-.48-.45l-31.69-5.47A.58.58,0,0,0,113.28,225.82Z" style="fill:#263238"></path><path d="M117,230.11l-.85-.14c-.17,0-.28-.14-.25-.25l1-3.57c0-.1.19-.16.36-.13l.85.14c.17,0,.28.14.25.25l-1,3.57C117.36,230.08,117.2,230.14,117,230.11Z" style="fill:#407BFF"></path><g style="opacity:0.6000000000000001"><path d="M117,230.11l-.85-.14c-.17,0-.28-.14-.25-.25l1-3.57c0-.1.19-.16.36-.13l.85.14c.17,0,.28.14.25.25l-1,3.57C117.36,230.08,117.2,230.14,117,230.11Z" style="fill:#fff"></path></g><path d="M142.2,234.46l-.84-.15c-.17,0-.29-.14-.26-.24l1-3.57c0-.11.19-.17.36-.14l.85.15c.17,0,.28.14.25.24l-1,3.57C142.54,234.43,142.37,234.49,142.2,234.46Z" style="fill:#407BFF"></path><g style="opacity:0.6000000000000001"><path d="M142.2,234.46l-.84-.15c-.17,0-.29-.14-.26-.24l1-3.57c0-.11.19-.17.36-.14l.85.15c.17,0,.28.14.25.24l-1,3.57C142.54,234.43,142.37,234.49,142.2,234.46Z" style="fill:#fff"></path></g><path d="M129.67,232.3l-.85-.15c-.17,0-.28-.14-.25-.24l1-3.58c0-.1.19-.16.36-.13l.85.14c.16,0,.28.14.25.25l-1,3.57C130,232.26,129.84,232.32,129.67,232.3Z" style="fill:#407BFF"></path><g style="opacity:0.6000000000000001"><path d="M129.67,232.3l-.85-.15c-.17,0-.28-.14-.25-.24l1-3.58c0-.1.19-.16.36-.13l.85.14c.16,0,.28.14.25.25l-1,3.57C130,232.26,129.84,232.32,129.67,232.3Z" style="fill:#fff"></path></g><path d="M109.86,231.92l5.86,6.08-7.93.53s-2.71-4.23-1.13-7.07Z" style="fill:#ffb573"></path><path d="M118.26,190.58c-2.26,3.6-4.6,7.18-6.94,10.73s-4.73,7.15-6.87,10.59l-.34.54s0,.06-.08.13a2.66,2.66,0,0,0-.15.71,9.42,9.42,0,0,0,.11,2.37,34.71,34.71,0,0,0,1.48,5.62c.64,1.92,1.39,3.85,2.22,5.76s1.69,3.85,2.56,5.72l-3.36,2.1a70.16,70.16,0,0,1-7-11.26A35.4,35.4,0,0,1,97.39,217a16.25,16.25,0,0,1-.54-4,10.14,10.14,0,0,1,.31-2.45,9,9,0,0,1,.5-1.36l.24-.48.2-.39c1.06-2,2.12-3.86,3.22-5.74s2.2-3.7,3.32-5.53c2.24-3.67,4.52-7.28,6.91-10.85Z" style="fill:#ffb573"></path><path d="M120.38,180.18c-7.68-1.32-13.45,10.53-13.45,10.53l9,11.08s5.77-6.45,7.05-10.58C124.34,186.91,124.12,180.83,120.38,180.18Z" style="fill:#263238"></path><polygon points="116.4 244.54 109.73 244.62 107.79 238.53 115.72 238 116.4 244.54" style="fill:#ffb573"></polygon></g><g id="freepik--bubble-speech--inject-2"><path d="M380.12,101.67A19.3,19.3,0,0,1,399.4,121V267.84a19.3,19.3,0,0,1-19.28,19.28h-48.9a15,15,0,0,0-15,15v14.22l-29.91-25.62a15,15,0,0,0-9.76-3.6H119.88a19.3,19.3,0,0,1-19.28-19.28V121a19.3,19.3,0,0,1,19.28-19.28H380.12m0-15H119.88A34.38,34.38,0,0,0,85.6,121V267.84a34.38,34.38,0,0,0,34.28,34.28H276.55l54.67,46.82V302.12h48.9a34.38,34.38,0,0,0,34.28-34.28V121a34.38,34.38,0,0,0-34.28-34.28Z" style="fill:#407BFF"></path></g><g id="freepik--character-2--inject-2"><path d="M238.86,409.34c.92,0,1.79-.12,2.07-.53a.64.64,0,0,0,0-.74.87.87,0,0,0-.55-.39c-1.19-.32-3.62,1.09-3.73,1.15a.16.16,0,0,0-.07.18.16.16,0,0,0,.14.13A11.55,11.55,0,0,0,238.86,409.34Zm1.08-1.37a1.69,1.69,0,0,1,.33,0,.55.55,0,0,1,.33.24c.13.21.09.31.05.37-.31.46-2.11.47-3.44.29A7.37,7.37,0,0,1,239.94,408Z" style="fill:#407BFF"></path><path d="M236.71,409.15l.07,0c.84-.38,2.48-1.92,2.32-2.72,0-.19-.18-.43-.64-.47a1.21,1.21,0,0,0-.93.28c-.87.75-1,2.66-1,2.74a.21.21,0,0,0,.08.16A.17.17,0,0,0,236.71,409.15Zm1.62-2.88h.11c.3,0,.32.15.33.19.1.48-1,1.69-1.87,2.22a3.75,3.75,0,0,1,.86-2.19A.83.83,0,0,1,238.33,406.27Z" style="fill:#407BFF"></path><polygon points="228.88 408.98 235.99 408.98 236.08 392.52 228.97 392.52 228.88 408.98" style="fill:#ce7a63"></polygon><path d="M235.92,408.16h-7.77a.58.58,0,0,0-.58.48L226.4,415a1.08,1.08,0,0,0,1.07,1.27c2.8-.05,6.84-.22,10.36-.22,4.11,0,4.62.23,9.45.23,2.92,0,3.61-2.95,2.38-3.22-5.6-1.22-7.09-1.35-12-4.31A3.43,3.43,0,0,0,235.92,408.16Z" style="fill:#263238"></path><polygon points="236.08 392.52 236.04 401.01 228.92 401.01 228.97 392.52 236.08 392.52" style="opacity:0.2"></polygon><path d="M181.82,406.89a3,3,0,0,0-.65-2.09.63.63,0,0,0-.74,0,.76.76,0,0,0-.36.53c-.26,1.18,1.29,3.67,1.36,3.78a.18.18,0,0,0,.18.08.15.15,0,0,0,.13-.13A13.61,13.61,0,0,0,181.82,406.89Zm-1.44-1.14a1.13,1.13,0,0,1,0-.32.46.46,0,0,1,.21-.33c.21-.12.31-.07.37,0,.48.33.59,2.13.48,3.45A7.85,7.85,0,0,1,180.38,405.75Z" style="fill:#407BFF"></path><path d="M181.74,409a.14.14,0,0,0,0-.07c-.43-.86-2.06-2.57-2.86-2.45-.19,0-.42.16-.44.63a1.33,1.33,0,0,0,.34.93,5.12,5.12,0,0,0,2.8,1.12.15.15,0,0,0,.15-.07A.14.14,0,0,0,181.74,409Zm-3-1.76v-.1c0-.3.13-.32.17-.32.48-.08,1.75,1.08,2.33,2a4.15,4.15,0,0,1-2.25-.95A1,1,0,0,1,178.76,407.28Z" style="fill:#407BFF"></path><polygon points="181.63 409.08 188.6 409.57 191.47 392.98 184.51 392.49 181.63 409.08" style="fill:#ce7a63"></polygon><path d="M181.56,407.49l7.69-.68a.65.65,0,0,1,.67.43l2.34,6.17a1,1,0,0,1-.82,1.35c-2.78.2-6.82.39-10.31.7-4.07.36-1.42.35-6.2.78-2.89.26-4.13-2.61-3-3,5.32-1.7,6.23-2.87,8-5.06A2.27,2.27,0,0,1,181.56,407.49Z" style="fill:#263238"></path><polygon points="191.47 392.99 189.99 401.54 183.02 401.05 184.5 392.49 191.47 392.99" style="opacity:0.2"></polygon><path d="M238.64,228.15s-13,54.61-17.92,74.88C215.29,325.22,194,398.86,194,398.86l-12.7-2.75s13.8-63.27,19.23-94.23c4.17-23.77,13.59-73.73,13.59-73.73Z" style="fill:#263238"></path><path d="M196,395s-.94,4.89-.94,4.89l-15.17-1.62-.21-4.48Z" style="fill:#407BFF"></path><path d="M231.15,253.46c-9,1.19-10.63,32.73-10.84,51.23l.41-1.67c2.7-11.06,7.79-32.39,11.87-49.46A3.27,3.27,0,0,0,231.15,253.46Z" style="opacity:0.30000000000000004"></path><path d="M252.13,228.15s-3.47,53.18-5,74.83c-1.61,22.52-8,96.38-8,96.38H227s-1.27-72.51-1.62-94.66c-.39-24.14,1.74-76.55,1.74-76.55Z" style="fill:#263238"></path><path d="M240.76,394.57c.05,0-.49,5-.49,5H225.62l-.57-4.47Z" style="fill:#407BFF"></path><path d="M218.5,177c-1.94,3.93-3.91,8.06-5.73,12.12s-3.61,8.17-5,12.27l-.54,1.53-.48,1.52-.22.69a2.28,2.28,0,0,0,0-.49,2.66,2.66,0,0,0-.9-1.74c-.39-.26-.4-.15-.25-.07a4.12,4.12,0,0,0,.87.29,19.06,19.06,0,0,0,2.72.37,108.6,108.6,0,0,0,13.12-.39h.12a2.69,2.69,0,0,1,1.15,5.2,56.23,56.23,0,0,1-14.16,3.66A22.7,22.7,0,0,1,205,212a13.61,13.61,0,0,1-2.5-.44,8.19,8.19,0,0,1-3.26-1.7,6.84,6.84,0,0,1-1.65-2.1,7.2,7.2,0,0,1-.72-2.66,8.3,8.3,0,0,1,.17-2.2l.22-1,.42-1.81.48-1.77a120.7,120.7,0,0,1,4.75-13.53c1.84-4.38,3.79-8.59,6.06-12.85a5.39,5.39,0,0,1,9.59,4.92Z" style="fill:#cf7a64"></path><path d="M222.29,203.37l4.42-1.74-.22,8.22a10.42,10.42,0,0,1-5-1.69,2.21,2.21,0,0,1-.83-2.39l.25-.9A2.23,2.23,0,0,1,222.29,203.37Z" style="fill:#ce7a63"></path><polygon points="233.99 200.7 232.4 207.82 226.49 209.84 226.71 201.63 233.99 200.7" style="fill:#ce7a63"></polygon><path d="M242.22,140.22c.12.56.51.95.87.88s.58-.59.46-1.15-.5-1-.87-.89S242.11,139.65,242.22,140.22Z" style="fill:#263238"></path><path d="M242.67,141.18a20.28,20.28,0,0,0,3.67,4.26,3.32,3.32,0,0,1-2.59,1.05Z" style="fill:#ba4d3c"></path><path d="M239.53,137.51a.35.35,0,0,1-.23-.09.33.33,0,0,1,0-.47,3.36,3.36,0,0,1,2.87-1.12.34.34,0,0,1,.27.39.33.33,0,0,1-.38.28h0a2.64,2.64,0,0,0-2.26.91A.35.35,0,0,1,239.53,137.51Z" style="fill:#263238"></path><path d="M226.62,150.44c1,5.2,1.63,12.41-2,15.88,0,0,1.43,5.27,11.09,5.27,10.62,0,5.11-4.63,5.11-4.63-4.42-1.37-4.38-6.4-3.37-10.44Z" style="fill:#ce7a63"></path><path d="M211.89,166.34c-6.67,1.53-11.06,19.51-11.06,19.51L212,194.21a21.24,21.24,0,0,0,8.26-12.27C222.5,173,218.7,164.78,211.89,166.34Z" style="fill:#407BFF"></path><path d="M217.6,178.85a23.08,23.08,0,0,0-6.24,14.9l.59.46a21.29,21.29,0,0,0,8.26-12.27c.13-.53.25-1.07.35-1.59Z" style="opacity:0.2"></path><path d="M254,173.47c1.44,7.61,3.61,25.67-.45,56.37a1.19,1.19,0,0,1-1,1,40.15,40.15,0,0,1-10.48-.14c-7-1-12.81-.57-19.6,0a71.4,71.4,0,0,1-9,.13,1.17,1.17,0,0,1-1.1-1.32c1.05-7.9,4.86-37.27-.43-63.14a99.79,99.79,0,0,1,12.72-1.6,138.36,138.36,0,0,1,16.17,0c1.78.16,3.53.42,5.09.69A10.08,10.08,0,0,1,254,173.47Z" style="fill:#407BFF"></path><path d="M223.24,142.83c1.82,6.82,2.55,10.9,6.75,13.73,6.33,4.27,14.2-.63,14.45-7.85.22-6.5-2.8-16.55-10.11-17.93A9.62,9.62,0,0,0,223.24,142.83Z" style="fill:#ce7a63"></path><path d="M239.19,144.92c2.13,4.7,1.46,9-1.19,11-3,2.28-11.41,2.63-14.6-.6,1.21-1.21,1.88-2.72.33-4.87s-7.24-5.49-7.35-10.08,2.93-5.11,2.75-5.11c-2.69-1.2-2.52-5.52.44-7.9,3.14-2.53,8.24-3.23,14.31-2,3.83.76,7.59.69,6.93-1.73,4.51,2.59,2.27,12.18-2.09,13.44.69,1.73,3.71,4.48,3.71,4.48S241.69,144.41,239.19,144.92Z" style="fill:#263238"></path><path d="M219.57,134.33s-1.64,1-5.95-.26c1.16,2.15,5.47,2.23,6.51,1.74S219.57,134.33,219.57,134.33Z" style="fill:#263238"></path><path d="M236.45,143.2a7.47,7.47,0,0,0,2.6,4.07c1.71,1.35,3,.11,3-1.87-.07-1.78-1-4.62-2.94-5.2S236,141.26,236.45,143.2Z" style="fill:#ce7a63"></path><path d="M254.27,172.43c.89,2.07,1.73,4.16,2.59,6.24s1.7,4.17,2.53,6.26l4.94,12.49c.83,2.06,1.66,4.11,2.5,6.08l.64,1.42.16.35,0,.08v0h0s0,0-.06-.1a5,5,0,0,0-.49-.71,4.56,4.56,0,0,0-1.31-1,4,4,0,0,0-1.16-.43,4.29,4.29,0,0,0-.76-.1,3.62,3.62,0,0,0-.47,0,2.18,2.18,0,0,0-.46.08.75.75,0,0,0-.24.09,3.09,3.09,0,0,0,.86-.3c.4-.18.85-.4,1.29-.64,1.82-1,3.74-2.09,5.65-3.2s3.89-2.23,5.87-3.29l.06,0a2.71,2.71,0,0,1,3.36,4.13,69.75,69.75,0,0,1-10,9.9c-.49.38-1,.76-1.57,1.15a12.72,12.72,0,0,1-2.16,1.22,7,7,0,0,1-1,.34,5.16,5.16,0,0,1-.87.15,5.3,5.3,0,0,1-.69,0,4.94,4.94,0,0,1-1-.12,5.32,5.32,0,0,1-1.35-.5,5,5,0,0,1-1.47-1.19,6,6,0,0,1-.56-.79l-.09-.17-.06-.1-.22-.41c-.31-.55-.57-1.07-.86-1.61-1.09-2.1-2.08-4.17-3-6.25-1.93-4.15-3.74-8.29-5.51-12.45q-1.32-3.12-2.6-6.26c-.85-2.09-1.7-4.18-2.51-6.28a5.39,5.39,0,0,1,10-4.07Z" style="fill:#cf7a64"></path><path d="M280.37,191.61a11.19,11.19,0,0,0-5.24,6.79l2.47,3.17,5.4-1.67a2,2,0,0,0,1.05-.78l2.77-4.09a2.38,2.38,0,0,0-.18-2.55l-2.93-3.94Z" style="fill:#ce7a63"></path><path d="M239.59,177.42c.62,7.93,9.35,18.29,9.35,18.29l12.31-9.23s-1.87-11.15-8.25-17.2C245.11,161.81,239,170,239.59,177.42Z" style="fill:#407BFF"></path><path d="M242.58,164.74c-1.14-3.34-14.25-3.92-22.15-3.12s-3.92,6.95-2.59,7.81c-3.58,1.33-1.67,7.65,5,10.75S244,168.77,242.58,164.74Z" style="fill:#263238"></path></g></svg>