<?xml version="1.0" encoding="UTF-8"?><svg id="Layer_1" xmlns="http://www.w3.org/2000/svg" viewBox="0 0 1920 523"><defs><style>.cls-1{fill:#fff;}</style></defs><g><path class="cls-1" d="M134.51,129.94c28.63,0,54.6,7.95,75.81,22.79,11.67,7.95,14.31,23.33,6.36,36.58-7.42,12.19-25.98,12.73-37.64,5.83-12.73-7.42-28.63-12.19-44.53-12.19-41.35,0-77.93,30.22-77.93,76.34s36.58,75.81,77.93,75.81c15.91,0,31.81-4.77,44.53-12.19,11.66-6.89,30.22-6.36,37.64,5.83,7.95,13.25,5.3,28.63-6.36,36.58-21.21,14.84-47.18,22.8-75.81,22.8C63.47,388.12,2.5,337.76,2.5,259.29S63.47,129.94,134.51,129.94Z"/><path class="cls-1" d="M261.22,258.23c0-78.46,58.85-128.3,128.83-128.3s129.88,49.83,129.88,128.3-59.37,129.89-129.88,129.89-128.83-51.43-128.83-129.89Zm204.64,0c0-45.59-34.46-75.28-75.81-75.28s-74.75,29.69-74.75,75.28,33.93,76.87,74.75,76.87,75.81-30.22,75.81-76.87Z"/><path class="cls-1" d="M633.91,293.75v64.15c0,14.84-12.19,27.57-28.1,27.57-14.84,0-26.51-12.72-26.51-27.57V160.15c0-14.84,11.67-27.57,26.51-27.57,15.91,0,28.1,12.72,28.1,27.57v31.81c12.73-44,37.11-62.03,67.86-62.03,7.95,0,15.91,.53,23.33,2.12,13.79,3.18,22.8,16.97,19.62,31.28-4.77,23.86-28.63,18.03-44.53,18.03-46.65,0-66.27,46.65-66.27,112.39Z"/><path class="cls-1" d="M788.19,302.24c13.25-5.3,23.33,1.59,27.57,10.6,10.08,19.09,29.16,29.69,53.55,29.69s42.94-11.13,42.94-29.69c0-15.9-15.38-22.79-33.4-27.03l-33.4-7.95c-52.48-14.32-71.57-42.94-68.39-82.7,3.18-36.58,42.94-65.21,88.53-65.21,32.87,0,63.09,10.6,79.53,36.58,7.42,12.72,3.71,25.44-4.77,31.81-9.01,7.42-20.15,6.89-31.81-3.18-13.78-12.19-29.69-16.97-42.41-16.97-13.79,0-29.16,4.77-34.46,13.25-4.24,6.89-4.77,13.78-2.12,21.21,3.18,9.54,18.02,14.31,31.28,18.02l38.17,9.54c53.54,13.25,64.68,48.24,64.68,73.16,0,47.71-41.88,74.75-98.61,74.75-38.17,0-76.87-20.15-90.13-56.2-4.24-13.25,1.59-25.44,13.25-29.68Z"/><path class="cls-1" d="M1006.61,258.23c0-78.46,58.85-128.3,128.83-128.3s129.88,49.83,129.88,128.3-59.37,129.89-129.88,129.89-128.83-51.43-128.83-129.89Zm204.64,0c0-45.59-34.46-75.28-75.81-75.28s-74.75,29.69-74.75,75.28,33.93,76.87,74.75,76.87,75.81-30.22,75.81-76.87Z"/></g><path class="cls-1" d="M1658.37,520.7c-33.98,0-65.93-13.23-89.96-37.26l-221.94-221.93,221.94-221.93c24.03-24.03,55.98-37.27,89.96-37.27s65.93,13.23,89.96,37.27l131.98,131.97c49.6,49.61,49.6,130.31,0,179.92l-131.98,131.98c-24.03,24.03-55.98,37.26-89.96,37.26Zm-264.47-259.2l198.22,198.22c36.53,36.53,95.97,36.52,132.5,0l131.98-131.98c36.53-36.53,36.53-95.97,0-132.5l-131.98-131.97c-17.7-17.7-41.22-27.44-66.25-27.44s-48.55,9.75-66.25,27.44l-198.22,198.22Z"/><g><path class="cls-1" d="M1813.99,260.82l-6.63-41.44c-1.01-7.17-6.37-11.15-14.81-11.15l-49.44-.14c-7.95,0-13.8-3.97-14.81-11.15l-.17-1.18c-1.61-11.39-9.61-20.86-20.58-24.34l-66.42-24.32c-1.66-.53-3.19-1.38-4.51-2.5-.48-.41-.8-.96-.97-1.57l-12.42-42.67c-.13-.43-.36-.83-.7-1.12-3.65-3-9.25-1.95-11.5,2.32l-24.5,54.88c-.89,1.68-1.4,3.54-1.5,5.45l3.01,25.01c-.14,2.64-1.08,5.2-2.7,7.3l-48.86,48.59c-5.2,5.2-16.08,16.08-16.08,16.08l136.84,136.85,12.2-50.1c1.05-5.87,5.91-10.29,11.84-10.77l25.89-2.09c80.88-3.46,81.72-26.8,104.9-63.08,1.35-2.12,2.07-4.58,2.07-7.08,0-.6-.04-1.21-.13-1.81Zm-106.45-40.35c-5.96,1.5-22.58,.54-24.08-5.43-1.5-5.95,12.71-14.66,18.66-16.15,5.96-1.5,12,2.12,13.5,8.08,1.49,5.95-2.13,12-8.08,13.49Z"/><path class="cls-1" d="M1680.04,153.81l-13.04-48.97c-.14-.53-.47-1.01-.92-1.33-2.89-2.07-7.06-1.18-8.79,2.09l-16.37,33.9,39.12,14.32Z"/><path class="cls-1" d="M1655.16,404.17l-.85,3.47c-1.93,7.9-11.75,10.65-17.49,4.9l-123.3-123.3-11.74-11.74,13.35-13.35,11.74,11.74,128.28,128.28Z"/></g></svg>