<svg xmlns="http://www.w3.org/2000/svg" viewBox="0 0 500 500"><g id="freepik--Shadow--inject-38"><ellipse id="freepik--path--inject-38" cx="245.18" cy="412.39" rx="193.89" ry="11.32" style="fill:#f5f5f5"></ellipse></g><g id="freepik--Extraction--inject-38"><path d="M396.51,241.47c-7.08,0-15.44-12.93-22.82-24.35-4.84-7.48-9.54-14.75-14.54-20H375.7v-8H355.4c3.63-4.14,7.07-9.45,10.6-14.9,5.54-8.58,12.44-19.25,17.71-19.25h15.52v-8H383.71c-9.63,0-16.82,11.13-24.43,22.91-5.54,8.57-12.44,19.24-17.72,19.24H164.42c-5.27,0-12.17-10.67-17.71-19.24C139.09,158.1,131.9,147,122.28,147H106.75v8h15.53c5.27,0,12.17,10.67,17.71,19.25,3.52,5.45,7,10.76,10.59,14.9H78.68v8h80.66c-5,5.25-9.71,12.52-14.54,20-7.38,11.41-15.74,24.35-22.82,24.35H92.56v8H122c11.43,0,20.23-13.6,29.53-28,7.38-11.42,15.74-24.35,22.82-24.35H344.15c7.08,0,15.44,12.93,22.82,24.35,9.31,14.4,18.1,28,29.54,28h29.42v-8Z" style="fill:#263238"></path><g style="opacity:0.4"><path d="M351.72,195.21l-.42.62c5.89,4.06,11.47,12.26,17.62,21.76l.63-.41C363.35,207.61,357.73,199.35,351.72,195.21Z" style="fill:#fff"></path><path d="M377.34,229l-.62.43a69.87,69.87,0,0,0,9,11l.51-.55A68.36,68.36,0,0,1,377.34,229Z" style="fill:#fff"></path><path d="M370.83,220.55c1.3,2,2.59,4,3.89,5.92l.62-.42c-1.29-1.93-2.58-3.92-3.88-5.91Z" style="fill:#fff"></path><path d="M389,242l-.44.6a13.58,13.58,0,0,0,8,3h19.84v-.75H396.51A12.88,12.88,0,0,1,389,242Z" style="fill:#fff"></path><rect x="419.93" y="244.88" width="6" height="0.75" style="fill:#fff"></rect><rect x="78.68" y="192.53" width="6" height="0.75" style="fill:#fff"></rect><rect x="90.49" y="192.53" width="23.27" height="0.75" style="fill:#fff"></rect><path d="M119.58,192.53v.75h46.53v-.75h-1.69a9.73,9.73,0,0,1-5.4-1.84l-.41.63a13.72,13.72,0,0,0,2.24,1.21Z" style="fill:#fff"></path><rect x="288.26" y="192.53" width="23.27" height="0.75" style="fill:#fff"></rect><path d="M363.88,193.28v-.75H345.14a14.14,14.14,0,0,0,2.24-1.21l-.42-.63a9.7,9.7,0,0,1-5.4,1.84H317.35v.75h26.8a10.71,10.71,0,0,1,4.13.87l.29-.69-.5-.18Z" style="fill:#fff"></path><rect x="270.81" y="192.53" width="11.63" height="0.75" style="fill:#fff"></rect><rect x="218.46" y="192.53" width="46.53" height="0.75" style="fill:#fff"></rect><rect x="369.7" y="192.53" width="6" height="0.75" style="fill:#fff"></rect><path d="M361.28,174.62l-.63-.41c-3.12,4.79-6.75,10.19-10.4,13.78l.52.53C354.48,184.88,358.14,179.44,361.28,174.62Z" style="fill:#fff"></path><path d="M383.71,151.13h5.18v-.75h-5.18c-7.64,0-14.58,10.72-20.7,20.18l.63.41C369.66,161.67,376.48,151.13,383.71,151.13Z" style="fill:#fff"></path><rect x="393.23" y="150.38" width="6" height="0.75" style="fill:#fff"></rect><path d="M155.74,188c-3.66-3.59-7.29-9-10.4-13.78l-.63.41c3.14,4.82,6.8,10.26,10.5,13.9Z" style="fill:#fff"></path><path d="M142.35,171l.63-.41c-6.13-9.46-13.07-20.18-20.7-20.18h-5.19v.75h5.19C129.5,151.13,136.33,161.67,142.35,171Z" style="fill:#fff"></path><rect x="106.75" y="150.38" width="6" height="0.75" style="fill:#fff"></rect><polygon points="189.38 192.53 187.61 192.53 187.61 193.28 189.38 193.28 193.61 193.28 212.65 193.28 212.65 192.53 193.61 192.53 189.38 192.53" style="fill:#fff"></polygon><path d="M148.94,217.18l.63.41c6.15-9.5,11.72-17.7,17.62-21.76l-.43-.62C160.75,199.35,155.13,207.61,148.94,217.18Z" style="fill:#fff"></path><path d="M174.33,192.53h-2.4v.29a12.4,12.4,0,0,0-2,.64l.29.69a10.79,10.79,0,0,1,4.13-.87h9.74v-.75h-9.74Z" style="fill:#fff"></path><path d="M122,244.88H102.14v.75H122a13.55,13.55,0,0,0,8-3l-.44-.6A12.88,12.88,0,0,1,122,244.88Z" style="fill:#fff"></path><path d="M143.14,226.05l.63.42c1.29-1.94,2.59-3.93,3.88-5.92l-.63-.41C145.73,222.13,144.44,224.12,143.14,226.05Z" style="fill:#fff"></path><path d="M132.21,239.8l.52.55a69.34,69.34,0,0,0,9-11l-.61-.43A68.33,68.33,0,0,1,132.21,239.8Z" style="fill:#fff"></path><rect x="92.56" y="244.88" width="6" height="0.75" style="fill:#fff"></rect></g></g><g id="freepik--Folders--inject-38"><path d="M122.32,226.15H115a5.16,5.16,0,0,0-4.29,2.3l-1.07,1.62a4.71,4.71,0,0,1-3.93,2.11H86.78a3.07,3.07,0,0,0-3.07,3.08v29.53h42.65V232.18l-.38-2.83A3.69,3.69,0,0,0,122.32,226.15Z" style="fill:#407BFF"></path><path d="M122.32,226.15H115a5.16,5.16,0,0,0-4.29,2.3l-1.07,1.62a4.71,4.71,0,0,1-3.93,2.11H86.78a3.07,3.07,0,0,0-3.07,3.08v29.53h42.65V232.18l-.38-2.83A3.69,3.69,0,0,0,122.32,226.15Z" style="fill:#fff;opacity:0.2"></path><rect x="86.91" y="235.92" width="36.25" height="24.79" style="fill:#263238"></rect><rect x="86.91" y="235.92" width="36.25" height="24.79" style="fill:#fff;opacity:0.9"></rect><path d="M126.36,264.79H83.71L77.45,242a2.72,2.72,0,0,1,2.62-3.43h35a5.45,5.45,0,0,1,5.24,4Z" style="fill:#407BFF"></path><path d="M126.36,264.79H83.71L77.45,242a2.72,2.72,0,0,1,2.62-3.43h35a5.45,5.45,0,0,1,5.24,4Z" style="fill:#fff;opacity:0.6000000000000001"></path><path d="M75.2,117.57h7.91a5.56,5.56,0,0,1,4.63,2.48l1.15,1.75a5.12,5.12,0,0,0,4.25,2.28h20.41a3.31,3.31,0,0,1,3.31,3.31v29.16a2.71,2.71,0,0,1-2.71,2.71H73.56a2.71,2.71,0,0,1-2.71-2.71V124.08l.41-3.06A4,4,0,0,1,75.2,117.57Z" style="fill:#407BFF"></path><path d="M75.2,117.57h7.91a5.56,5.56,0,0,1,4.63,2.48l1.15,1.75a5.12,5.12,0,0,0,4.25,2.28h20.41a3.31,3.31,0,0,1,3.31,3.31v29.16a2.71,2.71,0,0,1-2.71,2.71H73.56a2.71,2.71,0,0,1-2.71-2.71V124.08l.41-3.06A4,4,0,0,1,75.2,117.57Z" style="fill:#fff;opacity:0.6000000000000001"></path><rect x="104.5" y="124.08" width="4.09" height="28.33" style="fill:#263238"></rect><rect x="104.5" y="124.08" width="4.09" height="28.33" style="fill:#fff;opacity:0.5"></rect><rect x="103.53" y="125.43" width="3.14" height="2.33" style="fill:#263238"></rect><rect x="103.53" y="130.51" width="3.14" height="2.33" style="fill:#263238"></rect><rect x="103.53" y="135.59" width="3.14" height="2.33" style="fill:#263238"></rect><rect x="103.53" y="140.67" width="3.14" height="2.33" style="fill:#263238"></rect><rect x="103.53" y="145.75" width="3.14" height="2.33" style="fill:#263238"></rect><rect x="103.53" y="125.43" width="3.14" height="2.33" style="fill:#fff;opacity:0.7000000000000001"></rect><rect x="103.53" y="130.51" width="3.14" height="2.33" style="fill:#fff;opacity:0.7000000000000001"></rect><rect x="103.53" y="135.59" width="3.14" height="2.33" style="fill:#fff;opacity:0.7000000000000001"></rect><rect x="103.53" y="140.67" width="3.14" height="2.33" style="fill:#fff;opacity:0.7000000000000001"></rect><rect x="103.53" y="145.75" width="3.14" height="2.33" style="fill:#fff;opacity:0.7000000000000001"></rect><rect x="106.57" y="127.76" width="3.14" height="2.33" style="fill:#263238"></rect><rect x="106.57" y="132.84" width="3.14" height="2.33" style="fill:#263238"></rect><rect x="106.57" y="137.92" width="3.14" height="2.33" style="fill:#263238"></rect><rect x="106.57" y="143" width="3.14" height="2.33" style="fill:#263238"></rect><rect x="106.57" y="148.08" width="3.14" height="2.33" style="fill:#263238"></rect><g style="opacity:0.8"><rect x="106.57" y="127.76" width="3.14" height="2.33" style="fill:#fff"></rect><rect x="106.57" y="132.84" width="3.14" height="2.33" style="fill:#fff"></rect><rect x="106.57" y="137.92" width="3.14" height="2.33" style="fill:#fff"></rect><rect x="106.57" y="143" width="3.14" height="2.33" style="fill:#fff"></rect><rect x="106.57" y="148.08" width="3.14" height="2.33" style="fill:#fff"></rect></g><path d="M102.17,150.42v9.29h9v-9.29Zm7.55,7.6h-6V152.1h6Z" style="fill:#263238"></path><path d="M102.17,150.42v9.29h9v-9.29Zm7.55,7.6h-6V152.1h6Z" style="fill:#fff;opacity:0.7000000000000001"></path><polygon points="104.7 171.15 63.01 171.15 63.01 180.44 72.29 189.72 113.97 189.72 113.97 180.43 104.7 171.15" style="fill:#407BFF"></polygon><polygon points="104.7 171.15 63.01 171.15 63.01 180.44 72.29 189.72 113.97 189.72 113.97 180.43 104.7 171.15" style="fill:#fff;opacity:0.30000000000000004"></polygon><rect x="72.29" y="189.71" width="41.69" height="9.29" style="fill:#407BFF"></rect><rect x="72.29" y="189.71" width="41.69" height="9.29" style="fill:#fff;opacity:0.30000000000000004"></rect><rect x="72.29" y="199" width="41.69" height="9.29" style="fill:#407BFF"></rect><rect x="72.29" y="199" width="41.69" height="9.29" style="fill:#fff;opacity:0.6000000000000001"></rect><rect x="72.29" y="180.43" width="41.69" height="9.29" style="fill:#407BFF"></rect><polygon points="88.01 208.29 97.37 208.29 97.37 180.43 88.09 171.15 78.73 171.15 88.01 180.43 88.01 208.29" style="fill:#407BFF"></polygon><polygon points="88.01 208.29 97.37 208.29 97.37 180.43 88.09 171.15 78.73 171.15 88.01 180.43 88.01 208.29" style="opacity:0.2"></polygon><path d="M85.52,187.07v14.58H99.64V187.07ZM97.37,199H88v-9.29h9.36Z" style="fill:#263238"></path><path d="M85.52,187.07v14.58H99.64V187.07ZM97.37,199H88v-9.29h9.36Z" style="fill:#fff;opacity:0.5"></path><polygon points="63.01 171.15 63.01 180.44 72.29 189.72 72.29 180.43 63.01 171.15" style="fill:#263238"></polygon><polygon points="63.01 171.15 63.01 180.44 72.29 189.72 72.29 180.43 63.01 171.15" style="fill:#fff;opacity:0.5"></polygon><polygon points="63.01 180.43 63.01 189.73 72.29 199 72.29 189.71 63.01 180.43" style="fill:#263238"></polygon><polygon points="63.01 180.43 63.01 189.73 72.29 199 72.29 189.71 63.01 180.43" style="fill:#fff;opacity:0.6000000000000001"></polygon><polygon points="63.01 189.72 63.01 199.01 72.29 208.29 72.29 199 63.01 189.72" style="fill:#263238"></polygon><polygon points="63.01 189.72 63.01 199.01 72.29 208.29 72.29 199 63.01 189.72" style="fill:#fff;opacity:0.8"></polygon></g><g id="freepik--Documents--inject-38"><rect x="388.48" y="213.89" width="45.46" height="61.18" style="fill:#407BFF"></rect><rect x="388.48" y="213.89" width="45.46" height="61.18" style="fill:#fff;opacity:0.7000000000000001"></rect><rect x="391.45" y="216.86" width="39.52" height="15.93" style="fill:#fff;opacity:0.7000000000000001"></rect><rect x="391.45" y="236.51" width="39.52" height="15.93" style="fill:#fff;opacity:0.7000000000000001"></rect><polygon points="430.97 225.45 427.28 220.96 422.73 226.51 418.18 219.97 413.35 224.8 408.61 222.13 404.29 229.29 399.98 222.13 395.09 224.9 391.45 222.84 391.45 224.54 395.09 226.6 399.46 224.13 404.29 232.17 409.13 224.13 413.6 226.65 417.97 222.27 422.63 228.97 427.28 223.3 430.97 227.79 430.97 225.45" style="fill:#407BFF"></polygon><polygon points="430.97 225.45 427.28 220.96 422.73 226.51 418.18 219.97 413.35 224.8 408.61 222.13 404.29 229.29 399.98 222.13 395.09 224.9 391.45 222.84 391.45 224.54 395.09 226.6 399.46 224.13 404.29 232.17 409.13 224.13 413.6 226.65 417.97 222.27 422.63 228.97 427.28 223.3 430.97 227.79 430.97 225.45" style="fill:#fff;opacity:0.5"></polygon><polygon points="430.97 241.35 427.25 243.45 422.36 240.68 418.05 247.84 413.74 240.69 409 243.35 404.17 238.52 399.62 245.06 395.06 239.51 391.45 243.92 391.45 246.26 395.06 241.85 399.71 247.52 404.37 240.82 408.74 245.2 413.21 242.69 418.05 250.72 422.89 242.69 427.25 245.15 430.97 243.06 430.97 241.35" style="fill:#407BFF"></polygon><polygon points="430.97 241.35 427.25 243.45 422.36 240.68 418.05 247.84 413.74 240.69 409 243.35 404.17 238.52 399.62 245.06 395.06 239.51 391.45 243.92 391.45 246.26 395.06 241.85 399.71 247.52 404.37 240.82 408.74 245.2 413.21 242.69 418.05 250.72 422.89 242.69 427.25 245.15 430.97 243.06 430.97 241.35" style="fill:#fff;opacity:0.5"></polygon><path d="M407.77,256.91h22.64a.74.74,0,0,0,0-1.48H407.77a.74.74,0,0,0,0,1.48Z" style="fill:#263238"></path><path d="M407.77,261h19.67a.75.75,0,0,0,0-1.49H407.77a.75.75,0,0,0,0,1.49Z" style="fill:#263238"></path><path d="M407.77,265h19.67a.75.75,0,0,0,0-1.49H407.77a.75.75,0,0,0,0,1.49Z" style="fill:#263238"></path><path d="M407.77,269h20.66a.74.74,0,0,0,0-1.48H407.77a.74.74,0,0,0,0,1.48Z" style="fill:#263238"></path><g style="opacity:0.4"><path d="M407.77,256.91h22.64a.74.74,0,0,0,0-1.48H407.77a.74.74,0,0,0,0,1.48Z" style="fill:#fff"></path><path d="M407.77,261h19.67a.75.75,0,0,0,0-1.49H407.77a.75.75,0,0,0,0,1.49Z" style="fill:#fff"></path><path d="M407.77,265h19.67a.75.75,0,0,0,0-1.49H407.77a.75.75,0,0,0,0,1.49Z" style="fill:#fff"></path><path d="M407.77,269h20.66a.74.74,0,0,0,0-1.48H407.77a.74.74,0,0,0,0,1.48Z" style="fill:#fff"></path></g><rect x="390.28" y="119.78" width="41.33" height="55.62" style="fill:#407BFF"></rect><rect x="390.28" y="119.78" width="41.33" height="55.62" style="fill:#fff;opacity:0.6000000000000001"></rect><rect x="392.98" y="122.48" width="35.93" height="14.48" style="fill:#fff;opacity:0.7000000000000001"></rect><path d="M407.93,141.31h20.59a.68.68,0,0,0,0-1.35H407.93a.68.68,0,0,0,0,1.35Z" style="fill:#263238"></path><path d="M407.93,145h17.89a.68.68,0,0,0,0-1.35H407.93a.68.68,0,0,0,0,1.35Z" style="fill:#263238"></path><path d="M407.93,148.66h17.89a.68.68,0,0,0,0-1.35H407.93a.68.68,0,0,0,0,1.35Z" style="fill:#263238"></path><path d="M407.93,152.34h18.79a.68.68,0,0,0,0-1.35H407.93a.68.68,0,0,0,0,1.35Z" style="fill:#263238"></path><path d="M407.93,156h15.19a.68.68,0,0,0,0-1.35H407.93a.68.68,0,0,0,0,1.35Z" style="fill:#263238"></path><path d="M407.93,159.69h20.59a.68.68,0,0,0,0-1.35H407.93a.68.68,0,0,0,0,1.35Z" style="fill:#263238"></path><path d="M407.93,163.36h17.89a.68.68,0,0,0,0-1.35H407.93a.68.68,0,0,0,0,1.35Z" style="fill:#263238"></path><path d="M407.93,167h17.89a.68.68,0,0,0,0-1.35H407.93a.68.68,0,0,0,0,1.35Z" style="fill:#263238"></path><path d="M407.93,170.71h18.79a.68.68,0,0,0,0-1.35H407.93a.68.68,0,0,0,0,1.35Z" style="fill:#263238"></path><g style="opacity:0.4"><path d="M407.93,141.31h20.59a.68.68,0,0,0,0-1.35H407.93a.68.68,0,0,0,0,1.35Z" style="fill:#fff"></path></g><g style="opacity:0.4"><path d="M407.93,145h17.89a.68.68,0,0,0,0-1.35H407.93a.68.68,0,0,0,0,1.35Z" style="fill:#fff"></path></g><g style="opacity:0.4"><path d="M407.93,148.66h17.89a.68.68,0,0,0,0-1.35H407.93a.68.68,0,0,0,0,1.35Z" style="fill:#fff"></path></g><g style="opacity:0.4"><path d="M407.93,152.34h18.79a.68.68,0,0,0,0-1.35H407.93a.68.68,0,0,0,0,1.35Z" style="fill:#fff"></path></g><g style="opacity:0.4"><path d="M407.93,156h15.19a.68.68,0,0,0,0-1.35H407.93a.68.68,0,0,0,0,1.35Z" style="fill:#fff"></path></g><g style="opacity:0.4"><path d="M407.93,159.69h20.59a.68.68,0,0,0,0-1.35H407.93a.68.68,0,0,0,0,1.35Z" style="fill:#fff"></path></g><g style="opacity:0.4"><path d="M407.93,163.36h17.89a.68.68,0,0,0,0-1.35H407.93a.68.68,0,0,0,0,1.35Z" style="fill:#fff"></path></g><g style="opacity:0.4"><path d="M407.93,167h17.89a.68.68,0,0,0,0-1.35H407.93a.68.68,0,0,0,0,1.35Z" style="fill:#fff"></path></g><g style="opacity:0.4"><path d="M407.93,170.71h18.79a.68.68,0,0,0,0-1.35H407.93a.68.68,0,0,0,0,1.35Z" style="fill:#fff"></path></g><rect x="392.98" y="140.64" width="10.13" height="10.13" style="fill:#407BFF"></rect><rect x="392.98" y="140.64" width="10.13" height="10.13" style="fill:#fff;opacity:0.30000000000000004"></rect><rect x="401.35" y="130.17" width="2.74" height="5.48" style="fill:#407BFF"></rect><rect x="406.84" y="127.42" width="2.74" height="8.22" style="fill:#407BFF"></rect><rect x="412.32" y="128.8" width="2.74" height="6.85" style="fill:#407BFF"></rect><rect x="417.8" y="124.68" width="2.74" height="10.97" style="fill:#407BFF"></rect><rect x="370.04" y="165.99" width="41.33" height="55.62" style="fill:#407BFF"></rect><rect x="370.04" y="165.99" width="41.33" height="55.62" style="fill:#fff;opacity:0.8"></rect><path d="M387.69,172h20.59a.68.68,0,0,0,0-1.35H387.69a.68.68,0,0,0,0,1.35Z" style="fill:#263238"></path><path d="M387.69,175.63h17.89a.68.68,0,0,0,0-1.35H387.69a.68.68,0,0,0,0,1.35Z" style="fill:#263238"></path><path d="M387.69,179.3h17.89a.68.68,0,0,0,0-1.35H387.69a.68.68,0,0,0,0,1.35Z" style="fill:#263238"></path><path d="M387.69,183h18.79a.68.68,0,0,0,0-1.35H387.69a.68.68,0,0,0,0,1.35Z" style="fill:#263238"></path><path d="M387.69,186.65h15.19a.68.68,0,0,0,0-1.35H387.69a.68.68,0,0,0,0,1.35Z" style="fill:#263238"></path><path d="M387.69,190.33h20.59a.68.68,0,0,0,0-1.35H387.69a.68.68,0,0,0,0,1.35Z" style="fill:#263238"></path><path d="M387.69,194h17.89a.68.68,0,0,0,0-1.35H387.69a.68.68,0,0,0,0,1.35Z" style="fill:#263238"></path><path d="M387.69,197.68h17.89a.68.68,0,0,0,0-1.35H387.69a.68.68,0,0,0,0,1.35Z" style="fill:#263238"></path><path d="M387.69,205h15.19a.68.68,0,0,0,0-1.35H387.69a.68.68,0,0,0,0,1.35Z" style="fill:#263238"></path><path d="M387.69,208.71h20.59a.68.68,0,0,0,0-1.35H387.69a.68.68,0,0,0,0,1.35Z" style="fill:#263238"></path><path d="M387.69,212.38h17.89a.68.68,0,0,0,0-1.35H387.69a.68.68,0,0,0,0,1.35Z" style="fill:#263238"></path><path d="M387.69,216.06h17.89a.68.68,0,0,0,0-1.35H387.69a.68.68,0,0,0,0,1.35Z" style="fill:#263238"></path><path d="M387.69,201.35h18.79a.68.68,0,0,0,0-1.35H387.69a.68.68,0,0,0,0,1.35Z" style="fill:#263238"></path><g style="opacity:0.4"><path d="M387.69,172h20.59a.68.68,0,0,0,0-1.35H387.69a.68.68,0,0,0,0,1.35Z" style="fill:#fff"></path><path d="M387.69,175.63h17.89a.68.68,0,0,0,0-1.35H387.69a.68.68,0,0,0,0,1.35Z" style="fill:#fff"></path><path d="M387.69,179.3h17.89a.68.68,0,0,0,0-1.35H387.69a.68.68,0,0,0,0,1.35Z" style="fill:#fff"></path><path d="M387.69,183h18.79a.68.68,0,0,0,0-1.35H387.69a.68.68,0,0,0,0,1.35Z" style="fill:#fff"></path><path d="M387.69,186.65h15.19a.68.68,0,0,0,0-1.35H387.69a.68.68,0,0,0,0,1.35Z" style="fill:#fff"></path><path d="M387.69,190.33h20.59a.68.68,0,0,0,0-1.35H387.69a.68.68,0,0,0,0,1.35Z" style="fill:#fff"></path><path d="M387.69,194h17.89a.68.68,0,0,0,0-1.35H387.69a.68.68,0,0,0,0,1.35Z" style="fill:#fff"></path><path d="M387.69,197.68h17.89a.68.68,0,0,0,0-1.35H387.69a.68.68,0,0,0,0,1.35Z" style="fill:#fff"></path><path d="M387.69,205h15.19a.68.68,0,0,0,0-1.35H387.69a.68.68,0,0,0,0,1.35Z" style="fill:#fff"></path><path d="M387.69,208.71h20.59a.68.68,0,0,0,0-1.35H387.69a.68.68,0,0,0,0,1.35Z" style="fill:#fff"></path><path d="M387.69,212.38h17.89a.68.68,0,0,0,0-1.35H387.69a.68.68,0,0,0,0,1.35Z" style="fill:#fff"></path><path d="M387.69,216.06h17.89a.68.68,0,0,0,0-1.35H387.69a.68.68,0,0,0,0,1.35Z" style="fill:#fff"></path><path d="M387.69,201.35h18.79a.68.68,0,0,0,0-1.35H387.69a.68.68,0,0,0,0,1.35Z" style="fill:#fff"></path></g><path d="M376.39,190.57l-1.63-1.63a6.15,6.15,0,0,0-1.82,4.39h2.31A3.88,3.88,0,0,1,376.39,190.57Z" style="fill:#407BFF"></path><path d="M379.14,197.23a3.9,3.9,0,0,1-3.89-3.9h-2.31a6.2,6.2,0,0,0,6.2,6.2Z" style="fill:#407BFF"></path><path d="M379.14,197.23a3.9,3.9,0,0,1-3.89-3.9h-2.31a6.2,6.2,0,0,0,6.2,6.2Z" style="fill:#fff;opacity:0.30000000000000004"></path><path d="M376.39,190.57a3.85,3.85,0,0,1,2.75-1.14v-2.31a6.18,6.18,0,0,0-4.38,1.82Z" style="fill:#407BFF"></path><path d="M376.39,190.57a3.85,3.85,0,0,1,2.75-1.14v-2.31a6.18,6.18,0,0,0-4.38,1.82Z" style="opacity:0.5"></path><path d="M383,193.33a3.9,3.9,0,0,1-3.9,3.9v2.3a6.21,6.21,0,1,0,0-12.41v2.31A3.89,3.89,0,0,1,383,193.33Z" style="fill:#407BFF"></path><path d="M381.9,196.08l1.63,1.64a6.18,6.18,0,0,0,1.82-4.39H383A3.85,3.85,0,0,1,381.9,196.08Z" style="opacity:0.2"></path><path d="M376.39,178.85l-1.63,1.63a6.14,6.14,0,0,0,4.38,1.82V180A3.86,3.86,0,0,1,376.39,178.85Z" style="fill:#407BFF"></path><path d="M383,176.1a3.9,3.9,0,0,1-3.9,3.9v2.3a6.21,6.21,0,0,0,6.21-6.2Z" style="fill:#407BFF"></path><path d="M383,176.1a3.9,3.9,0,0,1-3.9,3.9v2.3a6.21,6.21,0,0,0,6.21-6.2Z" style="fill:#fff;opacity:0.30000000000000004"></path><path d="M376.39,178.85a3.85,3.85,0,0,1-1.14-2.75h-2.31a6.14,6.14,0,0,0,1.82,4.38Z" style="fill:#407BFF"></path><path d="M376.39,178.85a3.85,3.85,0,0,1-1.14-2.75h-2.31a6.14,6.14,0,0,0,1.82,4.38Z" style="opacity:0.5"></path><path d="M379.14,172.2a3.89,3.89,0,0,1,3.9,3.9h2.31a6.21,6.21,0,1,0-12.41,0h2.31A3.89,3.89,0,0,1,379.14,172.2Z" style="fill:#407BFF"></path><path d="M381.9,173.34l1.63-1.63a6.15,6.15,0,0,0-4.39-1.82v2.31A3.86,3.86,0,0,1,381.9,173.34Z" style="opacity:0.2"></path><path d="M381.9,207.8l1.63-1.63a6.15,6.15,0,0,1,1.82,4.39H383A3.88,3.88,0,0,0,381.9,207.8Z" style="fill:#407BFF"></path><path d="M379.14,214.46a3.9,3.9,0,0,0,3.9-3.9h2.31a6.21,6.21,0,0,1-6.21,6.21Z" style="fill:#407BFF"></path><path d="M379.14,214.46a3.9,3.9,0,0,0,3.9-3.9h2.31a6.21,6.21,0,0,1-6.21,6.21Z" style="fill:#fff;opacity:0.30000000000000004"></path><path d="M381.9,207.8a3.9,3.9,0,0,0-2.76-1.14v-2.31a6.19,6.19,0,0,1,4.39,1.82Z" style="fill:#407BFF"></path><path d="M381.9,207.8a3.9,3.9,0,0,0-2.76-1.14v-2.31a6.19,6.19,0,0,1,4.39,1.82Z" style="opacity:0.5"></path><path d="M375.25,210.56a3.9,3.9,0,0,0,3.89,3.9v2.31a6.21,6.21,0,0,1,0-12.42v2.31A3.9,3.9,0,0,0,375.25,210.56Z" style="fill:#407BFF"></path><path d="M376.39,213.32,374.76,215a6.18,6.18,0,0,1-1.82-4.39h2.31A3.88,3.88,0,0,0,376.39,213.32Z" style="opacity:0.2"></path></g><g id="freepik--Device--inject-38"><path d="M262.44,276.73h24.19a2.65,2.65,0,0,1,2.65,2.65v1.47a2.65,2.65,0,0,1-2.65,2.65H262.44a0,0,0,0,1,0,0v-6.77A0,0,0,0,1,262.44,276.73Z" style="fill:#263238"></path><path d="M215.15,276.73h51.47a2.46,2.46,0,0,1,2.46,2.46V281a2.46,2.46,0,0,1-2.46,2.46H215.15a2.47,2.47,0,0,1-2.47-2.47V279.2A2.46,2.46,0,0,1,215.15,276.73Z"></path><path d="M215.15,276.73h51.47a2.46,2.46,0,0,1,2.46,2.46V281a2.46,2.46,0,0,1-2.46,2.46H215.15a2.47,2.47,0,0,1-2.47-2.47V279.2A2.46,2.46,0,0,1,215.15,276.73Z" style="fill:#fff;opacity:0.5"></path><polygon points="255.32 276.74 268.36 276.74 260.01 245.54 255.32 245.54 255.32 276.74" style="fill:#263238"></polygon><polygon points="266.46 276.74 239.84 276.74 237.19 245.54 258.11 245.54 266.46 276.74"></polygon><polygon points="266.46 276.74 239.84 276.74 237.19 245.54 258.11 245.54 266.46 276.74" style="fill:#fff;opacity:0.30000000000000004"></polygon><path d="M333.51,155.89h-12.1L312,263h12.1a5.11,5.11,0,0,0,5-4.59l8.56-97.9A4.13,4.13,0,0,0,333.51,155.89Z" style="fill:#263238"></path><path d="M321.35,263H174.87a4.13,4.13,0,0,1-4.18-4.59l8.56-97.9a5.11,5.11,0,0,1,5-4.58H330.72a4.13,4.13,0,0,1,4.18,4.58l-8.56,97.9A5.11,5.11,0,0,1,321.35,263Z" style="fill:#263238"></path><path d="M321.35,263H174.87a4.13,4.13,0,0,1-4.18-4.59l8.56-97.9a5.11,5.11,0,0,1,5-4.58H330.72a4.13,4.13,0,0,1,4.18,4.58l-8.56,97.9A5.11,5.11,0,0,1,321.35,263Z" style="fill:#fff;opacity:0.7000000000000001"></path><path d="M317.44,250.46H181a3.58,3.58,0,0,1-3.63-4l7.11-81.34a4.44,4.44,0,0,1,4.33-4H325.25a3.58,3.58,0,0,1,3.63,4l-7.11,81.34A4.44,4.44,0,0,1,317.44,250.46Z" style="fill:#fafafa;opacity:0.9"></path><polygon points="281.71 189.88 276.94 189.88 277.77 180.33 282.55 180.33 281.71 189.88" style="fill:#407BFF"></polygon><polygon points="281.71 189.88 276.94 189.88 277.77 180.33 282.55 180.33 281.71 189.88" style="opacity:0.2"></polygon><polygon points="291.26 189.88 286.49 189.88 287.74 175.56 292.51 175.56 291.26 189.88" style="fill:#407BFF"></polygon><polygon points="300.81 189.88 296.03 189.88 297.08 177.95 301.85 177.95 300.81 189.88" style="fill:#407BFF"></polygon><polygon points="310.36 189.88 305.58 189.88 307.25 170.79 312.03 170.79 310.36 189.88" style="fill:#407BFF"></polygon><polygon points="310.36 189.88 305.58 189.88 307.25 170.79 312.03 170.79 310.36 189.88" style="opacity:0.4"></polygon><path d="M315.13,189h-42q.79-9.1,1.6-18.21c.1-1.13-1.67-1.13-1.77,0q-.82,9.54-1.67,19.09a.89.89,0,0,0,.88.88h43A.88.88,0,0,0,315.13,189Z" style="fill:#407BFF"></path><path d="M315.13,189h-42q.79-9.1,1.6-18.21c.1-1.13-1.67-1.13-1.77,0q-.82,9.54-1.67,19.09a.89.89,0,0,0,.88.88h43A.88.88,0,0,0,315.13,189Z" style="fill:#fff;opacity:0.5"></path><path d="M203,184.71l-3.11,2.87a9.92,9.92,0,0,0,7.42,3.18l.35-4A6.24,6.24,0,0,1,203,184.71Z" style="fill:#407BFF"></path><path d="M203,184.71l-3.11,2.87a9.92,9.92,0,0,0,7.42,3.18l.35-4A6.24,6.24,0,0,1,203,184.71Z" style="opacity:0.5"></path><path d="M215.05,179.88a7.62,7.62,0,0,1-7.44,6.84l-.35,4a12.12,12.12,0,0,0,11.84-10.88Z" style="fill:#407BFF"></path><path d="M215.05,179.88a7.62,7.62,0,0,1-7.44,6.84l-.35,4a12.12,12.12,0,0,0,11.84-10.88Z" style="opacity:0.1"></path><path d="M203,184.71a6.28,6.28,0,0,1-1.58-4.83h-4a10,10,0,0,0,2.51,7.7Z" style="fill:#407BFF"></path><path d="M208.81,173a6.16,6.16,0,0,1,6.24,6.84h4A9.82,9.82,0,0,0,209.17,169a12.12,12.12,0,0,0-11.84,10.89h4A7.61,7.61,0,0,1,208.81,173Z" style="fill:#407BFF"></path><path d="M208.81,173a6.16,6.16,0,0,1,6.24,6.84h4A9.82,9.82,0,0,0,209.17,169a12.12,12.12,0,0,0-11.84,10.89h4A7.61,7.61,0,0,1,208.81,173Z" style="fill:#fff;opacity:0.2"></path><path d="M213.47,175l3.11-2.86a9.9,9.9,0,0,0-7.41-3.19l-.36,4A6.22,6.22,0,0,1,213.47,175Z" style="fill:#fff;opacity:0.6000000000000001"></path><path d="M233.27,184.71l-3.11,2.87a9.93,9.93,0,0,0,7.42,3.18l.36-4A6.25,6.25,0,0,1,233.27,184.71Z" style="fill:#407BFF"></path><path d="M233.27,184.71l-3.11,2.87a9.93,9.93,0,0,0,7.42,3.18l.36-4A6.25,6.25,0,0,1,233.27,184.71Z" style="opacity:0.5"></path><path d="M245.37,179.88a7.62,7.62,0,0,1-7.43,6.84l-.36,4a12.12,12.12,0,0,0,11.84-10.88Z" style="fill:#407BFF"></path><path d="M245.37,179.88a7.62,7.62,0,0,1-7.43,6.84l-.36,4a12.12,12.12,0,0,0,11.84-10.88Z" style="opacity:0.1"></path><path d="M233.27,184.71a6.31,6.31,0,0,1-1.58-4.83h-4a10,10,0,0,0,2.51,7.7Z" style="fill:#407BFF"></path><path d="M239.13,173a6.16,6.16,0,0,1,6.24,6.84h4A9.82,9.82,0,0,0,239.49,169a12.12,12.12,0,0,0-11.84,10.89h4A7.61,7.61,0,0,1,239.13,173Z" style="fill:#407BFF"></path><path d="M239.13,173a6.16,6.16,0,0,1,6.24,6.84h4A9.82,9.82,0,0,0,239.49,169a12.12,12.12,0,0,0-11.84,10.89h4A7.61,7.61,0,0,1,239.13,173Z" style="fill:#fff;opacity:0.2"></path><path d="M243.79,175l3.11-2.86a9.9,9.9,0,0,0-7.41-3.19l-.36,4A6.22,6.22,0,0,1,243.79,175Z" style="fill:#fff;opacity:0.6000000000000001"></path><path d="M278.83,225.3h-5.7l.49-5.7h5.71Zm-4.36-1.24h3.22l.29-3.22h-3.22Z" style="fill:#407BFF"></path><path d="M278.07,234h-5.7l.49-5.7h5.71Zm-4.35-1.24h3.22l.28-3.22H274Z" style="fill:#407BFF"></path><path d="M277.31,242.65h-5.7l.5-5.69h5.7ZM273,241.42h3.22l.28-3.23h-3.22Z" style="fill:#407BFF"></path><path d="M282.78,224a1.25,1.25,0,0,1-1.27-1.39,1.55,1.55,0,0,1,1.51-1.39h19.07a1.25,1.25,0,0,1,1.27,1.39,1.54,1.54,0,0,1-1.51,1.39Z" style="fill:#407BFF"></path><path d="M282.78,224a1.25,1.25,0,0,1-1.27-1.39,1.55,1.55,0,0,1,1.51-1.39h19.07a1.25,1.25,0,0,1,1.27,1.39,1.54,1.54,0,0,1-1.51,1.39Z" style="fill:#fff;opacity:0.7000000000000001"></path><path d="M281.27,241.2a1.27,1.27,0,0,1-1.27-1.39,1.55,1.55,0,0,1,1.52-1.39h16a1.25,1.25,0,0,1,1.26,1.39,1.55,1.55,0,0,1-1.51,1.39Z" style="fill:#407BFF"></path><path d="M281.27,241.2a1.27,1.27,0,0,1-1.27-1.39,1.55,1.55,0,0,1,1.52-1.39h16a1.25,1.25,0,0,1,1.26,1.39,1.55,1.55,0,0,1-1.51,1.39Z" style="fill:#fff;opacity:0.4"></path><path d="M282,232.52a1.26,1.26,0,0,1-1.27-1.39,1.55,1.55,0,0,1,1.52-1.39H297a1.26,1.26,0,0,1,1.27,1.39,1.55,1.55,0,0,1-1.51,1.39Z" style="fill:#407BFF"></path><path d="M282,232.52a1.26,1.26,0,0,1-1.27-1.39,1.55,1.55,0,0,1,1.52-1.39H297a1.26,1.26,0,0,1,1.27,1.39,1.55,1.55,0,0,1-1.51,1.39Z" style="fill:#fff;opacity:0.2"></path><path d="M263.53,233.56q-2.14-3-4.31-5.89a.91.91,0,0,0-1.4-.18l-4.57,5c-1.2-2-2.39-3.93-3.59-5.9a.9.9,0,0,0-1.4-.19c-1.58,1.45-3.12,2.95-4.74,4.36-.48-.26-1-.56-1.42-.84l-2.6-1.54a.91.91,0,0,0-1.22.32l-4.62,6.69q-1.72-3.34-3.44-6.69a.91.91,0,0,0-1.22-.32l-2.21,1.18c-.44.25-2,1-2.38,1.33a18.1,18.1,0,0,0-1.92-1.14l-2.31-1.37a.89.89,0,0,0-.9,1.54c1.28.76,3.56,2.87,5.07,2.86s3.31-1.44,4.74-2.37l3.69,7.16a.9.9,0,0,0,1.54,0l5-7.23,3.88,2.29a.91.91,0,0,0,1.08-.14l4.42-4.06,3.65,6a.9.9,0,0,0,1.4.18l4.64-5.12,3.61,4.94C262.67,235.37,264.21,234.48,263.53,233.56Z" style="fill:#407BFF"></path><path d="M262.09,240.87H219.6q.81-9.21,1.61-18.42c.1-1.14-1.68-1.14-1.78,0l-1.69,19.31a.9.9,0,0,0,.89.89h43.46A.89.89,0,0,0,262.09,240.87Z" style="fill:#407BFF"></path><path d="M262.09,240.87H219.6q.81-9.21,1.61-18.42c.1-1.14-1.68-1.14-1.78,0l-1.69,19.31a.9.9,0,0,0,.89.89h43.46A.89.89,0,0,0,262.09,240.87Z" style="fill:#fff;opacity:0.5"></path><polygon points="308.35 214.69 232.52 214.69 234.21 195.34 310.04 195.34 308.35 214.69" style="fill:#407BFF"></polygon><polygon points="308.35 214.69 232.52 214.69 234.21 195.34 310.04 195.34 308.35 214.69" style="fill:#fff;opacity:0.9"></polygon><path d="M309.69,216.16H230.92l2-22.29h78.77Zm-75.57-2.94H307l1.44-16.4H235.56Z" style="fill:#263238"></path><path d="M249.65,207.61l-.14,1.54h-6.39l.72-8.26h6.24l-.13,1.53h-4.34l-.16,1.8h3.83l-.13,1.48h-3.83l-.17,1.91Z" style="fill:#407BFF"></path><path d="M256.15,209.15l-1.74-2.87-2.21,2.87H250l3.42-4.2-2.55-4.06h2.17l1.67,2.68,2.09-2.68h2.07l-3.23,4,2.71,4.27Z" style="fill:#407BFF"></path><path d="M261.31,202.45h-2.64l.14-1.56H266l-.13,1.56h-2.64l-.59,6.7h-1.91Z" style="fill:#407BFF"></path><path d="M271.57,209.15l-1.39-2.3h-1.76l-.2,2.3h-1.91l.72-8.26h3.57a4.47,4.47,0,0,1,1.88.36,2.54,2.54,0,0,1,1.15,1,2.76,2.76,0,0,1,.3,1.6,3.08,3.08,0,0,1-.58,1.58,3.15,3.15,0,0,1-1.35,1l1.62,2.66Zm.07-6.33a1.88,1.88,0,0,0-1.28-.37H268.8l-.25,2.87h1.56a2.13,2.13,0,0,0,1.34-.37,1.47,1.47,0,0,0,.54-1.06A1.23,1.23,0,0,0,271.64,202.82Z" style="fill:#407BFF"></path><path d="M280.57,207.38h-3.83l-.89,1.77h-2l4.4-8.26h1.89l3,8.26h-2Zm-.48-1.46-1-3.16-1.58,3.16Z" style="fill:#407BFF"></path><path d="M285.6,208.74a3.59,3.59,0,0,1-1.47-1.52,3.85,3.85,0,0,1-.39-2.2,4.54,4.54,0,0,1,.77-2.2,4.64,4.64,0,0,1,1.74-1.52,5,5,0,0,1,2.34-.55,4.62,4.62,0,0,1,1.91.37,3.56,3.56,0,0,1,1.36,1.09l-1.33,1.13a2.4,2.4,0,0,0-2-1,2.94,2.94,0,0,0-1.39.33,2.57,2.57,0,0,0-1,.94,2.9,2.9,0,0,0-.46,1.37,2.58,2.58,0,0,0,.22,1.37,2.07,2.07,0,0,0,.85.93,2.54,2.54,0,0,0,1.34.34,2.87,2.87,0,0,0,2.16-1l1.13,1.13a4.3,4.3,0,0,1-1.56,1.1,5.1,5.1,0,0,1-2,.38A4.52,4.52,0,0,1,285.6,208.74Z" style="fill:#407BFF"></path><path d="M294.75,202.45h-2.64l.14-1.56h7.19l-.13,1.56h-2.65l-.58,6.7h-1.91Z" style="fill:#407BFF"></path></g><g id="freepik--Desk--inject-38"><rect x="156.76" y="290.33" width="205.63" height="114.97" style="fill:#407BFF"></rect><rect x="141.58" y="290.33" width="19.18" height="114.97" transform="translate(302.34 695.63) rotate(180)" style="fill:#407BFF"></rect><rect x="141.58" y="290.33" width="19.18" height="114.97" transform="translate(302.34 695.63) rotate(180)" style="fill:#fff;opacity:0.30000000000000004"></rect><rect x="137.55" y="290.33" width="210.56" height="10.17" style="fill:#407BFF"></rect><rect x="137.55" y="290.33" width="210.56" height="10.17" style="fill:#fff;opacity:0.6000000000000001"></rect><rect x="133.53" y="290.33" width="8.05" height="114.97" style="fill:#407BFF"></rect><rect x="133.53" y="290.33" width="8.05" height="114.97" style="fill:#fff;opacity:0.5"></rect><rect x="353.73" y="290.33" width="19.18" height="114.97" transform="translate(726.64 695.63) rotate(180)" style="fill:#407BFF"></rect><rect x="353.73" y="290.33" width="19.18" height="114.97" transform="translate(726.64 695.63) rotate(180)" style="fill:#fff;opacity:0.30000000000000004"></rect><rect x="360.34" y="283.7" width="17.39" height="8.83" transform="translate(738.08 576.22) rotate(180)" style="fill:#407BFF"></rect><rect x="360.34" y="283.7" width="17.39" height="8.83" transform="translate(738.08 576.22) rotate(180)" style="fill:#fff;opacity:0.30000000000000004"></rect><rect x="253.32" y="305.99" width="86.87" height="99.31" style="fill:#407BFF"></rect><rect x="253.32" y="305.99" width="86.87" height="99.31" style="fill:#fff;opacity:0.5"></rect><rect x="340.19" y="305.99" width="5.49" height="99.31" style="fill:#407BFF"></rect><rect x="340.19" y="305.99" width="5.49" height="99.31" style="fill:#fff;opacity:0.2"></rect><rect x="258.81" y="338.61" width="75.89" height="22.97" style="fill:#407BFF"></rect><rect x="258.81" y="311.4" width="75.89" height="22.97" style="fill:#407BFF"></rect><rect x="258.81" y="365.82" width="75.89" height="22.97" style="fill:#407BFF"></rect><g style="opacity:0.7000000000000001"><rect x="258.81" y="338.61" width="75.89" height="22.97" style="fill:#fff"></rect><rect x="258.81" y="311.4" width="75.89" height="22.97" style="fill:#fff"></rect><rect x="258.81" y="365.82" width="75.89" height="22.97" style="fill:#fff"></rect></g><rect x="345.68" y="290.33" width="8.05" height="114.97" style="fill:#407BFF"></rect><rect x="156.76" y="290.33" width="205.63" height="114.97" style="fill:#fff;opacity:0.1"></rect><rect x="345.68" y="290.33" width="8.05" height="114.97" style="fill:#fff;opacity:0.5"></rect><rect x="126.91" y="283.7" width="233.43" height="8.83" style="fill:#407BFF"></rect><rect x="126.91" y="283.7" width="233.43" height="8.83" style="fill:#fff;opacity:0.6000000000000001"></rect><path d="M297,320.39h-2.63a2.5,2.5,0,0,0,0,5H297a2.5,2.5,0,0,0,0-5Z" style="fill:#407BFF"></path><path d="M297,347.6h-2.63a2.5,2.5,0,0,0,0,5H297a2.5,2.5,0,0,0,0-5Z" style="fill:#407BFF"></path><path d="M297,374.81h-2.63a2.5,2.5,0,0,0,0,5H297a2.5,2.5,0,0,0,0-5Z" style="fill:#407BFF"></path><path d="M296.84,322.89a2.5,2.5,0,1,1-2.5-2.5A2.5,2.5,0,0,1,296.84,322.89Z" style="fill:#fafafa;opacity:0.30000000000000004"></path><path d="M296.84,350.1a2.5,2.5,0,1,1-2.5-2.5A2.5,2.5,0,0,1,296.84,350.1Z" style="fill:#fafafa;opacity:0.30000000000000004"></path><path d="M296.84,377.31a2.5,2.5,0,1,1-2.5-2.5A2.5,2.5,0,0,1,296.84,377.31Z" style="fill:#fafafa;opacity:0.30000000000000004"></path></g><g id="freepik--Character--inject-38"><path d="M209.34,183.11c-1.43,2,1.72,8.45,1.72,8.45l-14.19,1.71,2.78-15.47S211,180.73,209.34,183.11Z" style="fill:#ce7a63"></path><path d="M209.12,186a4.05,4.05,0,0,1,.22-2.9c1-1.48-3-3.17-6.13-4.24C204,180.38,206.09,184.18,209.12,186Z" style="opacity:0.2"></path><polygon points="243.53 394.49 245.04 408.92 238.38 410.17 234.38 396.24 243.53 394.49" style="fill:#ce7a63"></polygon><path d="M244.9,406.45,237.07,408a.65.65,0,0,0-.52.62l-.14,6.65a1.07,1.07,0,0,0,1,1.1.82.82,0,0,0,.22,0c2.82-.61,5.3-1.27,8.81-2,4.15-.83,3.19-.12,8.08-1,2.95-.55,2.82-4,1.54-3.91-5.84.43-6.78-1.18-9.39-2.78A2.64,2.64,0,0,0,244.9,406.45Z" style="fill:#263238"></path><polygon points="237.02 405.44 244.57 404.45 243.53 394.49 234.38 396.24 237.02 405.44" style="opacity:0.2"></polygon><polygon points="185.93 391.56 181.39 409.46 175 408.56 176.7 391.05 185.93 391.56" style="fill:#ce7a63"></polygon><path d="M182.24,407.21l-8-.56a.65.65,0,0,0-.66.46l-1.9,6.37a1.08,1.08,0,0,0,.71,1.34l.23,0c2.87.15,5.44.18,9,.43,4.22.3,3.11.73,8.07,1.15,3,.25,3.77-3.11,2.51-3.36-5.74-1.14-6.22-2.94-8.31-5.17A2.6,2.6,0,0,0,182.24,407.21Z" style="fill:#263238"></path><path d="M175.39,404.49l7,1.07,3.34-13.19c-3.06-.33-8.08-.83-9.06-.93Z" style="opacity:0.2"></path><path d="M192.84,254.53s-2.2,6.4-2.52,22c-.2,9.3-1.11,24-1.81,34.39-.2,3-.39,5.68-.54,7.71a24.11,24.11,0,0,1-1.78,7.5c-.68,1.66-1.53,3.94-2.41,6.77A106.1,106.1,0,0,0,180,350.5c-2.33,17.44-5,51.24-5,51.24l8.63,1.12,21.26-78.77,22.65-69.62Z" style="fill:#263238"></path><path d="M215.39,292.09l-.91-6.86L207.06,279l-2.49-1.23a83.27,83.27,0,0,1,4.33,33.64Z" style="opacity:0.2"></path><path d="M234.27,254.85l10.39,146.3-8.8,1.5s-11.76-40.49-13.75-62.87a57.05,57.05,0,0,1-.26-7.14,28.32,28.32,0,0,0-1.19-9l-1.24-4.17L212.49,296a40.19,40.19,0,0,0-6.86-13.54c-3.61-4.55-8.07-13.37-6.22-28L232,252.17Z" style="fill:#263238"></path><path d="M201.73,245.61s5.05-1,6.75-.87a32.89,32.89,0,0,1,5.41,1.77,2.32,2.32,0,0,1,.85,3.92s-2.77,3.56-4.16,3.86c-2.77.58-10.71-3.67-10.71-3.67Z" style="fill:#ce7a63"></path><polygon points="201.48 243.19 198.68 252.24 201.37 252.47 203.84 244.56 201.48 243.19" style="fill:#263238"></polygon><polygon points="201.48 243.19 198.68 252.24 201.37 252.47 203.84 244.56 201.48 243.19" style="fill:#fff;opacity:0.2"></polygon><path d="M184.86,200.07a2.93,2.93,0,0,0-5,.58c-3.15,6.74-11.1,24.61-11.13,33.29,0,10.81,31.75,17.21,31.75,17.21l1.92-6.21L180.56,231.5l6.29-14.83S188.41,204.94,184.86,200.07Z" style="fill:#407BFF"></path><path d="M184.86,200.07a2.93,2.93,0,0,0-5,.58c-3.15,6.74-11.1,24.61-11.13,33.29,0,10.81,31.75,17.21,31.75,17.21l1.92-6.21L180.56,231.5l6.29-14.83S188.41,204.94,184.86,200.07Z" style="opacity:0.1"></path><g style="opacity:0.4"><path d="M185.51,201.15l-3.43.47-2,1.41,2.35,24,4.39-10.34S188.21,206.47,185.51,201.15Z"></path><path d="M192.13,238.61,183.05,233l1.32,13.48c1.9.71,3.8,1.34,5.6,1.9Z"></path></g><path d="M233.78,254.77s-15.65,5.12-41.28,1L180.21,204a9,9,0,0,1,4.52-9.82c5.27-2.92,15.71-5.66,36.3-4.53a11.49,11.49,0,0,1,10.54,8.83Z" style="fill:#407BFF"></path><path d="M192.68,191.79l1.56-3.67s6.17-3.12,16.63-1.65l2.49,2.88S201.65,189.63,192.68,191.79Z" style="fill:#263238"></path><path d="M216.76,164.9c.14.58-.06,1.13-.45,1.21s-.85-.33-1-.9,0-1.13.44-1.21S216.61,164.32,216.76,164.9Z" style="fill:#263238"></path><path d="M216.23,166.66l4,3.91a4.27,4.27,0,0,1-3.62,1.14Z" style="fill:#ba4d3c"></path><path d="M193.43,167.51c1.53,7.83,2,11.19,6.61,14.76,6.78,3.39,16.47,1.9,17.36-6.22.81-7.3-1.82-18.86-10.16-21.12a11.09,11.09,0,0,0-13.65,7.58A10.57,10.57,0,0,0,193.43,167.51Z" style="fill:#ce7a63"></path><path d="M213.81,163.06a.32.32,0,0,0,.27-.14,2.48,2.48,0,0,1,1.95-1.14.3.3,0,0,0,.32-.3.32.32,0,0,0-.32-.32,3,3,0,0,0-2.49,1.4.33.33,0,0,0,.09.44h0A.43.43,0,0,0,213.81,163.06Z" style="fill:#263238"></path><path d="M233.27,229.25l-1.05-19-6.78-9-3.71-3.44-2.86,2S219.26,210.33,233.27,229.25Z" style="opacity:0.4"></path><path d="M235.47,202.29c3.76,6.9,5.21,11,6.5,12.69a.77.77,0,0,0,.73.31l21.95-3.19a.78.78,0,0,1,.86.53l1.77,5.43a.78.78,0,0,1-.5,1l-20.58,7a10.7,10.7,0,0,1-10.95-1.92,58.25,58.25,0,0,1-14-18.38c-1.58-3.12-5.25-8.9.78-14C227,187.53,233,197.71,235.47,202.29Z" style="fill:#407BFF"></path><path d="M235.47,202.29c3.76,6.9,5.21,11,6.5,12.69a.77.77,0,0,0,.73.31l21.95-3.19a.78.78,0,0,1,.86.53l1.77,5.43a.78.78,0,0,1-.5,1l-20.58,7a10.7,10.7,0,0,1-10.95-1.92,58.25,58.25,0,0,1-14-18.38c-1.58-3.12-5.25-8.9.78-14C227,187.53,233,197.71,235.47,202.29Z" style="fill:#fff;opacity:0.1"></path><path d="M265.29,212.62l4.52-5.32a3.83,3.83,0,0,1,1.87-1.21l10.65-3.1a.79.79,0,0,1,.91.4h0a.78.78,0,0,1-.4,1.08l-4.4,1.8a.77.77,0,0,0-.48.78l.22,2.66a3.89,3.89,0,0,1-2.26,3.85l-3.2,1.46-.37.14-5.5,1.85a.77.77,0,0,1-1-.56l-.73-3.15A.79.79,0,0,1,265.29,212.62Z" style="fill:#ce7a63"></path><path d="M264,212.07l2.71,6.84a.79.79,0,0,0,1.07.42l.9-.44a.78.78,0,0,0,.38-1l-2.58-6.56a.8.8,0,0,0-.85-.49l-1,.16A.78.78,0,0,0,264,212.07Z" style="fill:#263238"></path><polygon points="234.14 400.57 235.5 404.18 245.87 402.58 245.58 398.74 234.14 400.57" style="fill:#407BFF"></polygon><polygon points="234.14 400.57 235.5 404.18 245.87 402.58 245.58 398.74 234.14 400.57" style="opacity:0.2"></polygon><polygon points="174.01 399.11 173.85 402.91 184.25 404.3 185.06 400.53 174.01 399.11" style="fill:#407BFF"></polygon><polygon points="174.01 399.11 173.85 402.91 184.25 404.3 185.06 400.53 174.01 399.11" style="opacity:0.2"></polygon><path d="M198.79,182.51s1.16-1.65,4.66.26c0,0,5-5.57,5.12-10.78,0,0,3.67-.67,3.37-3.05s-2.06-5.47-1.69-7.62,3.94-7.79.91-10.3-3.39.48-5.11.8-12.08.7-13.41,8a10.06,10.06,0,0,0-.69,12.46C196.48,179.34,198.79,182.51,198.79,182.51Z" style="fill:#263238"></path><path d="M208.73,167.1l9.08-5s2.28,5.94,1.18,6.24-2.53-4.37-2.53-4.37L210,167Z" style="fill:#407BFF"></path><path d="M216.69,164.09l.69-.41s1.87,4.2,1.36,4.57S216.69,164.09,216.69,164.09Z" style="fill:#fff;opacity:0.7000000000000001"></path><path d="M210,167.28a6.17,6.17,0,0,1,2.64,3.95c.4,2.12-1.6,3-3.55,2.24-1.76-.68-4.08-2.61-3.59-4.67A2.85,2.85,0,0,1,210,167.28Z" style="fill:#ce7a63"></path></g></svg>